<svg width="317" height="195" viewBox="0 0 317 195" fill="none" xmlns="http://www.w3.org/2000/svg">
<path d="M18.0449 7.27156C17.681 7.27156 17.4385 7.57437 17.4385 7.87713V50.8726C17.4385 51.1756 17.681 51.4178 18.0449 51.4178H44.9686C53.0943 51.4178 59.7645 44.7563 59.7645 36.6417C59.7645 34.0378 59.0974 31.5549 57.824 29.3143C59.0974 27.1343 59.7645 24.6515 59.7645 22.0475C59.7645 13.9328 53.0943 7.27156 44.9686 7.27156H18.0449ZM37.2068 21.7447V18.0507H38.2377C39.2685 18.0507 40.1174 18.8985 40.1174 19.928C40.1174 20.9574 39.2685 21.7447 38.2377 21.7447H37.2068ZM37.2068 40.8202V37.0656H38.2377C39.2685 37.0656 40.1174 37.9134 40.1174 38.9429C40.1174 39.9723 39.2685 40.8202 38.2377 40.8202H37.2068ZM86.3623 30.7072C85.5135 30.7072 84.7856 30.041 84.7856 29.1327V7.87713C84.7856 7.51383 84.5431 7.27156 84.2397 7.27156H64.4718C64.1075 7.27156 63.865 7.51383 63.865 7.87713V29.496C63.865 41.668 74.0524 51.4178 86.3623 51.4178C98.6722 51.4178 108.86 41.668 108.86 29.496V7.87713C108.86 7.51383 108.617 7.27156 108.253 7.27156H88.4849C88.1815 7.27156 87.939 7.51383 87.939 7.87713V29.1327C87.939 30.041 87.211 30.7072 86.3623 30.7072ZM124.035 28.7088C130.099 28.7088 134.95 23.8642 134.95 17.8691C134.95 11.8739 130.099 7.27156 124.035 7.27156C118.032 7.27156 113.12 11.8739 113.12 17.8691C113.12 23.8642 118.032 28.7088 124.035 28.7088ZM114.03 29.9805C113.727 29.9805 113.423 30.2832 113.423 30.586V50.8119C113.423 51.1756 113.727 51.4178 114.03 51.4178H134.041C134.344 51.4178 134.647 51.1756 134.647 50.8119V30.586C134.647 30.2832 134.344 29.9805 134.041 29.9805H114.03ZM138.584 50.8726C138.584 51.1756 138.827 51.4178 139.129 51.4178H182.183C182.486 51.4178 182.79 51.1756 182.79 50.8726V38.519C182.79 38.2162 182.486 37.974 182.183 37.974H159.383V7.81659C159.383 7.51383 159.08 7.27156 158.777 7.27156H139.129C138.827 7.27156 138.584 7.51383 138.584 7.81659V50.8726ZM187.348 7.27156C186.985 7.27156 186.742 7.57437 186.742 7.87713V50.8726C186.742 51.1756 186.985 51.4178 187.348 51.4178H207.481C219.669 51.4178 229.553 41.4863 229.553 29.3749C229.553 17.2029 219.669 7.27156 207.542 7.27156H187.348ZM206.268 31.4338V27.1343H207.481C208.694 27.1343 209.664 28.1032 209.664 29.3143C209.664 30.5255 208.694 31.4338 207.481 31.4338H206.268ZM286.086 7.63491C286.026 7.39269 285.783 7.27156 285.541 7.27156H266.258C265.954 7.27156 265.772 7.39269 265.651 7.63491L250.795 50.6305C250.613 51.1148 250.855 51.4178 251.34 51.4178H271.23C271.654 51.4178 271.836 51.1756 271.958 50.8119L273.11 47.3603H278.567L279.719 50.8119C279.84 51.1756 280.023 51.4178 280.447 51.4178H300.276C300.761 51.4178 301.003 51.1148 300.822 50.6305L286.086 7.63491ZM277.718 44.8169H273.959L275.838 39.0035L277.718 44.8169ZM20.0428 59.0296C19.3401 59.0296 18.8716 59.6146 18.8716 60.1996V143.245C18.8716 143.83 19.3401 144.298 20.0428 144.298H58.9279C82.4702 144.298 101.561 125.116 101.561 101.722C101.561 78.212 82.4702 59.0296 59.0453 59.0296H20.0428ZM56.5857 105.699V97.3945H58.9279C61.2706 97.3945 63.1448 99.2662 63.1448 101.605C63.1448 103.945 61.2706 105.699 58.9279 105.699H56.5857ZM110.403 59.0296C109.7 59.0296 109.231 59.6146 109.231 60.1996V143.245C109.231 143.83 109.7 144.298 110.403 144.298H191.687C192.39 144.298 192.858 143.947 192.858 143.128V119.852C192.858 119.15 192.39 118.799 191.687 118.799H148.585V114.589H176.344C177.046 114.589 177.398 114.238 177.398 113.419V90.0258C177.398 89.2069 177.046 88.8558 176.344 88.8558H148.585V84.6451H191.687C192.39 84.6451 192.858 84.2945 192.858 83.4756V60.1996C192.858 59.3807 192.39 59.0296 191.687 59.0296H110.403ZM249.464 69.7906C249.23 69.7906 249.113 69.6738 248.41 68.621L242.319 59.9657C241.851 59.2635 241.499 59.0296 241.031 59.0296H199.92C198.866 59.0296 198.398 59.9657 198.983 60.7841L226.156 99.734C227.21 101.255 227.327 101.371 227.327 101.605C227.327 101.839 227.21 101.956 226.156 103.477L198.983 142.544C198.398 143.362 198.866 144.298 199.92 144.298H241.031C241.499 144.298 241.851 144.181 242.085 143.83L248.41 134.707C249.113 133.654 249.23 133.537 249.464 133.537C249.698 133.537 249.815 133.654 250.518 134.707L256.843 143.83C257.077 144.181 257.428 144.298 257.897 144.298H299.007C300.062 144.298 300.53 143.362 299.945 142.544L272.772 103.477C271.718 101.956 271.6 101.839 271.6 101.605C271.6 101.371 271.718 101.255 272.772 99.734L299.945 60.7841C300.53 59.9657 300.062 59.0296 299.007 59.0296H257.897C257.428 59.0296 257.077 59.2635 256.608 59.9657L250.518 68.621C249.815 69.6738 249.698 69.7906 249.464 69.7906Z" fill="#E9D9FF"/>
<path d="M227.43 75.3726H223.027V97.1896H227.43V75.3726Z" fill="#ACC756"/>
<path d="M230.538 80.5481H219.604V96.4947H230.538V80.5481Z" fill="#ACC756"/>
<path d="M233.111 86.261H217.031V99.5538H233.111V86.261Z" fill="#ACC756"/>
<path d="M235.382 91.6972H214.949V99.5533H235.382V91.6972Z" fill="#ACC756"/>
<path d="M230.538 106.863H227.068V113.506H230.538V106.863Z" fill="#4FAB59"/>
<path d="M233.921 104.899H230.451V109.799H233.921V104.899Z" fill="#4FAB59"/>
<path d="M219.918 104.899H216.448V109.799H219.918V104.899Z" fill="#ACC756"/>
<path d="M216.603 102.836H213.133V106.863H216.603V102.836Z" fill="#ACC756"/>
<path d="M237.391 102.781H233.921V106.863H237.391V102.781Z" fill="#4FAB59"/>
<path d="M227.068 108.98H223.17V116.193H227.068V108.98Z" fill="#ACC756"/>
<path d="M223.17 106.863H219.7V113.506H223.17V106.863Z" fill="#ACC756"/>
<path d="M227.43 75.3726H225.15V94.8259H227.43V75.3726Z" fill="#4FAB59"/>
<path d="M230.538 80.4679H226.031V99.124H230.538V80.4679Z" fill="#4FAB59"/>
<path d="M233.311 86.2328H228.803V96.8352H233.311V86.2328Z" fill="#4FAB59"/>
<path d="M235.382 91.8022H230.874V99.1242H235.382V91.8022Z" fill="#4FAB59"/>
<path d="M237.105 97.1898H213.133V100.519H237.105V97.1898Z" fill="#48786A"/>
<path d="M233.921 99.5536H216.536V102.882H233.921V99.5536Z" fill="#48786A"/>
<path d="M230.539 101.57H219.919V104.899H230.539V101.57Z" fill="#48786A"/>
<path d="M227.068 103.964H223.17V106.862H227.068V103.964Z" fill="#48786A"/>
<path d="M237.105 100.519H213.133V97.19H237.105V100.519Z" fill="#48786A"/>
<path d="M233.921 98.1555H216.536V94.8267H233.921V98.1555Z" fill="#48786A"/>
<path d="M230.539 96.1389H219.919V92.8101H230.539V96.1389Z" fill="#48786A"/>
<path d="M227.068 93.7444H223.17V90.4156H227.068V93.7444Z" fill="#48786A"/>
<path d="M227.068 90.4469H225.15V106.863H227.068V90.4469Z" fill="#2C5146"/>
<path d="M230.538 92.8098H226.37V104.849H230.538V92.8098Z" fill="#2C5146"/>
<path d="M233.921 94.7681H229.947V102.882H233.921V94.7681Z" fill="#2C5146"/>
<path d="M237.106 97.1898H233.524V100.519H237.106V97.1898Z" fill="#2C5146"/>
<path d="M227.068 108.98H225.15V116.193H227.068V108.98Z" fill="#4FAB59"/>
<path d="M222.643 85.6942V88.2976H224.27V85.6942H222.643Z" fill="black"/>
<path d="M226.03 85.6942V88.2976H227.657V85.6942H226.03Z" fill="black"/>
<path d="M227.429 98.6544H222.814V100.28H227.429V98.6544Z" fill="black"/>
<path d="M132.004 116.193H82.6309V119.463H132.004V116.193Z" fill="#E2B436"/>
<path d="M249.952 116.193H200.579V119.463H249.952V116.193Z" fill="#E2B436"/>
<path d="M199.827 180.975H134.308V183.949H199.827V180.975Z" fill="#E2B436"/>
<path d="M155.155 163.13L140.264 178.001H193.871L178.98 163.13L176.002 154.208L173.024 151.234H161.111L158.133 154.208L155.155 163.13Z" fill="#A6644B"/>
<path d="M170.046 40.6644H164.09V154.208H170.046V40.6644Z" fill="#A6644B"/>
<path d="M173.024 49.5864H161.111V58.5087H173.024V49.5864Z" fill="#E2B436"/>
<path d="M173.024 25.7939L170.046 22.8198H164.09L161.111 25.7939V31.7421L164.09 34.7162H170.046L173.024 31.7421V25.7939Z" fill="#E2B436"/>
<path d="M190.892 52.5605H176.002V55.5346L187.914 58.5087L193.871 61.4829L199.827 67.4311H223.652L226.63 64.457L228.591 62.3032L226.63 60.7335L223.652 61.4829H202.805L196.849 55.5346L190.892 52.5605Z" fill="#A6644B"/>
<path d="M143.247 52.5605H158.542V55.5346L146.306 58.5087L140.188 61.4829L134.071 67.4311H108.857L106.029 64.457L104.527 62.3032L106.541 60.7335L108.857 61.4829H131.233L137.13 55.5346L143.247 52.5605Z" fill="#A6644B"/>
<path d="M213.73 183.949H83.6174V186.923H213.73V183.949Z" fill="black"/>
<path d="M248.79 183.949H215.873V186.923H248.79V183.949Z" fill="black"/>
<path d="M202.742 183.949H131.267V186.923H202.742V183.949Z" fill="black"/>
<path d="M199.827 178.001H134.308V180.975H199.827V178.001Z" fill="black"/>
<path d="M187.914 169.079H146.221V172.053H187.914V169.079Z" fill="black"/>
<path d="M202.805 180.975H199.827V186.923H202.805V180.975Z" fill="black"/>
<path d="M134.245 180.975H131.267V186.923H134.245V180.975Z" fill="black"/>
<path d="M143.243 175.027H140.264V178.001H143.243V175.027Z" fill="black"/>
<path d="M146.221 172.053H143.243V175.027H146.221V172.053Z" fill="black"/>
<path d="M190.892 175.027H193.871V178.001H190.892V175.027Z" fill="black"/>
<path d="M187.914 172.053H190.892V175.027H187.914V172.053Z" fill="black"/>
<path d="M152.177 166.105H149.199V169.079H152.177V166.105Z" fill="black"/>
<path d="M155.155 163.13H152.177V166.104H155.155V163.13Z" fill="black"/>
<path d="M161.111 151.234H158.133V154.208H161.111V151.234Z" fill="black"/>
<path d="M173.024 58.5088H162.601V61.4828H173.024V58.5088Z" fill="black"/>
<path d="M173.024 46.6125H161.111V49.5866H173.024V46.6125Z" fill="black"/>
<path d="M173.024 49.5866V40.6644H170.046V49.5866H173.024Z" fill="black"/>
<path d="M176.002 58.5087V49.5864H173.024V58.5087H176.002Z" fill="black"/>
<path d="M161.111 58.5087V49.5864H158.133V58.5087H161.111Z" fill="black"/>
<path d="M164.09 49.5867V40.6644H161.111V49.5867H164.09Z" fill="black"/>
<path d="M164.09 40.6644H170.046V37.6903H164.09V40.6644Z" fill="black"/>
<path d="M167.068 34.7162V40.6644H170.046V34.7162H167.068Z" fill="black"/>
<path d="M170.046 31.742V34.7161H173.024V31.742H170.046Z" fill="black"/>
<path d="M170.046 22.8198V25.7939H173.024V22.8198H170.046Z" fill="black"/>
<path d="M165.579 16.8716V19.8457H168.557V16.8716H165.579Z" fill="black"/>
<path d="M173.024 25.7939V31.7421H176.002V25.7939H173.024Z" fill="black"/>
<path d="M170.046 19.8457H164.09V22.8198H170.046V19.8457Z" fill="black"/>
<path d="M161.111 31.742V34.7161H164.09V31.742H161.111Z" fill="black"/>
<path d="M176.002 52.5605H190.892V49.5864H176.002V52.5605Z" fill="black"/>
<path d="M176.002 58.5088H187.914V55.5347H176.002V58.5088Z" fill="black"/>
<path d="M193.871 61.4829V64.457H196.849V61.4829H193.871Z" fill="black"/>
<path d="M196.849 64.457V67.4311H199.827V64.457H196.849Z" fill="black"/>
<path d="M199.827 67.4311V70.4052H220.674V67.4311H199.827Z" fill="black"/>
<path d="M187.914 58.5088V61.4829H193.871V58.5088H187.914Z" fill="black"/>
<path d="M196.849 55.5347V58.5088H199.827V55.5347H196.849Z" fill="black"/>
<path d="M199.827 58.5088V61.4829H202.805V58.5088H199.827Z" fill="black"/>
<path d="M226.63 61.4829V64.457H229.608V61.4829H226.63Z" fill="black"/>
<path d="M220.674 67.4311V70.4052H229.608V67.4311H220.674Z" fill="black"/>
<path d="M197.304 112.922V116.193H252.978V112.922H197.304Z" fill="black"/>
<path d="M223.503 70.4052H220.228V76.9463H223.503V70.4052Z" fill="black"/>
<path d="M226.778 70.4052H230.053V76.9463H226.778V70.4052Z" fill="black"/>
<path d="M220.229 76.9462H216.954V83.4873H220.229V76.9462Z" fill="black"/>
<path d="M230.054 76.9462H233.329V83.4873H230.054V76.9462Z" fill="black"/>
<path d="M216.953 83.4872H213.678V90.0283H216.953V83.4872Z" fill="black"/>
<path d="M233.328 83.4872H236.603V90.0283H233.328V83.4872Z" fill="black"/>
<path d="M213.679 90.0282H210.404V96.5693H213.679V90.0282Z" fill="black"/>
<path d="M236.603 90.0282H239.878V96.5693H236.603V90.0282Z" fill="black"/>
<path d="M210.404 96.5693H207.129V103.11H210.404V96.5693Z" fill="black"/>
<path d="M207.129 103.111H203.854V109.652H207.129V103.111Z" fill="black"/>
<path d="M203.854 109.652H200.579V112.922H203.854V109.652Z" fill="black"/>
<path d="M243.153 103.111H246.428V109.652H243.153V103.111Z" fill="black"/>
<path d="M246.428 109.652H249.703V112.922H246.428V109.652Z" fill="black"/>
<path d="M239.878 96.5693H243.153V103.11H239.878V96.5693Z" fill="black"/>
<path d="M200.579 116.193H197.304V119.463H200.579V116.193Z" fill="black"/>
<path d="M252.978 116.193H249.703V119.463H252.978V116.193Z" fill="black"/>
<path d="M249.703 119.463H200.579V122.734H249.703V119.463Z" fill="black"/>
<path d="M79.605 112.922V116.193H135.28V112.922H79.605Z" fill="black"/>
<path d="M105.805 70.4052H102.53V76.9463H105.805V70.4052Z" fill="black"/>
<path d="M109.08 70.4052H112.355V76.9463H109.08V70.4052Z" fill="black"/>
<path d="M102.53 76.9462H99.2551V83.4873H102.53V76.9462Z" fill="black"/>
<path d="M112.355 76.9462H115.63V83.4873H112.355V76.9462Z" fill="black"/>
<path d="M99.2549 83.4872H95.9799V90.0283H99.2549V83.4872Z" fill="black"/>
<path d="M115.63 83.4872H118.905V90.0283H115.63V83.4872Z" fill="black"/>
<path d="M95.9802 90.0282H92.7052V96.5693H95.9802V90.0282Z" fill="black"/>
<path d="M118.904 90.0282H122.179V96.5693H118.904V90.0282Z" fill="black"/>
<path d="M92.705 96.5693H89.4301V103.11H92.705V96.5693Z" fill="black"/>
<path d="M89.4298 103.111H86.1548V109.652H89.4298V103.111Z" fill="black"/>
<path d="M86.1551 109.652H82.8802V112.922H86.1551V109.652Z" fill="black"/>
<path d="M125.455 103.111H128.73V109.652H125.455V103.111Z" fill="black"/>
<path d="M128.729 109.652H132.004V112.922H128.729V109.652Z" fill="black"/>
<path d="M122.18 96.5693H125.455V103.11H122.18V96.5693Z" fill="black"/>
<path d="M82.8799 116.193H79.605V119.463H82.8799V116.193Z" fill="black"/>
<path d="M135.279 116.193H132.004V119.463H135.279V116.193Z" fill="black"/>
<path d="M132.004 119.463H82.8802V122.734H132.004V119.463Z" fill="black"/>
<path d="M103.038 67.4311V70.4052H111.973V67.4311H103.038Z" fill="black"/>
<path d="M223.652 58.5088V61.4829H229.608V58.5088H223.652Z" fill="black"/>
<path d="M223.652 64.457V67.4311H226.63V64.457H223.652Z" fill="black"/>
<path d="M202.805 61.4829V64.457H223.652V61.4829H202.805Z" fill="black"/>
<path d="M190.892 52.5606V55.5346H196.849V52.5606H190.892Z" fill="black"/>
<path d="M158.133 52.5605L143.243 52.5605L143.243 49.5864L158.133 49.5864L158.133 52.5605Z" fill="black"/>
<path d="M158.133 58.5088L146.221 58.5088L146.221 55.5347L158.133 55.5347L158.133 58.5088Z" fill="black"/>
<path d="M140.264 61.4829L140.264 64.457L137.286 64.457L137.286 61.4829L140.264 61.4829Z" fill="black"/>
<path d="M137.286 64.457L137.286 67.4311L134.308 67.4311L134.308 64.457L137.286 64.457Z" fill="black"/>
<path d="M134.308 67.4311L134.308 70.4052L111.972 70.4052L111.972 67.4311L134.308 67.4311Z" fill="black"/>
<path d="M146.221 58.5088L146.221 61.4829L140.265 61.4829L140.265 58.5088L146.221 58.5088Z" fill="black"/>
<path d="M137.286 55.5347L137.286 58.5088L134.308 58.5088L134.308 55.5347L137.286 55.5347Z" fill="black"/>
<path d="M134.308 58.5088L134.308 61.4829L131.33 61.4829L131.33 58.5088L134.308 58.5088Z" fill="black"/>
<path d="M106.016 61.4829L106.016 64.457L103.038 64.457L103.038 61.4829L106.016 61.4829Z" fill="black"/>
<path d="M108.994 58.5088L108.994 61.4829L103.038 61.4829L103.038 58.5088L108.994 58.5088Z" fill="black"/>
<path d="M108.994 64.457L108.994 67.4311L106.016 67.4311L106.016 64.457L108.994 64.457Z" fill="black"/>
<path d="M131.33 61.4829L131.33 64.457L108.994 64.457L108.994 61.4829L131.33 61.4829Z" fill="black"/>
<path d="M143.243 52.5605L143.243 55.5346L137.286 55.5346L137.286 52.5605L143.243 52.5605Z" fill="black"/>
<path d="M158.133 25.7939V31.7421H161.111V25.7939H158.133Z" fill="black"/>
<path d="M161.111 22.8198V25.7939H164.09V22.8198H161.111Z" fill="black"/>
<path d="M164.09 34.7162V40.6644H167.068V34.7162H164.09Z" fill="black"/>
<path d="M158.133 154.208H155.155V163.13H158.133V154.208Z" fill="black"/>
<path d="M164.09 58.5088H161.111V151.234H164.09V58.5088Z" fill="black"/>
<path d="M173.024 151.234H176.002V154.208H173.024V151.234Z" fill="black"/>
<path d="M176.002 154.208H178.98V163.13H176.002V154.208Z" fill="black"/>
<path d="M170.046 58.5443H173.024V152.461H170.046V58.5443Z" fill="black"/>
<path d="M181.958 166.105H184.936V169.079H181.958V166.105Z" fill="black"/>
<path d="M178.98 163.13H181.958V166.104H178.98V163.13Z" fill="black"/>
<g style="mix-blend-mode:multiply">
<path d="M170.046 65.1198H167.068V152.461H170.046V65.1198Z" fill="#D9D9D9"/>
</g>
<path d="M173.024 151.234H164.09V154.208H173.024V151.234Z" fill="#8D5540"/>
<path d="M184.936 172.053H158.133V175.027H184.936V172.053Z" fill="#8D5540"/>
<path d="M176.002 166.104V154.208H173.024V166.104H176.002Z" fill="#8D5540"/>
<path d="M173.024 154.208H170.046V163.13H173.024V154.208Z" fill="#8D5540"/>
<path d="M178.98 163.13H176.002V169.079H178.98V163.13Z" fill="#8D5540"/>
<path d="M181.958 166.105H178.98V169.079H181.958V166.105Z" fill="#8D5540"/>
<path d="M187.914 172.053H184.936V178.001H187.914V172.053Z" fill="#8D5540"/>
<g style="mix-blend-mode:multiply">
<path d="M199.827 183.949V180.975H190.892V183.949H199.827Z" fill="#DFDFDF"/>
</g>
<g style="mix-blend-mode:multiply">
<path d="M249.703 119.463V116.193H239.878V119.463H249.703Z" fill="#DFDFDF"/>
</g>
<g style="mix-blend-mode:multiply">
<path d="M132.004 119.463V116.193H122.18V119.463H132.004Z" fill="#DFDFDF"/>
</g>
<g style="mix-blend-mode:multiply">
<path d="M170.046 58.5087H173.024V49.5865H170.046V58.5087Z" fill="#DFDFDF"/>
</g>
<path d="M190.892 175.027H187.914V178.001H190.892V175.027Z" fill="#8D5540"/>
<path d="M170.046 49.5864H167.068V52.5605H170.046V49.5864Z" fill="#C69D2F"/>
<path d="M170.046 40.6644H167.068V46.6125H170.046V40.6644Z" fill="#8D5540"/>
<path d="M170.046 22.8198H167.068V31.7421H170.046V22.8198Z" fill="#C69D2F"/>
<path d="M173.024 25.7939H170.046V31.7421H173.024V25.7939Z" fill="#C69D2F"/>
<path d="M110.503 97.1032V100.169H120.079V97.1032H110.503Z" fill="#F77B1D"/>
<path d="M110.503 109.733V112.799H120.079V109.733H110.503Z" fill="#F77B1D"/>
<path d="M110.503 100.169H107.433V109.733H110.503V100.169Z" fill="#F77B1D"/>
<path d="M113.573 100.169H110.503V109.733H113.573V100.169Z" fill="#FBE85D"/>
<path d="M123.15 109.733H126.22V100.169H123.15V109.733Z" fill="#FBE85D"/>
<path d="M123.15 112.799V109.733H113.573V112.799H123.15Z" fill="#FBE85D"/>
<path d="M113.574 97.1032V100.169H123.15V97.1032H113.574Z" fill="#FBE85D"/>
<path d="M123.15 100.169H113.574V109.733H123.15V100.169Z" fill="#FCAF37"/>
<path d="M120.08 109.733H123.15V100.169H120.08V109.733Z" fill="#F77B1D"/>
<path d="M113.574 100.169V103.235H123.15V100.169H113.574Z" fill="#F77B1D"/>
<path d="M116.193 101.702V104.51H117.82V101.702H116.193Z" fill="black"/>
<path d="M118.903 101.702V104.51H120.53V101.702H118.903Z" fill="black"/>
<path d="M119.818 106.062H117.007V107.687H119.818V106.062Z" fill="black"/>
<path d="M91.7162 97.1032V100.169H101.293V97.1032H91.7162Z" fill="#F77B1D"/>
<path d="M91.7162 109.733V112.799H101.293V109.733H91.7162Z" fill="#F77B1D"/>
<path d="M91.7162 100.169H88.6461V109.733H91.7162V100.169Z" fill="#F77B1D"/>
<path d="M94.7864 100.169H91.7162V109.733H94.7864V100.169Z" fill="#FBE85D"/>
<path d="M104.363 109.733H107.433V100.169H104.363V109.733Z" fill="#FBE85D"/>
<path d="M104.363 112.799V109.733H94.7861V112.799H104.363Z" fill="#FBE85D"/>
<path d="M94.7864 97.1032V100.169H104.363V97.1032H94.7864Z" fill="#FBE85D"/>
<path d="M104.363 100.169H94.7864V109.733H104.363V100.169Z" fill="#FCAF37"/>
<path d="M101.292 109.733H104.363V100.169H101.292V109.733Z" fill="#F77B1D"/>
<path d="M94.7864 100.169V103.235H104.363V100.169H94.7864Z" fill="#F77B1D"/>
<path d="M101.337 105.148L98.8353 107.646L99.7893 108.599L102.291 106.1L101.337 105.148Z" fill="black"/>
<path d="M100.052 106.94L98.2568 105.147L97.3028 106.1L99.0979 107.893L100.052 106.94Z" fill="black"/>
<path d="M98.5123 101.702H96.7751V103.436H98.5123V101.702Z" fill="black"/>
<path d="M102.78 101.702H101.043V103.436H102.78V101.702Z" fill="black"/>
<path d="M101.608 81.4079V84.4739H111.184V81.4079H101.608Z" fill="#F77B1D"/>
<path d="M101.608 94.0372V97.1032H111.184V94.0372H101.608Z" fill="#F77B1D"/>
<path d="M101.608 84.4739H98.5378V94.0374H101.608V84.4739Z" fill="#F77B1D"/>
<path d="M104.678 84.4739H101.608V94.0374H104.678V84.4739Z" fill="#FBE85D"/>
<path d="M114.255 94.0372H117.325V84.4737H114.255V94.0372Z" fill="#FBE85D"/>
<path d="M114.255 97.1032V94.0372H104.678V97.1032H114.255Z" fill="#FBE85D"/>
<path d="M104.678 81.4079V84.4739H114.255V81.4079H104.678Z" fill="#FBE85D"/>
<path d="M114.255 84.4739H104.679V94.0374H114.255V84.4739Z" fill="#FCAF37"/>
<path d="M111.185 94.0372H114.255V84.4737H111.185V94.0372Z" fill="#F77B1D"/>
<path d="M104.679 84.4735V87.5394H114.255V84.4735H104.679Z" fill="#F77B1D"/>
<path d="M105.654 86.0066V88.814H107.282V86.0066H105.654Z" fill="black"/>
<path d="M108.364 86.0066V88.814H109.991V86.0066H108.364Z" fill="black"/>
<path d="M111.185 90.0939V92.2666H113.416V90.0939H111.185Z" fill="black"/>
</svg>
