<svg width="317" height="195" viewBox="0 0 317 195" fill="none" xmlns="http://www.w3.org/2000/svg">
<path d="M16.9832 7.5321C16.3412 7.5321 15.9131 8.06643 15.9131 8.60071V84.4739C15.9131 85.0083 16.3412 85.4358 16.9832 85.4358H52.51C74.0188 85.4358 91.4611 67.9101 91.4611 46.5373C91.4611 25.0577 74.0188 7.5321 52.6171 7.5321H16.9832ZM50.3699 50.1704V42.5833H52.51C54.6501 42.5833 56.3622 44.2932 56.3622 46.4304C56.3622 48.5677 54.6501 50.1704 52.51 50.1704H50.3699Z" fill="#8CD9DA"/>
<path d="M116.66 45.3618C127.36 45.3618 135.921 36.8127 135.921 26.2332C135.921 15.6537 127.36 7.5321 116.66 7.5321C106.066 7.5321 97.3984 15.6537 97.3984 26.2332C97.3984 36.8127 106.066 45.3618 116.66 45.3618ZM99.0033 47.6059C98.4682 47.6059 97.9335 48.1403 97.9335 48.6746V84.3669C97.9335 85.0083 98.4682 85.4358 99.0033 85.4358H134.316C134.851 85.4358 135.386 85.0083 135.386 84.3669V48.6746C135.386 48.1403 134.851 47.6059 134.316 47.6059H99.0033Z" fill="#8CD9DA"/>
<path d="M219.7 43.7588C219.7 23.5616 201.081 7.5321 180.857 7.5321C159.348 7.5321 141.798 25.0577 141.798 46.5373C141.798 68.0171 159.348 85.4358 180.857 85.4358C201.188 85.4358 219.7 69.5129 219.7 49.3156C219.7 48.7816 219.272 48.2471 218.63 48.2471H185.351C185.03 48.2471 184.709 48.354 184.495 48.6746C183.638 49.957 182.354 50.8118 180.857 50.8118C178.502 50.8118 176.576 48.8881 176.576 46.5373C176.576 44.1863 178.502 42.2628 180.857 42.2628C182.354 42.2628 183.638 43.0108 184.495 44.2932C184.709 44.6138 185.03 44.8275 185.351 44.8275H218.63C219.272 44.8275 219.7 44.2932 219.7 43.7588Z" fill="#8CD9DA"/>
<path d="M227.76 7.5321C227.119 7.5321 226.69 8.06643 226.69 8.60071V84.4739C226.69 85.0083 227.119 85.4358 227.76 85.4358H302.024C302.666 85.4358 303.094 85.1148 303.094 84.3669V63.1012C303.094 62.4598 302.666 62.1394 302.024 62.1394H262.645V58.2924H288.006C288.648 58.2924 288.969 57.9719 288.969 57.2235V35.851C288.969 35.1029 288.648 34.7823 288.006 34.7823H262.645V30.9352H302.024C302.666 30.9352 303.094 30.6146 303.094 29.8666V8.60071C303.094 7.85271 302.666 7.5321 302.024 7.5321H227.76Z" fill="#8CD9DA"/>
<path d="M43.5863 122.169C43.3401 122.169 43.0939 122.251 42.9297 122.497C42.2732 123.563 41.2883 124.136 40.1394 124.136C38.2518 124.136 36.7746 122.661 36.7746 120.776C36.7746 118.973 38.2518 117.498 40.1394 117.498C41.2883 117.498 42.1911 117.99 42.9297 119.055C43.0939 119.301 43.3401 119.465 43.5863 119.465H69.3558C70.0945 119.465 70.2586 119.219 70.1763 118.481C68.9453 102.746 55.7326 90.9439 40.1394 90.9439C23.4796 90.9439 9.85626 104.221 9.85626 120.776C9.85626 137.413 23.4796 150.69 40.1394 150.69C49.1671 150.69 57.4559 146.921 62.9544 140.446H69.5199C69.9304 140.446 70.2586 140.036 70.2586 139.626V122.989C70.2586 122.579 70.0122 122.169 69.6017 122.169H43.5863Z" fill="#8CD9DA"/>
<path d="M120.534 91.4356C120.451 91.1078 120.123 90.9439 119.795 90.9439H93.6971C93.2871 90.9439 93.0407 91.1078 92.8766 91.4356L72.7698 149.625C72.5239 150.281 72.8521 150.69 73.5085 150.69H100.427C101.001 150.69 101.248 150.363 101.412 149.871L102.971 145.199H110.357L111.917 149.871C112.081 150.363 112.327 150.69 112.901 150.69H139.738C140.394 150.69 140.722 150.281 140.476 149.625L120.534 91.4356ZM109.208 141.757H104.12L106.664 133.889L109.208 141.757Z" fill="#8CD9DA"/>
<path d="M206.211 150.69C206.621 150.69 206.703 150.69 206.867 150.199L213.433 129.054C213.597 128.48 214.007 128.234 214.418 128.234C214.91 128.234 215.238 128.726 215.238 129.136V149.953C215.238 150.362 215.566 150.69 215.977 150.69H242.403C242.813 150.69 243.141 150.362 243.141 149.953V91.7633C243.141 91.2717 242.813 90.9439 242.403 90.9439H199.481C199.071 90.9439 198.907 91.1895 198.742 91.7633L195.132 104.876C194.967 105.368 194.639 105.532 194.229 105.532C193.818 105.532 193.49 105.368 193.326 104.876L189.551 91.7633C189.387 91.1895 189.223 90.9439 188.812 90.9439H145.891C145.48 90.9439 145.152 91.2717 145.152 91.7633V149.953C145.152 150.362 145.48 150.69 145.891 150.69H172.317C172.727 150.69 173.055 150.362 173.055 149.953V129.136C173.055 128.726 173.383 128.234 173.876 128.234C174.286 128.234 174.697 128.48 174.861 129.054L181.426 150.199C181.59 150.69 181.672 150.69 182.083 150.69H206.211Z" fill="#8CD9DA"/>
<path d="M249.778 90.9439C249.285 90.9439 248.957 91.3534 248.957 91.7633V149.953C248.957 150.362 249.285 150.69 249.778 150.69H306.733C307.225 150.69 307.553 150.445 307.553 149.871V133.561C307.553 133.07 307.225 132.824 306.733 132.824H276.532V129.873H295.982C296.474 129.873 296.72 129.627 296.72 129.054V112.662C296.72 112.089 296.474 111.843 295.982 111.843H276.532V108.892H306.733C307.225 108.892 307.553 108.647 307.553 108.073V91.7633C307.553 91.1895 307.225 90.9439 306.733 90.9439H249.778Z" fill="#8CD9DA"/>
<path d="M190.966 185.703H131.923V188.134H190.966V185.703Z" fill="black"/>
<path d="M91.1036 185.703H70.7762V188.134H91.1036V185.703Z" fill="black"/>
<path d="M270.215 185.703H245.868V188.134H270.215V185.703Z" fill="black"/>
<path d="M243.433 185.703H236.129V188.134H243.433V185.703Z" fill="black"/>
<path d="M59.5444 54.424L72.3325 44.2781L81.862 42.2725L97.6623 46.4016L103.185 72.5726L90.3971 82.7184L80.8676 84.7238L65.0668 80.5948L59.5444 54.424Z" fill="#F5F5F5"/>
<path d="M57.162 54.9254L59.5444 54.424L65.0672 80.5948L62.6848 81.0961L57.162 54.9254Z" fill="black"/>
<path d="M79.9227 62.5595L82.3051 62.0581L87.0748 84.6602L84.6924 85.1616L79.9227 62.5595Z" fill="black"/>
<path d="M97.6625 46.4016L100.045 45.9002L105.568 72.071L103.185 72.5724L97.6625 46.4016Z" fill="black"/>
<path d="M59.0423 52.0446L63.8071 51.0419L64.3092 53.421L59.5444 54.4238L59.0423 52.0446Z" fill="black"/>
<path d="M65.5693 82.9738L70.3341 81.971L69.832 79.5918L65.0672 80.5947L65.5693 82.9738Z" fill="black"/>
<path d="M60.7992 60.3718L65.564 59.369L65.0619 56.9898L60.2971 57.9927L60.7992 60.3718Z" fill="black"/>
<path d="M70.8361 84.3505L75.6008 83.3477L75.0988 80.9685L70.334 81.9713L70.8361 84.3505Z" fill="black"/>
<path d="M63.305 48.6628L68.0698 47.66L68.5719 50.0392L63.8071 51.042L63.305 48.6628Z" fill="black"/>
<path d="M76.1029 85.7267L80.8676 84.7238L80.3655 82.3447L75.6008 83.3475L76.1029 85.7267Z" fill="black"/>
<path d="M66.0665 61.7485L70.8312 60.7457L70.3291 58.3665L65.5644 59.3693L66.0665 61.7485Z" fill="black"/>
<path d="M90.3971 82.7185L95.1618 81.7157L94.6598 79.3365L89.895 80.3394L90.3971 82.7185Z" fill="black"/>
<path d="M67.5677 45.2809L72.3325 44.2781L72.8346 46.6572L68.0698 47.66L67.5677 45.2809Z" fill="black"/>
<path d="M94.6598 79.3364L99.4245 78.3336L98.9225 75.9544L94.1577 76.9573L94.6598 79.3364Z" fill="black"/>
<path d="M71.3333 63.1247L76.098 62.1218L75.5959 59.7427L70.8312 60.7455L71.3333 63.1247Z" fill="black"/>
<path d="M98.9225 75.9543L103.687 74.9515L103.185 72.5723L98.4204 73.5751L98.9225 75.9543Z" fill="black"/>
<path d="M81.8619 42.2725L86.6267 41.2697L87.1288 43.6489L82.364 44.6517L81.8619 42.2725Z" fill="black"/>
<path d="M81.3696 87.103L90.8991 85.0973L90.3971 82.7182L80.8675 84.7238L81.3696 87.103Z" fill="black"/>
<path d="M85.6275 60.116L90.3922 59.1132L89.8901 56.734L85.1254 57.7369L85.6275 60.116Z" fill="black"/>
<path d="M87.1287 43.6489L91.8935 42.6461L92.3956 45.0253L87.6308 46.0281L87.1287 43.6489Z" fill="black"/>
<path d="M89.8902 56.7344L94.6549 55.7316L94.1528 53.3524L89.3881 54.3552L89.8902 56.7344Z" fill="black"/>
<path d="M92.3955 45.0253L97.1603 44.0225L97.6623 46.4017L92.8976 47.4044L92.3955 45.0253Z" fill="black"/>
<path d="M94.1529 53.3523L98.9176 52.3495L98.4155 49.9703L93.6508 50.9731L94.1529 53.3523Z" fill="black"/>
<path d="M71.8304 41.8989L81.3599 39.8934L81.862 42.2725L72.3325 44.2781L71.8304 41.8989Z" fill="black"/>
<path d="M76.6 64.501L86.1295 62.4953L85.6274 60.1161L76.0979 62.1218L76.6 64.501Z" fill="black"/>
<path d="M74.3406 53.7949L83.8701 51.7893L83.368 49.4101L73.8385 51.4158L74.3406 53.7949Z" fill="#ED5C4F"/>
<path d="M75.4622 51.074L81.7446 49.7517L81.2425 47.3726L74.9601 48.6948L75.4622 51.074Z" fill="#ED5C4F"/>
<path d="M76.4663 55.8323L82.7487 54.51L82.2466 52.1309L75.9642 53.4531L76.4663 55.8323Z" fill="#ED5C4F"/>
<path d="M86.559 62.8151L88.5292 62.4005L89.5168 67.0803L87.5466 67.4949L86.559 62.8151Z" fill="black"/>
<path d="M84.7826 64.1485L86.7528 63.7339L87.7404 68.4137L85.7702 68.8283L84.7826 64.1485Z" fill="black"/>
<path d="M76.6394 67.2758L78.4388 66.8972L79.3407 71.1711L77.5413 71.5498L76.6394 67.2758Z" fill="black"/>
<path d="M74.8552 66.8936L76.6546 66.5149L77.5565 70.7889L75.7572 71.1676L74.8552 66.8936Z" fill="black"/>
<path d="M70.8258 69.6261L72.6251 69.2474L73.5271 73.5213L71.7277 73.9L70.8258 69.6261Z" fill="black"/>
<path d="M69.0416 69.2438L70.841 68.8652L71.7429 73.1391L69.9436 73.5178L69.0416 69.2438Z" fill="black"/>
<path d="M66.6653 73.491L68.4647 73.1124L69.3666 77.3863L67.5673 77.765L66.6653 73.491Z" fill="black"/>
<path d="M64.8807 73.1093L66.6801 72.7306L67.582 77.0046L65.7826 77.3833L64.8807 73.1093Z" fill="black"/>
<path d="M64.6251 63.8252L66.4244 63.4465L67.3263 67.7205L65.527 68.0991L64.6251 63.8252Z" fill="black"/>
<path d="M62.8409 63.443L64.6402 63.0643L65.5422 67.3382L63.7428 67.7169L62.8409 63.443Z" fill="black"/>
<path d="M78.4421 76.2342L80.2414 75.8555L81.1433 80.1295L79.344 80.5081L78.4421 76.2342Z" fill="black"/>
<path d="M76.6579 75.852L78.4573 75.4733L79.3592 79.7472L77.5598 80.1259L76.6579 75.852Z" fill="black"/>
<path d="M92.6818 64.6562L94.652 64.2416L95.6396 68.9214L93.6694 69.336L92.6818 64.6562Z" fill="black"/>
<path d="M90.9054 65.9896L92.8756 65.575L93.8632 70.2548L91.893 70.6694L90.9054 65.9896Z" fill="black"/>
<path d="M98.6352 66.7628L100.605 66.3481L101.593 71.0279L99.6228 71.4426L98.6352 66.7628Z" fill="black"/>
<path d="M96.8588 68.0962L98.829 67.6815L99.8166 72.3613L97.8464 72.776L96.8588 68.0962Z" fill="black"/>
<path d="M243.602 47.7374L224.278 44.7705L223.992 46.6262L243.317 49.5931L243.602 47.7374Z" fill="#010000"/>
<path d="M229.266 48.9829L225.921 48.4695L225.636 50.3251L228.98 50.8386L229.266 48.9829Z" fill="#010000"/>
<path d="M228.716 52.5512L225.372 52.0378L225.086 53.8934L228.431 54.4069L228.716 52.5512Z" fill="#010000"/>
<path d="M230.025 56.4049L230.838 51.124L228.98 50.8388L228.167 56.1196L230.025 56.4049Z" fill="#010000"/>
<path d="M226.681 55.8914L227.494 50.6105L225.635 50.3253L224.822 55.6061L226.681 55.8914Z" fill="#010000"/>
<path d="M237.237 66.5294L238.038 61.3292L236.18 61.0439L235.379 66.2441L237.237 66.5294Z" fill="#010000"/>
<path d="M226.811 64.9286L227.611 59.7283L225.753 59.4431L224.953 64.6433L226.811 64.9286Z" fill="#010000"/>
<path d="M232.763 60.5198L236.18 61.0442L236.465 59.1886L233.049 58.6641L232.763 60.5198Z" fill="#010000"/>
<path d="M227.612 59.7285L231.101 60.2642L231.387 58.4086L227.897 57.8729L227.612 59.7285Z" fill="#010000"/>
<path d="M230.84 61.9576L232.503 62.2128L232.763 60.5197L231.101 60.2645L230.84 61.9576Z" fill="#010000"/>
<path d="M233.544 67.6957L235.206 67.9509L235.467 66.2579L233.804 66.0027L233.544 67.6957Z" fill="#010000"/>
<path d="M226.55 66.622L228.213 66.8772L228.473 65.1842L226.811 64.9289L226.55 66.622Z" fill="#010000"/>
<path d="M227.952 68.5701L229.614 68.8253L229.875 67.1322L228.212 66.877L227.952 68.5701Z" fill="#010000"/>
<path d="M231.621 69.1337L233.283 69.3889L233.544 67.6958L231.882 67.4406L231.621 69.1337Z" fill="#010000"/>
<path d="M229.354 70.5183L231.36 70.8263L231.621 69.1333L229.614 68.8252L229.354 70.5183Z" fill="#010000"/>
<path d="M233.415 80.2404L236.759 80.7538L237.045 78.8982L233.7 78.3847L233.415 80.2404Z" fill="#010000"/>
<path d="M233.964 76.672L237.308 77.1855L237.594 75.3299L234.25 74.8164L233.964 76.672Z" fill="#010000"/>
<path d="M232.655 72.8188L231.842 78.0997L233.7 78.385L234.513 73.1041L232.655 72.8188Z" fill="#010000"/>
<path d="M236 73.3323L235.187 78.6132L237.045 78.8985L237.858 73.6176L236 73.3323Z" fill="#010000"/>
<path d="M240.128 82.6608L245.174 49.8782L243.316 49.5929L238.27 82.3756L240.128 82.6608Z" fill="#010000"/>
<path d="M218.945 79.4088L223.992 46.6262L222.134 46.3409L217.087 79.1236L218.945 79.4088Z" fill="#010000"/>
<path d="M238.27 82.3757L218.945 79.4088L218.66 81.2644L237.984 84.2313L238.27 82.3757Z" fill="#010000"/>
<path d="M274.619 77.9217L267.454 72.2735L259.615 64.7264L232.071 74.4574L229.386 96.0387L232.634 105.208L235.741 106.689L239.66 110.462L245.875 113.425L253.573 113.285L274.231 105.986L276.858 98.8212L277.728 86.6972L274.619 77.9217Z" fill="#D8FB6B"/>
<path d="M274.231 105.986L259.615 64.7264L257.319 65.5375L254.438 67.7214L252.057 72.5546L248.279 76.4687L246.795 79.5717L243.017 83.4858L241.534 86.5892L233.976 94.417L232.493 97.5204L234.117 102.105L237.224 103.586L269.64 107.608L274.231 105.986Z" fill="#B5DC3A"/>
<path d="M276.688 79.3276L267.453 72.2735L265.158 73.0846L275.714 102.883L277.001 102.428L277.246 89.4466L279.124 86.2041L276.688 79.3276Z" fill="#758F21"/>
<path d="M265.339 90.2996L264.338 90.1138L263.965 92.1207L262.957 91.934L263.142 90.9337L262.141 90.7479L262.328 89.7413L264.338 90.1138L264.524 89.1135L262.514 88.741L262.701 87.7344L261.7 87.5487L260.953 91.5625L259.945 91.3757L259.759 92.376L250.726 90.7008L250.912 89.701L249.904 89.5138L250.65 85.5L249.652 85.3152L249.464 86.3218L247.452 85.9483L247.266 86.9486L249.279 87.3221L249.091 88.3287L248.087 88.1424L247.901 89.1422L246.893 88.9555L247.266 86.9486L246.264 86.7628L245.705 89.77L246.707 89.9558L246.519 90.9624L248.532 91.3359L247.228 98.35L248.23 98.5358L248.043 99.5424L249.051 99.7291L248.865 100.729L257.898 102.404L258.084 101.404L259.092 101.591L259.28 100.585L260.281 100.77L261.585 93.7556L263.595 94.1286L263.782 93.1215L264.784 93.3073L265.339 90.2996ZM260.207 95.5763L249.158 93.5275L249.345 92.5209L260.394 94.5696L260.207 95.5763Z" fill="black"/>
<path d="M261.886 86.5484L260.877 86.3617L260.691 87.3619L261.7 87.5487L261.886 86.5484Z" fill="black"/>
<path d="M262.63 82.5414L261.622 82.3547L261.25 84.3548L262.259 84.5415L262.63 82.5414Z" fill="black"/>
<path d="M261.25 84.3548L260.249 84.169L259.876 86.1759L260.877 86.3617L261.25 84.3548Z" fill="black"/>
<path d="M261.81 81.3476L259.8 80.9751L259.613 81.9817L261.622 82.3547L261.81 81.3476Z" fill="black"/>
<path d="M259.503 88.1828L258.495 87.9961L258.309 88.9963L259.317 89.1831L259.503 88.1828Z" fill="black"/>
<path d="M259.613 81.9817L258.611 81.7959L258.239 83.7965L259.241 83.9823L259.613 81.9817Z" fill="black"/>
<path d="M258.239 83.7965L257.238 83.6107L257.05 84.6174L258.052 84.8031L258.239 83.7965Z" fill="black"/>
<path d="M254.924 90.4445L255.932 90.6317L256.118 89.6314L257.12 89.8172L257.307 88.8106L254.296 88.2523L254.109 89.2589L255.11 89.4447L254.924 90.4445Z" fill="black"/>
<path d="M257.05 84.6174L256.042 84.4306L255.857 85.4309L256.865 85.6176L257.05 84.6174Z" fill="black"/>
<path d="M256.229 83.424L255.228 83.2383L255.041 84.2449L256.042 84.4306L256.229 83.424Z" fill="black"/>
<path d="M255.6 81.2377L254.592 81.0509L254.22 83.0515L255.228 83.2383L255.6 81.2377Z" fill="black"/>
<path d="M253.474 87.0648L252.472 86.8796L252.287 87.8794L253.288 88.0651L253.474 87.0648Z" fill="black"/>
<path d="M254.779 80.0443L252.776 79.6728L252.589 80.6794L254.592 81.0509L254.779 80.0443Z" fill="black"/>
<path d="M253.219 82.8658L252.217 82.68L251.844 84.6869L252.846 84.8727L253.219 82.8658Z" fill="black"/>
<path d="M251.844 84.6869L250.836 84.4997L250.65 85.5L251.658 85.6872L251.844 84.6869Z" fill="black"/>
<path d="M252.589 80.6794L251.581 80.4927L251.209 82.4928L252.217 82.68L252.589 80.6794Z" fill="black"/>
<path d="M261.098 61.6236L258.802 62.4345L275.043 108.279L277.338 107.468L261.098 61.6236Z" fill="black"/>
<path d="M276.864 98.8394L274.569 99.6503L276.526 105.176L278.821 104.365L276.864 98.8394Z" fill="black"/>
<path d="M277.057 92.0927L274.762 92.9036L276.864 98.8394L279.16 98.0285L277.057 92.0927Z" fill="black"/>
<path d="M277.728 86.6974L275.433 87.5083L277.535 93.4441L279.831 92.6332L277.728 86.6974Z" fill="black"/>
<path d="M273.242 74.0326L270.946 74.8435L272.427 79.022L274.722 78.211L273.242 74.0326Z" fill="black"/>
<path d="M269.749 71.4626L267.454 72.2735L268.934 76.4519L271.229 75.641L269.749 71.4626Z" fill="black"/>
<path d="M265.497 66.7525L263.202 67.5634L265.158 73.0844L267.453 72.2735L265.497 66.7525Z" fill="black"/>
<path d="M259.615 64.7267L258.802 62.4345L231.259 72.1655L232.071 74.4577L259.615 64.7267Z" fill="black"/>
<path d="M276.779 76.7271L274.484 77.538L278.207 88.0485L280.502 87.2376L276.779 76.7271Z" fill="black"/>
<path d="M232.071 74.4576L229.775 75.2685L231.399 79.853L233.695 79.0421L232.071 74.4576Z" fill="black"/>
<path d="M231.4 79.853L229.104 80.6639L230.728 85.2483L233.024 84.4374L231.4 79.853Z" fill="black"/>
<path d="M230.728 85.2483L228.433 86.0592L230.057 90.6436L232.352 89.8327L230.728 85.2483Z" fill="black"/>
<path d="M230.057 90.6436L227.762 91.4545L229.386 96.0389L231.681 95.228L230.057 90.6436Z" fill="black"/>
<path d="M229.386 96.0389L227.09 96.8498L230.338 106.019L232.634 105.208L229.386 96.0389Z" fill="black"/>
<path d="M234.929 104.397L232.634 105.208L233.446 107.5L235.741 106.689L234.929 104.397Z" fill="black"/>
<path d="M232.499 97.5357L230.203 98.3466L231.015 100.639L233.311 99.8279L232.499 97.5357Z" fill="black"/>
<path d="M234.157 102.218L231.862 103.029L231.05 100.737L233.345 99.9259L234.157 102.218Z" fill="black"/>
<path d="M233.976 94.4172L231.681 95.2281L232.498 97.5359L234.794 96.725L233.976 94.4172Z" fill="black"/>
<path d="M237.27 103.715L234.975 104.526L234.157 102.218L236.453 101.407L237.27 103.715Z" fill="black"/>
<path d="M237.755 90.5033L233.164 92.1251L233.976 94.4173L238.567 92.7955L237.755 90.5033Z" fill="black"/>
<path d="M242.673 104.385L238.082 106.007L237.27 103.715L241.861 102.093L242.673 104.385Z" fill="black"/>
<path d="M241.537 86.5989L236.946 88.2207L237.758 90.5129L242.349 88.8911L241.537 86.5989Z" fill="black"/>
<path d="M248.072 105.046L243.481 106.668L242.669 104.376L247.26 102.754L248.072 105.046Z" fill="black"/>
<path d="M253.475 105.717L248.884 107.339L248.072 105.046L252.663 103.424L253.475 105.717Z" fill="black"/>
<path d="M258.877 106.387L254.287 108.009L253.475 105.716L258.065 104.095L258.877 106.387Z" fill="black"/>
<path d="M264.238 106.938L259.647 108.56L258.835 106.267L263.425 104.646L264.238 106.938Z" fill="black"/>
<path d="M269.736 107.574L265.145 109.196L264.333 106.904L268.924 105.282L269.736 107.574Z" fill="black"/>
<path d="M242.996 83.4281L240.701 84.239L241.513 86.5312L243.808 85.7203L242.996 83.4281Z" fill="black"/>
<path d="M246.775 79.5142L242.185 81.136L242.997 83.4283L247.587 81.8064L246.775 79.5142Z" fill="black"/>
<path d="M248.259 76.4111L245.932 77.2331L246.744 79.5253L249.071 78.7033L248.259 76.4111Z" fill="black"/>
<path d="M253.653 69.412L251.326 70.234L252.138 72.5262L254.465 71.7042L253.653 69.412Z" fill="black"/>
<path d="M257.319 65.5377L252.841 67.1199L253.653 69.4121L258.131 67.8299L257.319 65.5377Z" fill="black"/>
<path d="M252.138 72.5261L247.404 74.1987L248.216 76.4909L252.95 74.8183L252.138 72.5261Z" fill="black"/>
<path d="M240.595 77.6277L235.809 75.6678L234.964 77.7254L239.75 79.6854L240.595 77.6277Z" fill="black"/>
<path d="M242.031 76.5777L240.982 76.1482L239.123 80.6771L240.171 81.1065L242.031 76.5777Z" fill="black"/>
<path d="M237.064 77.5459L236.016 77.1164L235.156 79.209L236.205 79.6385L237.064 77.5459Z" fill="black"/>
<path d="M238.036 105.878L235.741 106.689L237.365 111.273L239.66 110.462L238.036 105.878Z" fill="black"/>
<path d="M241.956 109.651L239.66 110.462L240.472 112.755L242.768 111.944L241.956 109.651Z" fill="black"/>
<path d="M245.063 111.133L242.767 111.944L243.579 114.236L245.875 113.425L245.063 111.133Z" fill="black"/>
<path d="M248.17 112.614L245.875 113.425L246.687 115.718L248.982 114.907L248.17 112.614Z" fill="black"/>
<path d="M252.761 110.992L248.171 112.614L248.983 114.906L253.573 113.285L252.761 110.992Z" fill="black"/>
<path d="M274.231 105.987L253.573 113.285L254.385 115.577L275.043 108.279L274.231 105.987Z" fill="black"/>
<path d="M272.513 79.4148L271.237 79.8659L272.349 83.0055L273.626 82.5544L272.513 79.4148Z" fill="black"/>
<path d="M273.996 83.5983L272.719 84.0494L273.831 87.189L275.108 86.7379L273.996 83.5983Z" fill="black"/>
<path d="M269.969 80.3139L268.692 80.765L269.804 83.9047L271.081 83.4536L269.969 80.3139Z" fill="black"/>
<path d="M271.45 84.4974L270.174 84.9485L271.286 88.0882L272.563 87.6371L271.45 84.4974Z" fill="black"/>
<path d="M272.32 82.925L271.052 83.373L271.45 84.4975L272.719 84.0495L272.32 82.925Z" fill="black"/>
<path d="M270.862 78.8066L269.594 79.2546L269.992 80.3791L271.26 79.9311L270.862 78.8066Z" fill="black"/>
<path d="M273.831 87.1892L272.563 87.6372L272.961 88.7617L274.229 88.3137L273.831 87.1892Z" fill="black"/>
<path d="M254.011 110.711L253.973 109.448L245.46 109.702L245.498 110.965L254.011 110.711Z" fill="black"/>
<path d="M247.241 110.597L248.503 110.518L248.27 106.82L247.007 106.9L247.241 110.597Z" fill="black"/>
<path d="M248.385 108.922L250.202 108.808L250.139 107.812L248.322 107.926L248.385 108.922Z" fill="black"/>
<path d="M250.188 109.304L252.005 109.189L251.942 108.193L250.126 108.308L250.188 109.304Z" fill="black"/>
<path d="M251.992 109.685L253.988 109.559L253.925 108.563L251.929 108.689L251.992 109.685Z" fill="black"/>
<path d="M135.423 86.7273H132.501V89.645H135.423V86.7273Z" fill="#231E2B"/>
<path d="M138.344 83.8101H135.423V86.7278H138.344V83.8101Z" fill="#231E2B"/>
<path d="M135.423 83.8101H132.501V86.7278H135.423V83.8101Z" fill="#E2B436"/>
<path d="M132.501 83.8101H129.579V86.7278H132.501V83.8101Z" fill="#231E2B"/>
<path d="M141.266 80.8919H138.344V83.8096H141.266V80.8919Z" fill="#231E2B"/>
<path d="M138.344 80.8919H135.423V83.8096H138.344V80.8919Z" fill="#E2B436"/>
<path d="M132.501 80.8919H129.579V83.8096H132.501V80.8919Z" fill="#E2B436"/>
<path d="M129.579 80.8919H126.658V83.8096H129.579V80.8919Z" fill="#231E2B"/>
<path d="M138.344 77.9742H135.423V80.8919H138.344V77.9742Z" fill="#231E2B"/>
<path d="M135.423 77.9742H132.501V80.8919H135.423V77.9742Z" fill="#E2B436"/>
<path d="M135.423 80.89H132.501V83.8077H135.423V80.89Z" fill="#F5F38E"/>
<path d="M132.501 77.9742H129.579V80.8919H132.501V77.9742Z" fill="#231E2B"/>
<path d="M135.423 75.0565H132.501V77.9742H135.423V75.0565Z" fill="#231E2B"/>
<path d="M119.752 87.9333H117.514V94.6392H119.752V87.9333Z" fill="#231E2B"/>
<path d="M115.276 90.1688V92.4037H121.99V90.1688H115.276Z" fill="#231E2B"/>
<path d="M287.433 64.279H285.195V70.9849H287.433V64.279Z" fill="#231E2B"/>
<path d="M282.957 66.5145V68.7494H289.671V66.5145H282.957Z" fill="#231E2B"/>
<path d="M294.541 72.4972H292.342V74.6928H294.541V72.4972Z" fill="#231E2B"/>
<path d="M161.14 97.6853H173.313L178.183 102.548L195.226 119.568V139.019L192.791 146.314L187.922 163.334L183.052 165.765L173.313 168.197L156.27 170.628H148.966L144.097 168.197L141.662 165.765L136.793 163.334L134.358 160.902L129.488 158.471L124.619 153.608L122.184 151.177V141.451L124.619 131.725L127.054 121.999L129.488 109.842L131.923 104.98L136.793 102.548L152.335 100.117L161.14 97.6853Z" fill="#FFB84D"/>
<path d="M151.375 124.269L148.905 121.838L147.3 121.021L144.109 124.685V126.701L146.582 131.564L148.905 138.858L151.375 143.721L153.845 151.015L156.315 160.741L159.586 164.897L185.68 138.858L186.702 133.279L178.133 131.564L170.86 129.132L158.511 126.701L151.375 124.269Z" fill="#E08F2A"/>
<path d="M147.747 120.633L171.003 97.5238H173.311L174.529 102.387L186.702 126.701V133.096L178.098 131.564L171.003 129.132L158.694 126.701L152.616 125.67L149.205 122.34L147.747 120.633Z" fill="#BE7315"/>
<path d="M158.21 166.242L187.902 136.427V163.172L183.068 165.604L173.285 168.215L158.661 169.083L158.21 166.242Z" fill="#BE7315"/>
<path d="M195.767 120.121L175.672 99.9552L175.119 104.074L187.282 127.813V138.084H189.137V148.022L191.572 151.015L192.713 146.445L195.767 137.03V120.121Z" fill="#96580C"/>
<path d="M190.356 136.588H187.922V163.334H190.356V136.588Z" fill="black"/>
<path d="M192.791 131.725H190.356V136.588H192.791V131.725Z" fill="black"/>
<path d="M195.226 126.862H192.791V131.725H195.226V126.862Z" fill="black"/>
<path d="M195.226 139.019H192.791V146.314H195.226V139.019Z" fill="black"/>
<path d="M192.791 146.314H190.356V156.039H192.791V146.314Z" fill="black"/>
<path d="M197.66 121.999H195.226V139.019H197.66V121.999Z" fill="black"/>
<path d="M156.27 170.628H148.966V173.059H156.27V170.628Z" fill="black"/>
<path d="M173.313 168.197H156.27V170.628H173.313V168.197Z" fill="black"/>
<path d="M183.052 165.765H173.313V168.196H183.052V165.765Z" fill="black"/>
<path d="M187.922 163.334H183.052V165.765H187.922V163.334Z" fill="black"/>
<path d="M148.966 168.197H144.097V170.628H148.966V168.197Z" fill="black"/>
<path d="M144.097 165.765H141.662V168.196H144.097V165.765Z" fill="black"/>
<path d="M136.793 160.902H134.358V163.334H136.793V160.902Z" fill="black"/>
<path d="M144.097 156.039H139.227V158.471H144.097V156.039Z" fill="black"/>
<path d="M129.488 156.039H127.054V158.471H129.488V156.039Z" fill="black"/>
<path d="M127.054 153.608H124.619V156.039H127.054V153.608Z" fill="black"/>
<path d="M134.358 151.177H127.054V153.608H134.358V151.177Z" fill="black"/>
<path d="M124.619 151.177H122.184V153.608H124.619V151.177Z" fill="black"/>
<path d="M127.054 148.745H124.619V151.177H127.054V148.745Z" fill="black"/>
<path d="M131.923 104.98H129.488V107.411H131.923V104.98Z" fill="black"/>
<path d="M175.748 97.6853H173.313V102.548H175.748V97.6853Z" fill="black"/>
<path d="M176.965 102.549H174.531V107.411H176.965V102.549Z" fill="black"/>
<path d="M179.4 107.411H176.965V112.274H179.4V107.411Z" fill="black"/>
<path d="M181.835 112.274H179.4V117.137H181.835V112.274Z" fill="black"/>
<path d="M184.27 117.137H181.835V121.999H184.27V117.137Z" fill="black"/>
<path d="M186.704 121.999H184.27V126.862H186.704V121.999Z" fill="black"/>
<path d="M189.139 126.862H186.704V131.725H189.139V126.862Z" fill="black"/>
<path d="M158.705 124.431L158.705 126.862L151.401 126.862L151.401 124.431L158.705 124.431Z" fill="black"/>
<path d="M170.879 126.862L170.879 129.294L158.705 129.294L158.705 126.862L170.879 126.862Z" fill="black"/>
<path d="M178.183 129.294L178.183 131.725L170.879 131.725L170.879 129.294L178.183 129.294Z" fill="black"/>
<path d="M185.487 131.725L185.487 134.157L178.183 134.157L178.183 131.725L185.487 131.725Z" fill="black"/>
<path d="M187.922 131.725L187.922 136.588L185.487 136.588L185.487 131.725L187.922 131.725Z" fill="black"/>
<path d="M180.617 102.548H178.183V104.98H180.617V102.548Z" fill="black"/>
<path d="M185.487 107.411H183.052V109.842H185.487V107.411Z" fill="black"/>
<path d="M190.356 112.274H187.922V114.705H190.356V112.274Z" fill="black"/>
<path d="M195.226 117.137H192.791V119.568H195.226V117.137Z" fill="black"/>
<path d="M178.183 100.117H175.748V102.548H178.183V100.117Z" fill="black"/>
<path d="M183.052 104.98H180.617V107.411H183.052V104.98Z" fill="black"/>
<path d="M187.922 109.842H185.487V112.274H187.922V109.842Z" fill="black"/>
<path d="M192.791 114.705H190.356V117.137H192.791V114.705Z" fill="black"/>
<path d="M166.009 156.039V158.471H168.444V156.039H166.009Z" fill="black"/>
<path d="M146.531 119.568V121.999H148.966V119.568H146.531Z" fill="black"/>
<path d="M148.966 121.999V124.431H151.401V121.999H148.966Z" fill="black"/>
<path d="M139.227 114.705L139.227 117.137L136.793 117.137L136.793 114.705L139.227 114.705Z" fill="black"/>
<path d="M134.358 131.725V134.157H136.793V131.725H134.358Z" fill="black"/>
<path d="M151.401 114.705V117.137H153.836V114.705H151.401Z" fill="black"/>
<path d="M139.227 126.862V129.294H141.662V126.862H139.227Z" fill="black"/>
<path d="M170.879 151.177V153.608H173.313V151.177H170.879Z" fill="black"/>
<path d="M144.097 121.999V124.431H146.531V121.999H144.097Z" fill="black"/>
<path d="M134.358 109.842L134.358 112.274L131.923 112.274L131.923 109.842L134.358 109.842Z" fill="black"/>
<path d="M158.705 163.334V165.765H161.14V163.334H158.705Z" fill="black"/>
<path d="M153.836 163.334V165.765H156.27V163.334H153.836Z" fill="black"/>
<path d="M141.662 117.137L141.662 119.568L139.227 119.568L139.227 117.137L141.662 117.137Z" fill="black"/>
<path d="M148.966 117.137V119.568H151.401V117.137H148.966Z" fill="black"/>
<path d="M127.054 139.02V141.451H129.488V139.02H127.054Z" fill="black"/>
<path d="M122.184 143.883V146.314H124.619V143.883H122.184Z" fill="black"/>
<path d="M163.574 158.471V160.902H166.009V158.471H163.574Z" fill="black"/>
<path d="M131.923 134.157V136.589H134.358V134.157H131.923Z" fill="black"/>
<path d="M136.793 112.274L136.793 114.705L134.358 114.705L134.358 112.274L136.793 112.274Z" fill="black"/>
<path d="M141.662 124.431V126.862H144.097V124.431H141.662Z" fill="black"/>
<path d="M144.097 126.862V131.725H146.531V126.862H144.097Z" fill="black"/>
<path d="M146.531 131.726V139.02H148.966V131.726H146.531Z" fill="black"/>
<path d="M148.966 139.02V143.516H151.401V139.02H148.966Z" fill="black"/>
<path d="M156.27 160.902V168.197H158.705V160.902H156.27Z" fill="black"/>
<path d="M153.836 151.176V160.902H156.27V151.176H153.836Z" fill="black"/>
<path d="M151.401 143.515V151.177H153.836V143.515H151.401Z" fill="black"/>
<path d="M175.748 146.314V148.745H178.183V146.314H175.748Z" fill="black"/>
<path d="M156.27 109.842V112.274H158.705V109.842H156.27Z" fill="black"/>
<path d="M168.444 153.608V156.039H170.879V153.608H168.444Z" fill="black"/>
<path d="M136.793 129.294V131.725H139.227V129.294H136.793Z" fill="black"/>
<path d="M180.617 141.451V143.882H183.052V141.451H180.617Z" fill="black"/>
<path d="M144.097 119.568L144.097 121.999L141.662 121.999L141.662 119.568L144.097 119.568Z" fill="black"/>
<path d="M161.14 104.98V107.411H163.574V104.98H161.14Z" fill="black"/>
<path d="M153.836 112.274V114.705H156.27V112.274H153.836Z" fill="black"/>
<path d="M185.487 136.588V139.019H187.922V136.588H185.487Z" fill="black"/>
<path d="M166.009 100.117V102.548H168.444V100.117H166.009Z" fill="black"/>
<path d="M168.444 97.6853V100.117H170.879V97.6853H168.444Z" fill="black"/>
<path d="M161.14 160.902V163.334H163.574V160.902H161.14Z" fill="black"/>
<path d="M129.488 136.589V139.02H131.923V136.589H129.488Z" fill="black"/>
<path d="M124.619 141.451V143.883H127.054V141.451H124.619Z" fill="black"/>
<path d="M173.313 148.745V151.177H175.748V148.745H173.313Z" fill="black"/>
<path d="M131.923 107.411L131.923 109.842L129.488 109.842L129.488 107.411L131.923 107.411Z" fill="black"/>
<path d="M178.183 143.882V146.314H180.617V143.882H178.183Z" fill="black"/>
<path d="M158.705 107.411V109.842H161.14V107.411H158.705Z" fill="black"/>
<path d="M183.052 139.019V141.451H185.487V139.019H183.052Z" fill="black"/>
<path d="M163.574 102.548V104.98H166.009V102.548H163.574Z" fill="black"/>
<path d="M197.66 119.568H195.226V121.999H197.66V119.568Z" fill="black"/>
<path d="M136.793 102.548H131.923V104.98H136.793V102.548Z" fill="black"/>
<path d="M161.14 97.6853H152.239V100.117H161.14V97.6853Z" fill="black"/>
<path d="M173.313 95.2539H161.14V97.6853H173.313V95.2539Z" fill="black"/>
<path d="M152.239 100.117H136.793V102.548H152.239V100.117Z" fill="black"/>
<path d="M122.184 141.451H119.75V151.177H122.184V141.451Z" fill="black"/>
<path d="M124.619 131.725H122.184V141.451H124.619V131.725Z" fill="black"/>
<path d="M127.054 121.999H124.619V131.725H127.054V121.999Z" fill="black"/>
<path d="M129.488 107.411H127.054V121.999H129.488V107.411Z" fill="black"/>
<path d="M141.662 163.334H136.793V165.765H141.662V163.334Z" fill="black"/>
<path d="M148.966 158.471H144.097V160.902H148.966V158.471Z" fill="black"/>
<path d="M153.836 160.902H148.966V163.334H153.836V160.902Z" fill="black"/>
<path d="M134.358 158.471H129.488V160.902H134.358V158.471Z" fill="black"/>
<path d="M139.227 153.608H134.358V156.039H139.227V153.608Z" fill="black"/>
<path d="M173.313 119.568H166.009V122H173.313V119.568Z" fill="white"/>
<path d="M170.879 114.705H168.444V117.137H170.879V114.705Z" fill="white"/>
<path d="M168.444 117.137H166.009V119.568H168.444V117.137Z" fill="white"/>
<path d="M173.313 112.274H170.879V114.705H173.313V112.274Z" fill="white"/>
<path d="M170.879 109.842H168.444V112.274H170.879V109.842Z" fill="white"/>
<path d="M168.444 109.842H166.009V112.274H168.444V109.842Z" fill="white"/>
<path d="M144.097 139.019H136.793V141.451H144.097V139.019Z" fill="white"/>
<path d="M144.097 143.882H136.793V146.314H144.097V143.882Z" fill="white"/>
<path d="M145.624 148.097H135.882V150.529H145.624V148.097Z" fill="white"/>
<path d="M146.531 143.882V141.401H144.097V143.882H146.531Z" fill="white"/>
<path d="M136.793 143.882V141.401H134.358V143.882H136.793Z" fill="white"/>
<path d="M167.225 134.509H159.92V136.94H167.225V134.509Z" fill="white"/>
<path d="M167.225 143.019H159.92V145.45H167.225V143.019Z" fill="white"/>
<path d="M165.925 148.343H161.22V150.775H165.925V148.343Z" fill="white"/>
<path d="M167.225 148.343V144.646H164.79V148.343H167.225Z" fill="white"/>
<path d="M162.355 148.343V144.646H159.92V148.343H162.355Z" fill="white"/>
<path d="M169.659 143.019V136.94H167.225V143.019H169.659Z" fill="white"/>
<path d="M159.92 143.019V136.94H157.486V143.019H159.92Z" fill="white"/>
<path d="M141.276 105.065L138.315 108.443L140.147 110.045L143.108 106.666L141.276 105.065Z" fill="white"/>
<path d="M144.712 104.837L143.108 106.666L144.94 108.268L146.544 106.438L144.712 104.837Z" fill="white"/>
<path d="M144.94 108.268L143.337 110.098L145.169 111.699L146.772 109.869L144.94 108.268Z" fill="white"/>
<path d="M148.376 108.039L146.772 109.869L148.605 111.47L150.208 109.641L148.376 108.039Z" fill="white"/>
<path d="M148.605 111.47L145.644 114.849L147.476 116.45L150.437 113.072L148.605 111.47Z" fill="white"/>
<path d="M180.617 156.039H178.183V162.118H180.617V156.039Z" fill="white"/>
<path d="M178.183 164.549V162.118H174.504V164.549H178.183Z" fill="white"/>
<path d="M179.306 156.039V153.608H174.625V156.039H179.306Z" fill="white"/>
<path d="M180.617 152.392V149.961H178.183V152.392H180.617Z" fill="white"/>
<path d="M183.052 154.824V152.392H180.617V154.824H183.052Z" fill="white"/>
<path d="M185.487 157.255V154.824H183.052V157.255H185.487Z" fill="white"/>
<path d="M134.358 126.276H136.793V123.844H134.358V126.276Z" fill="white"/>
<path d="M131.923 128.707H134.358V126.276H131.923V128.707Z" fill="white"/>
<path d="M129.488 131.139H131.923V128.707H129.488V131.139Z" fill="white"/>
<path d="M134.358 120.784H136.793V118.352H134.358V120.784Z" fill="white"/>
<path d="M131.923 123.215H134.358V120.784H131.923V123.215Z" fill="white"/>
<path d="M129.488 125.647H131.923V123.215H129.488V125.647Z" fill="white"/>
<path d="M173.313 159.714H175.748V156.04H173.313V159.714Z" fill="white"/>
<path d="M178.183 160.902V158.471H173.313V160.902H178.183Z" fill="white"/>
<path d="M203.16 20.4975L184.084 24.7782L184.497 26.6099L203.573 22.3293L203.16 20.4975Z" fill="#010000"/>
<path d="M189.575 27.0376L186.273 27.7785L186.685 29.6102L189.987 28.8693L189.575 27.0376Z" fill="#010000"/>
<path d="M190.368 30.5599L187.066 31.3008L187.478 33.1325L190.78 32.3917L190.368 30.5599Z" fill="#010000"/>
<path d="M192.994 33.6707L191.821 28.4577L189.987 28.8693L191.16 34.0823L192.994 33.6707Z" fill="#010000"/>
<path d="M189.693 34.4115L188.52 29.1986L186.685 29.6102L187.858 34.8231L189.693 34.4115Z" fill="#010000"/>
<path d="M205.665 54.4466L208.966 53.7057L208.554 51.874L205.253 52.6148L205.665 54.4466Z" fill="#010000"/>
<path d="M204.873 50.9244L208.174 50.1836L207.762 48.3518L204.46 49.0927L204.873 50.9244Z" fill="#010000"/>
<path d="M202.246 47.8135L203.419 53.0264L205.253 52.6148L204.08 47.4019L202.246 47.8135Z" fill="#010000"/>
<path d="M205.547 47.0728L206.72 52.2858L208.554 51.8742L207.381 46.6612L205.547 47.0728Z" fill="#010000"/>
<path d="M201.412 38.1311L202.037 40.9071L203.871 40.4955L203.246 37.7195L201.412 38.1311Z" fill="#010000"/>
<path d="M192.688 40.0888L193.313 42.8647L191.479 43.2763L190.854 40.5004L192.688 40.0888Z" fill="#010000"/>
<path d="M193.94 37.6121L194.411 39.7022L192.576 40.1138L192.106 38.0238L193.94 37.6121Z" fill="#010000"/>
<path d="M195.192 35.1356L195.663 37.2256L193.828 37.6372L193.358 35.5472L195.192 35.1356Z" fill="#010000"/>
<path d="M201.079 36.0102L201.549 38.1003L199.715 38.5119L199.245 36.4218L201.079 36.0102Z" fill="#010000"/>
<path d="M198.861 34.3124L199.331 36.4025L197.497 36.8141L197.027 34.724L198.861 34.3124Z" fill="#010000"/>
<path d="M196.556 32.6339L197.026 34.724L195.192 35.1356L194.722 33.0455L196.556 32.6339Z" fill="#010000"/>
<path d="M198.122 39.5924L198.592 41.6825L196.758 42.0941L196.287 40.0041L198.122 39.5924Z" fill="#010000"/>
<path d="M197.17 43.9235L197.794 46.6994L199.629 46.2878L199.004 43.5119L197.17 43.9235Z" fill="#010000"/>
<path d="M203.871 40.4955L198.592 41.6801L199.004 43.5119L204.283 42.3273L203.871 40.4955Z" fill="#010000"/>
<path d="M191.479 43.2763L196.758 42.0918L197.17 43.9235L191.891 45.1081L191.479 43.2763Z" fill="#010000"/>
<path d="M201.351 45.9013L196.072 47.0859L196.484 48.9177L201.763 47.7331L201.351 45.9013Z" fill="#010000"/>
<path d="M212.688 54.2785L205.407 21.9176L203.573 22.3292L210.854 54.6901L212.688 54.2785Z" fill="#010000"/>
<path d="M191.778 58.9708L184.497 26.6099L182.663 27.0215L189.944 59.3824L191.778 58.9708Z" fill="#010000"/>
<path d="M210.854 54.69L191.778 58.9707L192.19 60.8025L211.266 56.5218L210.854 54.69Z" fill="#010000"/>
</svg>
