<svg width="317" height="195" viewBox="0 0 317 195" fill="none" xmlns="http://www.w3.org/2000/svg">
<path d="M68.1263 67.0465C68.1263 66.3674 67.5429 65.7853 66.765 65.7853H28.6956C27.8691 65.7853 27.3343 66.3674 27.3343 67.0465C27.3343 84.6062 47.2197 94.0167 70.0225 94.0167C98.7567 94.0167 113.975 83.7816 113.975 67.3861C113.975 49.8264 98.8053 39.3973 69.9252 39.3973C66.9108 39.3973 66.7163 37.3115 66.7163 36.5354C66.7163 35.0317 68.2235 33.7705 70.0711 33.7705C71.7728 33.7705 73.28 34.7891 73.28 36.3899C73.28 37.4085 73.9607 37.9906 74.8844 37.9906H111.787C112.613 37.9906 113.148 37.4085 113.148 36.7294C113.148 19.5093 93.1168 10.3414 70.6059 10.3414C47.949 10.3414 26.7995 21.8376 26.7995 37.9906C26.7995 55.6473 44.6429 63.9421 70.2656 64.0391C72.891 64.0391 74.6413 65.3003 74.6413 67.3861C74.6413 68.8898 73.28 70.151 71.5297 70.151C69.3904 70.151 68.1263 69.0838 68.1263 67.0465Z" fill="#8CD9DA"/>
<path d="M162.837 39.4943C162.74 39.9309 162.594 40.1734 162.4 40.1734C162.205 40.1734 162.059 39.9309 161.962 39.4943L155.058 11.166C154.961 10.7294 154.475 10.3414 154.037 10.3414H116.162C115.239 10.3414 114.801 10.9234 115.141 11.8451L143.195 93.2891C143.292 93.7256 143.778 93.9682 144.362 93.9682H180.584C181.021 93.9682 181.507 93.7256 181.605 93.2891L209.853 11.8451C210.193 10.9234 209.755 10.3414 208.832 10.3414H170.86C170.422 10.3414 169.936 10.6809 169.839 11.166L162.837 39.4943Z" fill="#8CD9DA"/>
<path d="M256.138 54.095C255.798 54.095 255.458 54.1921 255.215 54.5316C254.291 56.0353 252.93 56.8115 251.325 56.8115C248.7 56.8115 246.609 54.7256 246.609 52.1062C246.609 49.5838 248.7 47.4981 251.325 47.4981C252.93 47.4981 254.194 48.1772 255.215 49.6809C255.458 50.0204 255.798 50.2629 256.138 50.2629H292.263C293.284 50.2629 293.527 49.9234 293.43 48.9047C291.679 26.8824 273.155 10.3414 251.325 10.3414C227.988 10.3414 208.88 28.9197 208.88 52.1062C208.88 75.3898 227.988 93.9682 251.325 93.9682C263.966 93.9682 275.586 88.6809 283.317 79.61H292.506C293.089 79.61 293.527 79.0279 293.527 78.4458V55.1622C293.527 54.5801 293.187 53.998 292.603 53.998H256.138V54.095Z" fill="#8CD9DA"/>
<path d="M66.6191 141.166C66.6191 140.923 66.8622 140.923 66.8622 141.166L72.1617 182.252C72.259 182.688 72.5993 183.173 73.0855 183.27H110.814C111.398 183.27 111.981 182.834 111.981 182.252V100.759C111.981 100.08 111.398 99.595 110.814 99.595H73.3772C72.7938 99.595 72.3562 100.032 72.3562 100.759V140.778C72.3562 141.02 72.1131 141.02 72.1131 140.778L66.9594 100.614C66.8622 99.9346 66.376 99.595 65.6953 99.595H28.0636C27.4801 99.595 27.0426 100.032 27.0426 100.759V182.203C27.0426 182.785 27.4801 183.222 28.0636 183.222H65.4522C66.0357 183.222 66.6191 182.785 66.6191 182.203V141.166Z" fill="#8CD9DA"/>
<path d="M122.289 99.595C121.608 99.595 121.122 99.9346 121.122 100.759V182.106C121.122 182.785 121.559 183.27 122.289 183.27H160.261C160.941 183.27 161.427 182.834 161.427 182.106V157.561H190.648C191.231 157.561 191.815 157.125 191.815 156.543V134.617C191.815 134.035 191.231 133.599 190.648 133.599H161.379V125.207H204.65C205.234 125.207 205.671 124.77 205.671 124.043V100.759C205.671 100.177 205.234 99.595 204.65 99.595H122.289Z" fill="#8CD9DA"/>
<path d="M212.429 99.595C211.846 99.595 211.408 100.032 211.408 100.614V140.875C211.408 141.457 211.846 141.894 212.429 141.894H233.336V182.155C233.336 182.737 233.773 183.173 234.357 183.173H271.745C272.329 183.173 272.912 182.737 272.912 182.155V141.894H293.819C294.402 141.894 294.84 141.457 294.84 140.875V100.614C294.84 100.032 294.402 99.595 293.819 99.595H212.429Z" fill="#8CD9DA"/>
<path d="M36.8152 71.2667L40.3158 68.3562L49.4078 65.4458L61.1737 66.2219L62.9726 68.0652L64.7716 72.8189V87.2256L61.8544 90.2816L58.451 93.7256L56.02 95.5689H45.3236L42.4064 92.5129L39.6351 89.9421L37.4959 87.3226L36.8152 71.2667Z" fill="#4AC157"/>
<path d="M63.313 68.2107H60.493V88.6809H63.313V68.2107Z" fill="#33A940"/>
<path d="M60.493 68.2107H57.5759V91.5913H60.493V68.2107Z" fill="#33A940"/>
<path d="M57.4786 91.5913H54.5614V94.5018H57.4786V91.5913Z" fill="#33A940"/>
<path d="M57.5759 88.6808H54.6587V91.5913H57.5759V88.6808Z" fill="#33A940"/>
<path d="M54.6587 91.5913H51.7415V94.5018H54.6587V91.5913Z" fill="#33A940"/>
<path d="M51.3039 47.9347L53.8808 46.722L61.7571 46.2854L64.7715 49.6324L67.4943 51.6212V60.7891L64.7715 64.1846L62.0975 66.4159H52.5194L50.526 63.748L47.1225 61.6622L47.9491 51.6212L51.3039 47.9347Z" fill="white"/>
<path d="M62.1461 54.9682H59.2289V57.8786H62.1461V54.9682Z" fill="black"/>
<path d="M51.6443 62.4868H48.7271V65.3973H51.6443V62.4868Z" fill="black"/>
<path d="M51.6443 47.9346H48.7271V50.845H51.6443V47.9346Z" fill="black"/>
<path d="M66.2301 62.4868H63.313V65.3973H66.2301V62.4868Z" fill="black"/>
<path d="M48.7271 50.845H45.8098V62.4868H48.7271V50.845Z" fill="black"/>
<path d="M66.2301 47.9346H63.313V50.845H66.2301V47.9346Z" fill="black"/>
<path d="M63.313 65.3003H51.5956V68.2107H63.313V65.3003Z" fill="black"/>
<path d="M69.1473 50.845H66.2302V62.4868H69.1473V50.845Z" fill="black"/>
<path d="M63.313 45.0727H51.6443V47.9832H63.313V45.0727Z" fill="black"/>
<path d="M39.5865 52.2032L42.1633 50.9906L50.0398 50.554L53.0542 53.901L55.7769 55.8898V65.0577L53.0542 68.4532L50.3802 70.6846H40.8506L38.8572 68.0167L35.4538 65.9309L36.2804 55.8898L39.5865 52.2032Z" fill="white"/>
<path d="M49.0188 59.6734H46.1015V62.5838H49.0188V59.6734Z" fill="black"/>
<path d="M39.9755 66.7555H37.0583V69.6659H39.9755V66.7555Z" fill="black"/>
<path d="M39.9755 52.2032H37.0583V55.1137H39.9755V52.2032Z" fill="black"/>
<path d="M54.5614 66.7555H51.6443V69.6659H54.5614V66.7555Z" fill="black"/>
<path d="M37.0583 55.1137H34.1411V66.7555H37.0583V55.1137Z" fill="black"/>
<path d="M54.5614 52.2032H51.6443V55.1137H54.5614V52.2032Z" fill="black"/>
<path d="M51.6443 69.5689H39.9268V72.4794H51.6443V69.5689Z" fill="black"/>
<path d="M57.4786 55.1137H54.5614V66.7555H57.4786V55.1137Z" fill="black"/>
<path d="M51.6443 49.3413H39.9755V52.2518H51.6443V49.3413Z" fill="black"/>
<path d="M38.5655 69.7144H35.6483V88.7294H38.5655V69.7144Z" fill="black"/>
<path d="M66.2301 71.0241H63.313V88.7294H66.2301V71.0241Z" fill="black"/>
<path d="M41.4827 88.7294H38.5655V91.6398H41.4827V88.7294Z" fill="black"/>
<path d="M44.3998 91.6398H41.4827V94.5503H44.3998V91.6398Z" fill="black"/>
<path d="M63.313 88.7294H60.3958V91.6398H63.313V88.7294Z" fill="black"/>
<path d="M60.3958 91.6398H57.4786V94.5503H60.3958V91.6398Z" fill="black"/>
<path d="M57.4786 94.5503H44.3512V97.4607H57.4786V94.5503Z" fill="black"/>
<path d="M64.7715 68.2107H61.8544V71.1212H64.7715V68.2107Z" fill="black"/>
<path d="M266.592 136.606L263.091 133.696L253.999 130.785L242.233 131.561L240.434 133.453L238.635 138.207V152.614L241.553 155.67L244.956 159.114L247.387 161.005H258.083L261 157.95L263.772 155.379L265.911 152.808L266.592 136.606Z" fill="#F48D2D"/>
<path d="M267.759 135.054H264.841V154.069H267.759V135.054Z" fill="black"/>
<path d="M264.841 135.054H262.021V154.069H264.841V135.054Z" fill="#C96F1C"/>
<path d="M264.841 154.069H261.924V156.979H264.841V154.069Z" fill="black"/>
<path d="M261.924 156.979H259.007V159.89H261.924V156.979Z" fill="black"/>
<path d="M240.094 136.364H237.177V154.069H240.094V136.364Z" fill="black"/>
<path d="M262.021 137.916H259.104V156.979H262.021V137.916Z" fill="#C96F1C"/>
<path d="M259.007 156.979H256.09V159.89H259.007V156.979Z" fill="#C96F1C"/>
<path d="M259.104 154.069H256.187V156.979H259.104V154.069Z" fill="#C96F1C"/>
<path d="M256.187 156.979H253.27V159.89H256.187V156.979Z" fill="#C96F1C"/>
<path d="M243.011 154.069H240.094V156.979H243.011V154.069Z" fill="black"/>
<path d="M245.928 156.979H243.011V159.89H245.928V156.979Z" fill="black"/>
<path d="M259.056 159.89H245.928V162.8H259.056V159.89Z" fill="black"/>
<path d="M241.553 133.55H238.635V136.461H241.553V133.55Z" fill="black"/>
<path d="M252.103 116.185L249.526 114.972L241.65 114.535L238.635 117.882L235.913 119.871V129.039L238.635 132.435L241.309 134.666H250.839L252.832 131.998L256.236 129.912L255.409 119.871L252.103 116.185Z" fill="white"/>
<path d="M244.178 123.218H241.261V126.129H244.178V123.218Z" fill="black"/>
<path d="M254.68 130.737H251.763V133.647H254.68V130.737Z" fill="black"/>
<path d="M254.68 116.185H251.763V119.095H254.68V116.185Z" fill="black"/>
<path d="M240.094 130.737H237.177V133.647H240.094V130.737Z" fill="black"/>
<path d="M257.597 119.095H254.68V130.737H257.597V119.095Z" fill="black"/>
<path d="M240.094 116.185H237.177V119.095H240.094V116.185Z" fill="black"/>
<path d="M251.811 133.55H240.094V136.461H251.811V133.55Z" fill="black"/>
<path d="M237.177 119.095H234.26V130.737H237.177V119.095Z" fill="black"/>
<path d="M251.763 113.323H240.094V116.233H251.763V113.323Z" fill="black"/>
<path d="M263.772 120.55L261.195 119.338L253.318 118.901L250.304 122.248L247.581 124.237V133.405L250.304 136.8L252.978 139.032H262.556L264.55 136.364L267.953 134.278L267.126 124.237L263.772 120.55Z" fill="white"/>
<path d="M257.257 128.02H254.339V130.931H257.257V128.02Z" fill="black"/>
<path d="M266.349 135.103H263.431V138.013H266.349V135.103Z" fill="black"/>
<path d="M266.349 120.55H263.431V123.461H266.349V120.55Z" fill="black"/>
<path d="M251.763 135.103H248.845V138.013H251.763V135.103Z" fill="black"/>
<path d="M269.266 123.461H266.349V135.103H269.266V123.461Z" fill="black"/>
<path d="M251.763 120.55H248.845V123.461H251.763V120.55Z" fill="black"/>
<path d="M263.48 137.916H251.763V140.826H263.48V137.916Z" fill="black"/>
<path d="M248.845 123.461H245.928V135.103H248.845V123.461Z" fill="black"/>
<path d="M263.431 117.688H251.763V120.599H263.431V117.688Z" fill="black"/>
<path d="M148.543 35.3227H145.626V41.1436H148.543V35.3227Z" fill="black" fill-opacity="0.9624"/>
<path d="M157.295 35.3227H154.378V41.1436H157.295V35.3227Z" fill="black" fill-opacity="0.9624"/>
<path d="M154.378 32.4608H148.543V35.3712H154.378V32.4608Z" fill="black" fill-opacity="0.9624"/>
<path d="M154.378 35.3227H151.46V38.2331H154.378V35.3227Z" fill="#C8F5FF"/>
<path d="M154.378 41.1436H148.543V44.054H154.378V41.1436Z" fill="black" fill-opacity="0.9624"/>
<path d="M155.836 52.3003H152.919V58.1212H155.836V52.3003Z" fill="black" fill-opacity="0.9624"/>
<path d="M170.422 52.3003H167.505V58.1212H170.422V52.3003Z" fill="black" fill-opacity="0.9624"/>
<path d="M164.588 46.528H158.753V49.4383H164.588V46.528Z" fill="black" fill-opacity="0.9624"/>
<path d="M164.588 61.0316H158.753V63.942H164.588V61.0316Z" fill="black" fill-opacity="0.9624"/>
<path d="M158.753 49.3898H155.836V52.3003H158.753V49.3898Z" fill="black"/>
<path d="M158.753 58.1212H155.836V61.0316H158.753V58.1212Z" fill="black"/>
<path d="M167.505 49.3898H164.588V52.3003H167.505V49.3898Z" fill="black"/>
<path d="M164.588 52.3488H161.67V58.1212H164.588V52.3488Z" fill="#C8F5FF"/>
<path d="M167.505 58.1212H164.588V61.0316H167.505V58.1212Z" fill="black"/>
<path d="M160.212 23.6809H157.295V26.5914H160.212V23.6809Z" fill="black"/>
<path d="M161.233 94.0167H158.316V99.8376H161.233V94.0167Z" fill="black" fill-opacity="0.9624"/>
<path d="M152.481 94.0167H149.564V99.8376H152.481V94.0167Z" fill="black" fill-opacity="0.9624"/>
<path d="M158.316 91.1547H152.481V94.0652H158.316V91.1547Z" fill="black" fill-opacity="0.9624"/>
<path d="M155.399 94.0167H152.481V96.9271H155.399V94.0167Z" fill="#C8F5FF"/>
<path d="M158.316 99.8376H152.481V102.748H158.316V99.8376Z" fill="black" fill-opacity="0.9624"/>
<path d="M155.544 115.797H152.627V121.617H155.544V115.797Z" fill="black" fill-opacity="0.9624"/>
<path d="M140.958 115.797H138.041V121.617H140.958V115.797Z" fill="black" fill-opacity="0.9624"/>
<path d="M149.71 110.073H143.876V112.983H149.71V110.073Z" fill="black" fill-opacity="0.9624"/>
<path d="M149.71 124.528H143.876V127.438H149.71V124.528Z" fill="black" fill-opacity="0.9624"/>
<path d="M152.627 112.886H149.71V115.797H152.627V112.886Z" fill="black"/>
<path d="M152.627 121.617H149.71V124.528H152.627V121.617Z" fill="black"/>
<path d="M143.876 112.886H140.958V115.797H143.876V112.886Z" fill="black"/>
<path d="M146.793 115.845H143.876V121.617H146.793V115.845Z" fill="#C8F5FF"/>
<path d="M143.876 121.617H140.958V124.528H143.876V121.617Z" fill="black"/>
<path d="M148.106 79.61H145.188V82.5204H148.106V79.61Z" fill="black"/>
<path d="M144.07 86.207H141.153V89.1174H144.07V86.207Z" fill="black"/>
<path d="M85.4835 57.0055H82.5663V62.8264H85.4835V57.0055Z" fill="black" fill-opacity="0.9624"/>
<path d="M76.732 57.0055H73.8148V62.8264H76.732V57.0055Z" fill="black" fill-opacity="0.9624"/>
<path d="M82.5664 54.1435H76.732V57.054H82.5664V54.1435Z" fill="black" fill-opacity="0.9624"/>
<path d="M79.6492 57.0055H76.732V59.9159H79.6492V57.0055Z" fill="#C8F5FF"/>
<path d="M82.5664 62.8264H76.732V65.7368H82.5664V62.8264Z" fill="black" fill-opacity="0.9624"/>
<path d="M85.1432 45.7033H82.226V48.6137H85.1432V45.7033Z" fill="black"/>
<path d="M81.1078 39.4944H78.1906V42.4048H81.1078V39.4944Z" fill="black"/>
<path d="M218.361 128.991H215.444V134.811H218.361V128.991Z" fill="black" fill-opacity="0.9624"/>
<path d="M227.112 128.991H224.195V134.811H227.112V128.991Z" fill="black" fill-opacity="0.9624"/>
<path d="M224.195 126.129H218.361V129.039H224.195V126.129Z" fill="black" fill-opacity="0.9624"/>
<path d="M224.195 128.991H221.278V131.901H224.195V128.991Z" fill="#C8F5FF"/>
<path d="M224.195 134.811H218.361V137.722H224.195V134.811Z" fill="black" fill-opacity="0.9624"/>
<path d="M218.701 117.64H215.784V120.55H218.701V117.64Z" fill="black"/>
<path d="M222.737 107.502H219.82V110.412H222.737V107.502Z" fill="black"/>
<path d="M214.18 64.2331L205.428 62.5353L187.099 61.1286L181.702 65.1547L179.417 68.8413L176.84 70.4906L176.159 73.7406V79.998V84.1697L179.076 87.1286L181.702 89.6995L184.084 90.4271L185.202 93.3861L187.974 95.6174H205.574L208.686 93.3861L211.7 92.7555L214.715 89.748L217.632 86.595L220.257 85.1398L219.625 80.095V73.304V69.3264L216.659 66.5615L214.18 64.2331Z" fill="#7846B4"/>
<path d="M195.51 49.5353L192.933 48.3228L185.057 47.8862L182.042 51.2331L179.319 53.2219V62.3898L182.042 65.7853L184.716 68.0167H194.294L196.288 65.3488L199.691 63.263L198.864 53.2219L195.51 49.5353Z" fill="white"/>
<path d="M187.585 56.5689H184.668V59.4794H187.585V56.5689Z" fill="black"/>
<path d="M198.087 64.0876H195.169V66.998H198.087V64.0876Z" fill="black"/>
<path d="M198.087 49.5353H195.169V52.4458H198.087V49.5353Z" fill="black"/>
<path d="M183.501 64.0876H180.583V66.998H183.501V64.0876Z" fill="black"/>
<path d="M201.004 52.4458H198.087V64.0876H201.004V52.4458Z" fill="black"/>
<path d="M183.501 49.5353H180.583V52.4458H183.501V49.5353Z" fill="black"/>
<path d="M195.218 66.901H183.501V69.8115H195.218V66.901Z" fill="black"/>
<path d="M180.583 52.4458H177.666V64.0876H180.583V52.4458Z" fill="black"/>
<path d="M195.169 46.6735H183.501V49.5838H195.169V46.6735Z" fill="black"/>
<path d="M207.227 53.804L204.65 52.5913L196.774 52.1547L193.759 55.5018L191.037 57.4906V66.6585L193.759 70.054L196.434 72.2853H206.012L208.005 69.6174L211.457 67.1921L210.582 57.4906L207.227 53.804Z" fill="white"/>
<path d="M200.712 61.2741H197.795V64.1846H200.712V61.2741Z" fill="black"/>
<path d="M209.804 68.3562H206.887V71.2667H209.804V68.3562Z" fill="black"/>
<path d="M209.804 53.804H206.887V56.7144H209.804V53.804Z" fill="black"/>
<path d="M195.218 68.3562H192.301V71.2667H195.218V68.3562Z" fill="black"/>
<path d="M212.721 56.7144H209.804V68.3562H212.721V56.7144Z" fill="black"/>
<path d="M195.218 53.804H192.301V56.7144H195.218V53.804Z" fill="black"/>
<path d="M206.935 71.1697H195.218V74.0801H206.935V71.1697Z" fill="black"/>
<path d="M192.301 56.7144H189.384V68.3562H192.301V56.7144Z" fill="black"/>
<path d="M206.887 50.942H195.218V53.8525H206.887V50.942Z" fill="black"/>
<path d="M180.632 66.998H177.715V69.9085H180.632V66.998Z" fill="black"/>
<path d="M177.715 69.9085H174.798V82.9085H177.715V69.9085Z" fill="black"/>
<path d="M218.555 65.4458H215.638V68.3562H218.555V65.4458Z" fill="black"/>
<path d="M215.59 65.4458H212.672V85.9159H215.59V65.4458Z" fill="#54238F"/>
<path d="M221.424 68.3562H218.507V83.0055H221.424V68.3562Z" fill="black"/>
<path d="M218.507 68.3562H215.59V83.0055H218.507V68.3562Z" fill="#54238F"/>
<path d="M218.555 85.8189H215.638V88.7294H218.555V85.8189Z" fill="black"/>
<path d="M215.59 85.8189H212.672V88.7294H215.59V85.8189Z" fill="#54238F"/>
<path d="M212.721 85.8189H209.804V88.7294H212.721V85.8189Z" fill="#54238F"/>
<path d="M221.473 83.0055H218.555V85.9159H221.473V83.0055Z" fill="black"/>
<path d="M218.507 83.0055H215.59V85.9159H218.507V83.0055Z" fill="#54238F"/>
<path d="M212.672 88.7294H209.755V91.6398H212.672V88.7294Z" fill="#54238F"/>
<path d="M215.638 88.7294H212.721V91.6398H215.638V88.7294Z" fill="black"/>
<path d="M209.804 88.7294H206.887V91.6398H209.804V88.7294Z" fill="#54238F"/>
<path d="M206.887 91.6398H203.97V94.5503H206.887V91.6398Z" fill="#54238F"/>
<path d="M215.638 62.6324H212.721V65.5428H215.638V62.6324Z" fill="black"/>
<path d="M180.632 85.8189H177.715V88.7294H180.632V85.8189Z" fill="black"/>
<path d="M177.715 82.9085H174.798V85.8189H177.715V82.9085Z" fill="black"/>
<path d="M186.466 91.6398H183.549V94.5503H186.466V91.6398Z" fill="black"/>
<path d="M212.721 91.6398H206.887V94.5503H212.721V91.6398Z" fill="black"/>
<path d="M206.887 94.5503H186.466V97.4607H206.887V94.5503Z" fill="black"/>
<path d="M195.218 85.8189H192.301V88.7294H195.218V85.8189Z" fill="black"/>
<path d="M198.135 82.9085H195.218V85.8189H198.135V82.9085Z" fill="black"/>
<path d="M192.301 88.7294H180.632V91.6398H192.301V88.7294Z" fill="black"/>
<path d="M201.052 93.0465V94.5503H198.135V95.957H195.218H192.301V94.5503H189.384V93.0465H186.466V101.778H189.384V100.226H192.301V98.8674H195.218H198.135V100.226H201.052V101.778H203.97V93.0465H201.052Z" fill="#F48D2D"/>
<path d="M253.319 148.248V151.158H249.137V148.248H247.824V145.338H241.358V148.248H240.094V151.158H235.913V148.248H233.044V151.158H234.26V154.069H243.011V151.547H246.026V154.069H254.728V151.158H256.187V148.248H253.319Z" fill="#B83124"/>
<path d="M92.7278 125.741L101.479 124.043L119.809 122.636L125.206 126.662L127.491 130.349L130.068 131.998L130.748 135.248V141.505V145.677L127.831 148.636L125.206 151.207L122.823 151.935L121.705 154.894L118.934 157.125H101.334L98.2219 154.894L95.2074 154.263L92.193 151.255L89.2759 148.102L86.6504 146.647L87.2824 141.602V134.811V130.834L90.2482 128.069L92.7278 125.741Z" fill="#088484"/>
<path d="M111.398 111.043L113.975 109.83L121.851 109.394L124.865 112.741L127.588 114.729V123.897L124.865 127.293L122.191 129.524H112.613L110.62 126.856L107.216 124.77L108.043 114.729L111.398 111.043Z" fill="white"/>
<path d="M122.24 118.125H119.323V121.035H122.24V118.125Z" fill="black"/>
<path d="M111.738 125.595H108.821V128.505H111.738V125.595Z" fill="black"/>
<path d="M111.738 111.043H108.821V113.953H111.738V111.043Z" fill="black"/>
<path d="M126.324 125.595H123.407V128.505H126.324V125.595Z" fill="black"/>
<path d="M108.821 113.953H105.904V125.595H108.821V113.953Z" fill="black"/>
<path d="M126.324 111.043H123.407V113.953H126.324V111.043Z" fill="black"/>
<path d="M123.407 128.408H111.69V131.319H123.407V128.408Z" fill="black"/>
<path d="M129.241 113.953H126.324V125.595H129.241V113.953Z" fill="black"/>
<path d="M123.407 108.181H111.738V111.091H123.407V108.181Z" fill="black"/>
<path d="M99.6805 115.311L102.257 114.099L110.134 113.662L113.148 117.009L115.871 118.998V128.166L113.148 131.561L110.474 133.793H100.896L98.9026 131.125L95.4506 128.7L96.3257 118.998L99.6805 115.311Z" fill="white"/>
<path d="M109.113 122.782H106.195V125.692H109.113V122.782Z" fill="black"/>
<path d="M100.069 129.864H97.1522V132.774H100.069V129.864Z" fill="black"/>
<path d="M100.069 115.311H97.1522V118.222H100.069V115.311Z" fill="black"/>
<path d="M114.655 129.864H111.738V132.774H114.655V129.864Z" fill="black"/>
<path d="M97.1522 118.222H94.235V129.864H97.1522V118.222Z" fill="black"/>
<path d="M114.655 115.311H111.738V118.222H114.655V115.311Z" fill="black"/>
<path d="M111.738 132.677H100.021V135.588H111.738V132.677Z" fill="black"/>
<path d="M117.572 118.222H114.655V129.864H117.572V118.222Z" fill="black"/>
<path d="M111.738 112.45H100.069V115.36H111.738V112.45Z" fill="black"/>
<path d="M129.241 128.505H126.324V131.416H129.241V128.505Z" fill="black"/>
<path d="M132.158 131.416H129.241V144.416H132.158V131.416Z" fill="black"/>
<path d="M91.3179 126.953H88.4007V129.864H91.3179V126.953Z" fill="black"/>
<path d="M94.235 126.953H91.3179V147.423H94.235V126.953Z" fill="#096262"/>
<path d="M88.4007 129.864H85.4835V144.513H88.4007V129.864Z" fill="black"/>
<path d="M91.3665 129.864H88.4493V144.513H91.3665V129.864Z" fill="#096262"/>
<path d="M91.3179 147.326H88.4007V150.237H91.3179V147.326Z" fill="black"/>
<path d="M94.235 147.326H91.3179V150.237H94.235V147.326Z" fill="#096262"/>
<path d="M97.1522 147.326H94.235V150.237H97.1522V147.326Z" fill="#096262"/>
<path d="M88.4007 144.513H85.4835V147.423H88.4007V144.513Z" fill="black"/>
<path d="M91.3179 144.513H88.4007V147.423H91.3179V144.513Z" fill="#096262"/>
<path d="M97.1522 150.237H94.235V153.147H97.1522V150.237Z" fill="#096262"/>
<path d="M94.235 150.237H91.3179V153.147H94.235V150.237Z" fill="black"/>
<path d="M100.069 150.237H97.1522V153.147H100.069V150.237Z" fill="#096262"/>
<path d="M102.987 153.147H100.069V156.058H102.987V153.147Z" fill="#096262"/>
<path d="M94.235 124.14H91.3179V127.05H94.235V124.14Z" fill="black"/>
<path d="M129.241 147.326H126.324V150.237H129.241V147.326Z" fill="black"/>
<path d="M132.158 144.416H129.241V147.326H132.158V144.416Z" fill="black"/>
<path d="M123.407 153.147H120.49V156.058H123.407V153.147Z" fill="black"/>
<path d="M100.069 153.147H94.235V156.058H100.069V153.147Z" fill="black"/>
<path d="M120.49 156.058H100.069V158.968H120.49V156.058Z" fill="black"/>
<path d="M114.655 147.326H111.738V150.237H114.655V147.326Z" fill="black"/>
<path d="M111.738 144.416H108.821V147.326H111.738V144.416Z" fill="black"/>
<path d="M126.324 150.237H114.655V153.147H126.324V150.237Z" fill="black"/>
<path d="M117.572 154.554V156.106H114.655V157.464H111.738H108.821V156.106H105.904V154.554H102.987V163.285H105.904V161.782H108.821V160.375H111.738H114.655V161.782H117.572V163.285H120.49V154.554H117.572Z" fill="#F48D2D"/>
<path d="M133.666 143.3H124.914V146.211H133.666V143.3Z" fill="#4AC157"/>
<path d="M121.9 143.3H113.148V146.211H121.9V143.3Z" fill="#4AC157"/>
<path d="M127.977 140.39H118.982V143.3H127.977V140.39Z" fill="#4AC157"/>
</svg>
