<svg width="317" height="195" viewBox="0 0 317 195" fill="none" xmlns="http://www.w3.org/2000/svg">
<path d="M120.636 152.012H119.177H91.4637V163.683H119.177H120.636H146.89V152.012H120.636Z" fill="#E77F01"/>
<path d="M123.553 119.918H121.559H41.8716V149.095H121.559H123.553H206.303V119.918H123.553Z" fill="#E49901"/>
<path d="M208.345 166.601H206.887H125.011V182.259H206.887H208.345H276.753V166.601H208.345Z" fill="#934200"/>
<path d="M46.4905 42.3067C46.7336 42.3067 46.7822 42.3067 46.8794 42.015L50.9636 28.8853C51.0608 28.5449 51.3039 28.399 51.5956 28.399C51.8874 28.399 52.0818 28.6908 52.0818 28.9825V41.9177C52.0818 42.1609 52.2763 42.3554 52.5194 42.3554H68.9042C69.1473 42.3554 69.3418 42.1609 69.3418 41.9177V5.78678C69.3418 5.49501 69.1473 5.3005 68.9042 5.3005H42.3092C42.0661 5.3005 41.9689 5.44639 41.8716 5.78678L39.6351 13.9077C39.5379 14.1995 39.3434 14.2968 39.0517 14.2968C38.8086 14.2968 38.6141 14.1995 38.4682 13.9077L36.1345 5.78678C36.0373 5.44639 35.94 5.3005 35.6969 5.3005H9.15061C8.90751 5.3005 8.71303 5.49501 8.71303 5.78678V41.8691C8.71303 42.1122 8.90751 42.3067 9.15061 42.3067H25.5354C25.7785 42.3067 25.973 42.1122 25.973 41.8691V28.9339C25.973 28.6908 26.1675 28.3503 26.4592 28.3503C26.7023 28.3503 26.9454 28.4962 27.0912 28.8366L31.1753 41.9663C31.2239 42.3067 31.2725 42.3067 31.5643 42.3067H46.4905ZM91.8527 24.9463C91.1234 24.9463 90.54 24.4114 90.54 23.6334V5.78678C90.54 5.49501 90.3455 5.3005 90.1024 5.3005H73.5231C73.2314 5.3005 73.0369 5.49501 73.0369 5.78678V23.9252C73.0369 34.1372 81.5939 42.3067 91.9013 42.3067C102.209 42.3067 110.766 34.1372 110.766 23.9252V5.78678C110.766 5.49501 110.571 5.3005 110.28 5.3005H93.7002C93.4571 5.3005 93.2627 5.49501 93.2627 5.78678V23.6334C93.1654 24.3628 92.5334 24.9463 91.8527 24.9463ZM114.266 41.8691C114.266 42.1122 114.461 42.3067 114.704 42.3067H150.78C151.023 42.3067 151.266 42.1122 151.266 41.8691V31.5112C151.266 31.2681 151.023 31.0736 150.78 31.0736H131.721V5.73816C131.721 5.49501 131.478 5.3005 131.235 5.3005H114.704C114.461 5.3005 114.266 5.49501 114.266 5.73816V41.8691ZM148.738 5.25187C148.495 5.25187 148.3 5.44639 148.3 5.68953V23.5362C148.3 23.7793 148.495 23.9738 148.738 23.9738H157.975V41.8204C157.975 42.0636 158.17 42.2581 158.413 42.2581H174.944C175.187 42.2581 175.43 42.0636 175.43 41.8204V24.0224H184.668C184.911 24.0224 185.105 23.8279 185.105 23.5848V5.73816C185.105 5.49501 184.911 5.3005 184.668 5.3005H148.738V5.25187ZM197.114 23.2443C202.219 23.2443 206.255 19.1596 206.255 14.1509C206.255 9.14215 202.171 5.25187 197.114 5.25187C192.058 5.25187 187.974 9.09352 187.974 14.1509C187.974 19.2082 192.106 23.2443 197.114 23.2443ZM188.752 24.3142C188.509 24.3142 188.265 24.5574 188.265 24.8005V41.8204C188.265 42.1122 188.509 42.3067 188.752 42.3067H205.525C205.768 42.3067 206.012 42.1122 206.012 41.8204V24.8491C206.012 24.6059 205.768 24.3628 205.525 24.3628H188.752V24.3142ZM227.356 30.3928C227.356 30.101 227.113 29.8092 226.724 29.8092H209.901C209.561 29.8092 209.269 30.0523 209.269 30.3928C209.269 38.1733 218.069 42.3554 228.134 42.3554C240.823 42.3554 247.533 37.8329 247.533 30.5386C247.533 22.7581 240.823 18.1384 228.085 18.1384C226.772 18.1384 226.675 17.2145 226.675 16.8741C226.675 16.1933 227.356 15.6584 228.134 15.6584C228.911 15.6584 229.543 16.096 229.543 16.8254C229.543 17.263 229.835 17.5548 230.273 17.5548H246.609C246.949 17.5548 247.241 17.3117 247.241 16.9713C247.241 9.33666 238.392 5.3005 228.425 5.3005C218.41 5.3005 209.075 10.4064 209.075 17.5548C209.075 25.384 216.951 29.0312 228.279 29.0798C229.446 29.0798 230.224 29.6633 230.224 30.5386C230.224 31.2195 229.592 31.7544 228.863 31.7544C227.939 31.7544 227.356 31.268 227.356 30.3928ZM259.542 23.2443C264.647 23.2443 268.682 19.1596 268.682 14.1509C268.682 9.14215 264.598 5.25187 259.542 5.25187C254.485 5.25187 250.401 9.09352 250.401 14.1509C250.401 19.2082 254.485 23.2443 259.542 23.2443ZM251.131 24.3142C250.887 24.3142 250.644 24.5574 250.644 24.8005V41.8204C250.644 42.1122 250.887 42.3067 251.131 42.3067H267.904C268.147 42.3067 268.391 42.1122 268.391 41.8204V24.8491C268.391 24.6059 268.147 24.3628 267.904 24.3628H251.131V24.3142ZM292.36 24.6059C292.214 24.6059 292.068 24.6546 291.971 24.8005C291.582 25.4813 290.95 25.8216 290.221 25.8216C289.054 25.8216 288.13 24.8978 288.13 23.7306C288.13 22.6122 289.054 21.6882 290.221 21.6882C290.95 21.6882 291.485 21.98 291.971 22.6608C292.068 22.8067 292.214 22.9039 292.36 22.9039H308.307C308.745 22.9039 308.891 22.7581 308.793 22.2718C308.016 12.4975 299.847 5.20324 290.172 5.20324C279.865 5.20324 271.405 13.4214 271.405 23.7306C271.405 34.0399 279.865 42.3067 290.172 42.3067C295.763 42.3067 300.917 39.9726 304.321 35.9364H308.405C308.648 35.9364 308.842 35.6933 308.842 35.4501V25.1409C308.842 24.8978 308.696 24.6546 308.453 24.6546H292.36V24.6059ZM65.9384 46.197C65.6467 46.197 65.5009 46.2943 65.355 46.5374L61.8058 57.2357C61.7571 57.4788 61.4168 57.4788 61.3682 57.2357L57.9648 46.5374C57.9162 46.2943 57.7217 46.197 57.43 46.197H38.4196C38.1279 46.197 37.8848 46.2943 37.8362 46.5374L34.3842 57.2357C34.287 57.4788 34.0439 57.4788 33.9466 57.2357L30.446 46.5374C30.3974 46.2943 30.2029 46.197 29.9112 46.197H11.0468C10.6092 46.197 10.3661 46.4888 10.512 46.9264L24.563 87.6771C24.6603 87.9202 24.8547 88.0175 25.1465 88.0175H43.2816C43.5733 88.0175 43.7192 87.9202 43.865 87.6771L47.6574 76.8329C47.7546 76.4925 47.8518 76.4439 47.9491 76.4439C48.0463 76.4439 48.1436 76.4925 48.2408 76.8329L51.9846 87.6771C52.0332 87.9202 52.2763 88.0175 52.5194 88.0175H70.7032C70.9949 88.0175 71.1407 87.9202 71.2866 87.6771L85.3377 46.9264C85.5321 46.4888 85.289 46.197 84.8029 46.197H65.9384ZM113.002 46.5374C112.954 46.2943 112.711 46.197 112.467 46.197H94.2351C93.9433 46.197 93.7975 46.2943 93.6516 46.5374L79.6005 87.288C79.4061 87.7257 79.6492 88.0175 80.1354 88.0175H98.9512C99.3401 88.0175 99.5346 87.7743 99.6318 87.4339L100.701 84.1758H105.855L106.925 87.4339C107.022 87.7743 107.216 88.0175 107.605 88.0175H126.373C126.81 88.0175 127.053 87.7257 126.907 87.288L113.002 46.5374ZM105.077 81.793H101.528L103.327 76.298L105.077 81.793ZM130.165 87.5312C130.165 87.8229 130.408 88.0661 130.7 88.0661H171.443C171.735 88.0661 172.026 87.8229 172.026 87.5312V75.8117C172.026 75.5199 171.735 75.2768 171.443 75.2768H149.856V46.7319C149.856 46.4402 149.564 46.197 149.272 46.197H130.7C130.408 46.197 130.165 46.4402 130.165 46.7319V87.5312ZM175.138 87.5312C175.138 87.8229 175.381 88.0661 175.673 88.0661H216.416C216.708 88.0661 217 87.8229 217 87.5312V75.8117C217 75.5199 216.708 75.2768 216.416 75.2768H194.829V46.7319C194.829 46.4402 194.537 46.197 194.246 46.197H175.673C175.381 46.197 175.138 46.4402 175.138 46.7319V87.5312ZM221.278 46.197C220.938 46.197 220.695 46.4888 220.695 46.7805V87.5312C220.695 87.8229 220.938 88.0661 221.278 88.0661H261.098C261.438 88.0661 261.681 87.8716 261.681 87.4825V76.0549C261.681 75.7145 261.438 75.52 261.098 75.52H239.997V73.4776H253.61C253.951 73.4776 254.145 73.283 254.145 72.894V61.4177C254.145 61.0287 253.951 60.8342 253.61 60.8342H239.997V58.7918H261.098C261.438 58.7918 261.681 58.5973 261.681 58.2082V46.7805C261.681 46.3915 261.438 46.197 261.098 46.197H221.278ZM265.668 46.197C265.376 46.197 265.133 46.4402 265.133 46.7319V66.8641C265.133 67.1559 265.376 67.399 265.668 67.399H276.121V87.5312C276.121 87.8229 276.364 88.0661 276.656 88.0661H295.326C295.618 88.0661 295.909 87.8229 295.909 87.5312V67.399H306.265C306.557 67.399 306.8 67.1559 306.8 66.8641V46.7319C306.8 46.4402 306.557 46.197 306.265 46.197H265.668Z" fill="#FBCB83"/>
<path d="M245.248 86.8017H240.24V89.3304H245.248V86.8017Z" fill="#231E2B"/>
<path d="M250.304 84.2731H245.296V86.8017H250.304V84.2731Z" fill="#231E2B"/>
<path d="M245.248 84.2731H242.719V86.8017H245.248V84.2731Z" fill="#758F21"/>
<path d="M240.24 69.1983H232.704V71.7269H237.712V86.8017H240.24V69.1983Z" fill="#231E2B"/>
<path d="M252.784 81.7444H250.255V84.2731H252.784V81.7444Z" fill="#231E2B"/>
<path d="M250.304 81.7444H247.776V84.2731H250.304V81.7444Z" fill="#D8FB6B"/>
<path d="M250.304 79.2643H247.776V81.793H250.304V79.2643Z" fill="#231E2B"/>
<path d="M247.776 79.2643H245.248V81.793H247.776V79.2643Z" fill="#758F21"/>
<path d="M252.784 76.7357H250.255V79.2643H252.784V76.7357Z" fill="#231E2B"/>
<path d="M250.304 76.7357H245.296V79.2643H250.304V76.7357Z" fill="#D8FB6B"/>
<path d="M245.248 71.7269H242.719V76.7357H245.248V71.7269Z" fill="#D8FB6B"/>
<path d="M245.248 69.1983V76.7357H250.255V74.207H247.727V71.6783H252.784V69.1496H245.248V69.1983Z" fill="#231E2B"/>
<path d="M255.312 66.7182H252.784V69.2469H255.312V66.7182Z" fill="#231E2B"/>
<path d="M252.784 66.7182H245.248V69.2469H252.784V66.7182Z" fill="#758F21"/>
<path d="M240.24 66.7182H232.704V69.2469H240.24V66.7182Z" fill="#758F21"/>
<path d="M232.704 66.7182H230.176V69.2469H232.704V66.7182Z" fill="#231E2B"/>
<path d="M255.312 64.1895H252.784V66.7182H255.312V64.1895Z" fill="#758F21"/>
<path d="M242.768 64.1895H235.232V66.7182H242.768V64.1895Z" fill="#D8FB6B"/>
<path d="M232.704 64.1895H230.176V66.7182H232.704V64.1895Z" fill="#758F21"/>
<path d="M230.224 59.1808H227.696V66.7182H230.224V59.1808Z" fill="#231E2B"/>
<path d="M250.304 61.6609H235.232V64.1895H250.304V61.6609Z" fill="#231E2B"/>
<path d="M257.792 59.1808H255.263V66.7182H257.792V59.1808Z" fill="#231E2B"/>
<path d="M255.312 59.1808H252.784V61.7095H255.312V59.1808Z" fill="#D8FB6B"/>
<path d="M250.304 64.1895H242.768V66.7182H240.24V86.8017H242.768V84.2731H247.776V81.7444H245.248V76.7357H242.719V71.7269H245.248V66.7182H252.784V64.1895H255.312V61.6609H252.784V59.1322H250.255V64.1895H250.304Z" fill="#B5DC3A"/>
<path d="M250.304 59.1808H235.232V61.7095H250.304V59.1808Z" fill="#758F21"/>
<path d="M230.224 59.1808V64.1895H232.752V66.7182H235.281V59.1808H245.296V56.6521H232.752V59.1808H230.224Z" fill="#B5DC3A"/>
<path d="M255.312 56.6521H252.784V59.1808H255.312V56.6521Z" fill="#231E2B"/>
<path d="M252.784 56.6521H245.248V59.1808H252.784V56.6521Z" fill="#D8FB6B"/>
<path d="M232.704 56.6521H230.176V59.1808H232.704V56.6521Z" fill="#231E2B"/>
<path d="M252.784 54.1721H232.704V56.7008H252.784V54.1721Z" fill="#231E2B"/>
<path d="M163.81 86.8017H158.802V89.3304H163.81V86.8017Z" fill="#231E2B"/>
<path d="M163.81 84.2731H161.282V86.8017H163.81V84.2731Z" fill="#E2B436"/>
<path d="M158.802 71.7269H156.274V86.8017H158.802V71.7269Z" fill="#231E2B"/>
<path d="M166.338 71.7269H163.81V86.8017H166.338V71.7269Z" fill="#231E2B"/>
<path d="M163.81 81.7444H161.282V84.2731H163.81V81.7444Z" fill="#CF8934"/>
<path d="M161.33 81.7444H158.802V86.7531H161.33V81.7444Z" fill="#F5F38E"/>
<path d="M161.33 79.2643H158.802V81.793H161.33V79.2643Z" fill="#CF8934"/>
<path d="M163.81 76.7357H161.282V81.7444H163.81V76.7357Z" fill="#E2B436"/>
<path d="M161.33 76.7357H158.802V79.2643H161.33V76.7357Z" fill="#F5F38E"/>
<path d="M163.81 74.207H161.282V76.7357H163.81V74.207Z" fill="#CF8934"/>
<path d="M161.33 74.207H158.802V76.7357H161.33V74.207Z" fill="#E2B436"/>
<path d="M163.81 71.7269H158.802V74.2556H163.81V71.7269Z" fill="#C2751D"/>
<path d="M168.818 69.1983H166.289V71.7269H168.818V69.1983Z" fill="#231E2B"/>
<path d="M166.338 69.1983H156.322V71.7269H166.338V69.1983Z" fill="#CF8934"/>
<path d="M156.274 69.1983H153.745V71.7269H156.274V69.1983Z" fill="#231E2B"/>
<path d="M168.818 66.7182H166.289V69.2469H168.818V66.7182Z" fill="#CF8934"/>
<path d="M156.274 66.7182H153.745V69.2469H156.274V66.7182Z" fill="#CF8934"/>
<path d="M153.794 59.1808H151.266V69.1983H153.794V59.1808Z" fill="#231E2B"/>
<path d="M161.33 64.1895H156.322V66.7182H161.33V64.1895Z" fill="#CF8934"/>
<path d="M156.274 59.1808H153.745V66.7182H156.274V59.1808Z" fill="#E2B436"/>
<path d="M161.33 59.1808H156.322V64.1895H161.33V59.1808Z" fill="#231E2B"/>
<path d="M171.346 59.1808H168.818V69.1983H171.346V59.1808Z" fill="#231E2B"/>
<path d="M168.818 59.1808H166.289V61.7095H168.818V59.1808Z" fill="#F5F38E"/>
<path d="M161.33 59.1808V66.7182H156.322V69.2469H166.338V66.7182H168.866V61.7095H166.338V59.1808H161.33Z" fill="#E2B436"/>
<path d="M168.818 56.6521H166.289V59.1808H168.818V56.6521Z" fill="#231E2B"/>
<path d="M166.338 56.6521H161.33V59.1808H166.338V56.6521Z" fill="#F5F38E"/>
<path d="M161.33 56.6521H156.322V59.1808H161.33V56.6521Z" fill="#E2B436"/>
<path d="M156.274 56.6521H153.745V59.1808H156.274V56.6521Z" fill="#231E2B"/>
<path d="M166.338 54.1721H156.322V56.7008H166.338V54.1721Z" fill="#231E2B"/>
<path d="M70.9463 59.1808V64.1895V66.7182H75.8568V86.8017H78.3851V84.2731H83.3929V81.7444H80.8647V76.7357H78.3364V71.7269H80.8647V66.7182H88.4007V64.1895H90.9289V61.6609H88.4007V59.1322H85.8725H70.9463V59.1808Z" fill="#96E9EA"/>
<path d="M80.8647 86.8017H75.8568V89.3304H80.8647V86.8017Z" fill="#231E2B"/>
<path d="M80.8647 84.2731H78.3364V86.8017H80.8647V84.2731Z" fill="#29B8B8" fill-opacity="0.9624"/>
<path d="M75.8568 69.1983H68.3208V71.7269H73.3286V86.8017H75.8568V69.1983Z" fill="#231E2B"/>
<path d="M85.8725 81.7444H83.3443V84.2731H85.8725V81.7444Z" fill="#C8F5FF"/>
<path d="M85.8725 74.1097H80.8647V79.2643H85.8725V74.1097Z" fill="#C8F5FF"/>
<path d="M80.8647 71.7269H78.3364V76.7357H80.8647V71.7269Z" fill="#C8F5FF"/>
<path d="M88.4007 66.7182H80.8647V69.2469H88.4007V66.7182Z" fill="#29B8B8" fill-opacity="0.9624"/>
<path d="M75.8568 66.7182H68.3208V69.2469H75.8568V66.7182Z" fill="#29B8B8" fill-opacity="0.9624"/>
<path d="M90.8803 64.1895H88.3521V66.7182H90.8803V64.1895Z" fill="#29B8B8" fill-opacity="0.9624"/>
<path d="M68.3208 64.1895H65.7926V66.7182H68.3208V64.1895Z" fill="#29B8B8" fill-opacity="0.9624"/>
<path d="M82.4205 61.6609H74.301V64.1895H82.4205V61.6609Z" fill="#231E2B"/>
<path d="M90.8803 59.1808H88.3521V61.7095H90.8803V59.1808Z" fill="#C8F5FF"/>
<path d="M82.4205 59.1808H74.301V61.7095H82.4205V59.1808Z" fill="#29B8B8" fill-opacity="0.9624"/>
<path d="M65.7926 59.1808V64.1895H68.3208V66.7182H71.6756V59.1808H80.8647V56.6521H68.3208V59.1808H65.7926Z" fill="#96E9EA"/>
<path d="M88.4007 56.6521H80.8647V59.1808H88.4007V56.6521Z" fill="#C8F5FF"/>
<path d="M88.4007 54.1721H68.3208V56.7008H88.4007V54.1721Z" fill="#231E2B"/>
<path d="M68.3208 56.6521H65.7926V69.1983H68.3208V56.6521Z" fill="#231E2B"/>
<path d="M90.8803 56.6521H88.3521V69.1983H90.8803V56.6521Z" fill="#231E2B"/>
<path d="M85.8725 80.9663V79.2643H80.8647V81.7444H83.3443V84.2731H80.8647V86.8017H85.8725V85.0511V84.2731V80.9663Z" fill="#231E2B"/>
<path d="M86.5045 74.1097H85.8725H83.3443V71.7269H88.4007V69.1983H80.8647V71.1434V71.7269V74.1097V74.7905V76.6384H85.8725V79.2643H88.4007V74.1097H86.5045Z" fill="#231E2B"/>
<path d="M126.47 166.601H44.7887V181.19H126.47V166.601Z" fill="#934200"/>
<path d="M88.5466 149.095H68.1263V175.354H88.5466V149.095Z" fill="#96E9EA"/>
<path d="M65.2091 152.012H38.9544V163.683H65.2091V152.012Z" fill="#E77F01"/>
<path d="M59.3748 149.095H47.7059V166.601H59.3748V149.095Z" fill="#686777"/>
<path d="M47.7059 143.259V154.93V160.766H50.6232V157.848H53.5404V160.766H56.4576V154.93H59.3748V143.259H47.7059Z" fill="#B2B4BC"/>
<path d="M59.3748 124.1H47.7059V143.259H59.3748V124.1Z" fill="#EEEEF0"/>
<path d="M53.5404 141.801H50.6232V147.636H53.5404V141.801Z" fill="#EEEEF0"/>
<path d="M59.3748 141.801H56.4576V147.636H59.3748V141.801Z" fill="#EEEEF0"/>
<path d="M56.4576 138.883H53.5404V144.718H56.4576V138.883Z" fill="#EEEEF0"/>
<path d="M59.3748 114.082H47.7059V125.753H50.6232V131.589H53.5404V128.671H56.4576V131.589H59.3748V125.753V114.082Z" fill="#B2B4BC"/>
<path d="M56.4576 114.082H50.6232V117H56.4576V114.082Z" fill="#6A6674"/>
<path d="M59.3748 117H53.5404V119.918H59.3748V117Z" fill="#6A6674"/>
<path d="M50.6232 117H47.7059V119.918H50.6232V117Z" fill="#6A6674"/>
<path d="M108.967 149.095H97.2981V166.601H108.967V149.095Z" fill="#686777"/>
<path d="M97.2981 143.259V154.93V160.766H100.215V157.848H103.132V160.766H106.05V154.93H108.967V143.259H97.2981Z" fill="#B2B4BC"/>
<path d="M108.967 124.1H97.2981V143.259H108.967V124.1Z" fill="#EEEEF0"/>
<path d="M103.132 141.801H100.215V147.636H103.132V141.801Z" fill="#EEEEF0"/>
<path d="M108.967 141.801H106.05V147.636H108.967V141.801Z" fill="#EEEEF0"/>
<path d="M106.05 138.883H103.132V144.718H106.05V138.883Z" fill="#EEEEF0"/>
<path d="M97.2981 114.082V125.753H100.215V131.589H103.132V128.671H106.05V131.589H108.967V125.753V124.294V114.082H97.2981Z" fill="#B2B4BC"/>
<path d="M106.05 114.082H100.215V117H106.05V114.082Z" fill="#6A6674"/>
<path d="M108.967 117H103.132V119.918H108.967V117Z" fill="#6A6674"/>
<path d="M100.215 117H97.2981V119.918H100.215V117Z" fill="#6A6674"/>
<path d="M170.228 149.095H149.807V175.354H170.228V149.095Z" fill="#E2B436"/>
<path d="M205.282 152.012H173.145V163.683H205.282V152.012Z" fill="#E77F01"/>
<path d="M251.957 149.095H231.537V175.354H251.957V149.095Z" fill="#B5DC3A"/>
<path d="M281.129 119.918H205.282V149.095H281.129V119.918Z" fill="#E49901"/>
<path d="M228.62 152.012H202.365V163.683H228.62V152.012Z" fill="#E77F01"/>
<path d="M281.129 152.012H254.874V163.683H281.129V152.012Z" fill="#E77F01"/>
<path d="M38.9544 143.259H36.0372V149.095H38.9544V143.259Z" fill="#B2B4BC"/>
<path d="M38.9544 137.424H36.0372V140.342H38.9544V137.424Z" fill="#B2B4BC"/>
<path d="M38.9544 140.342H36.0372V143.259H38.9544V140.342Z" fill="#EEEEF0"/>
<path d="M94.3809 131.589H62.292V134.506H94.3809V131.589Z" fill="#AC5603"/>
<path d="M82.7122 143.259H73.9607V146.177H82.7122V143.259Z" fill="#C8F5FF"/>
<path d="M85.6294 146.177H82.7122V152.012H85.6294V146.177Z" fill="#C8F5FF"/>
<path d="M88.5466 157.848H85.6294V172.436H88.5466V157.848Z" fill="#31B9B6"/>
<path d="M73.9607 146.177H71.0435V152.012H73.9607V146.177Z" fill="#C8F5FF"/>
<path d="M85.6294 169.519H82.7122V172.436H85.6294V169.519Z" fill="#31B9B6"/>
<path d="M79.795 166.601H76.8778V169.519H79.795V166.601Z" fill="#C8F5FF"/>
<path d="M41.8716 157.848H38.9544V163.683H41.8716V157.848Z" fill="#E49802"/>
<path d="M85.6294 172.436H76.8778V175.354H85.6294V172.436Z" fill="#31B9B6"/>
<path d="M44.7887 125.753H41.8716V131.589H44.7887V125.753Z" fill="#F4CC7A"/>
<path d="M114.801 125.753H111.884V131.589H114.801V125.753Z" fill="#F4CC7A"/>
<path d="M44.7887 134.506H41.8716V137.424H44.7887V134.506Z" fill="#F4CC7A"/>
<path d="M114.801 134.506H111.884V137.424H114.801V134.506Z" fill="#F4CC7A"/>
<path d="M117.718 125.607H114.801V128.525H117.718V125.607Z" fill="#F4CC7A"/>
<path d="M65.2091 154.93H62.292V157.848H65.2091V154.93Z" fill="#AC5603"/>
<path d="M44.7887 154.93H41.8716V157.848H44.7887V154.93Z" fill="#AC5603"/>
<path d="M65.2091 160.766H62.292V163.683H65.2091V160.766Z" fill="#AC5603"/>
<path d="M44.7887 160.766H41.8716V163.683H44.7887V160.766Z" fill="#AC5603"/>
<path d="M94.3809 154.93H91.4637V157.848H94.3809V154.93Z" fill="#AC5603"/>
<path d="M141.056 149.095H129.387V166.601H141.056V149.095Z" fill="#686777"/>
<path d="M129.387 143.259V154.103V154.93V160.766H132.936V157.848H135.221V160.766H138.139V154.93H141.056V143.259H129.387Z" fill="#B2B4BC"/>
<path d="M141.056 124.1H129.387V143.259H141.056V124.1Z" fill="#EEEEF0"/>
<path d="M135.221 141.801H132.304V147.636H135.221V141.801Z" fill="#EEEEF0"/>
<path d="M141.056 141.801H138.139V147.636H141.056V141.801Z" fill="#EEEEF0"/>
<path d="M138.139 138.883H135.221V144.718H138.139V138.883Z" fill="#EEEEF0"/>
<path d="M129.387 114.082V125.753H132.304V131.589H135.221V128.671H138.139V131.589H141.056V125.753V124.294V114.082H129.387Z" fill="#B2B4BC"/>
<path d="M138.139 114.082H132.304V117H138.139V114.082Z" fill="#6A6674"/>
<path d="M141.056 117H135.221V119.918H141.056V117Z" fill="#6A6674"/>
<path d="M132.304 117H129.387V119.918H132.304V117Z" fill="#6A6674"/>
<path d="M190.648 149.095H178.979V166.601H190.648V149.095Z" fill="#686777"/>
<path d="M190.648 143.259H178.979V154.93V160.766H181.896V157.848H184.23V160.766H187.731V154.93H190.648V143.259Z" fill="#B2B4BC"/>
<path d="M190.648 124.1H178.979V143.259H190.648V124.1Z" fill="#EEEEF0"/>
<path d="M184.813 141.801H181.896V147.636H184.813V141.801Z" fill="#EEEEF0"/>
<path d="M190.648 141.801H187.731V147.636H190.648V141.801Z" fill="#EEEEF0"/>
<path d="M187.731 138.883H184.813V144.718H187.731V138.883Z" fill="#EEEEF0"/>
<path d="M178.979 114.082V125.753H181.896V131.589H184.813V128.671H187.731V131.589H190.648V125.753V124.294V114.082H178.979Z" fill="#B2B4BC"/>
<path d="M187.731 114.082H181.896V117H187.731V114.082Z" fill="#6A6674"/>
<path d="M190.648 117H184.813V119.918H190.648V117Z" fill="#6A6674"/>
<path d="M181.896 117H178.979V119.918H181.896V117Z" fill="#6A6674"/>
<path d="M94.3809 160.766H91.4637V163.683H94.3809V160.766Z" fill="#AC5603"/>
<path d="M88.5466 128.671H62.292V131.589H88.5466V128.671Z" fill="#F4CC7A"/>
<path d="M82.7122 125.753H62.292V128.671H82.7122V125.753Z" fill="#F4CC7A"/>
<path d="M79.795 134.506H62.292V137.424H79.795V134.506Z" fill="#F4CC7A"/>
<path d="M176.062 131.589H143.973V134.506H176.062V131.589Z" fill="#AC5603"/>
<path d="M164.393 143.259H155.642V146.177H164.393V143.259Z" fill="#F5F38E"/>
<path d="M167.31 146.177H164.393V152.012H167.31V146.177Z" fill="#F5F38E"/>
<path d="M170.228 157.848H167.31V172.436H170.228V157.848Z" fill="#C2751D"/>
<path d="M155.642 146.177H152.724V152.012H155.642V146.177Z" fill="#F5F38E"/>
<path d="M167.31 169.519H164.393V172.436H167.31V169.519Z" fill="#C2751D"/>
<path d="M161.476 166.601H158.559V169.519H161.476V166.601Z" fill="#F5F38E"/>
<path d="M167.31 172.436H158.559V175.354H167.31V172.436Z" fill="#C2751D"/>
<path d="M222.785 149.095H211.117V166.601H222.785V149.095Z" fill="#686777"/>
<path d="M211.117 143.259V154.93V160.766H214.034V157.848H216.951V160.766H219.868V154.93H222.785V143.259H211.117Z" fill="#B2B4BC"/>
<path d="M222.785 124.1H211.117V143.259H222.785V124.1Z" fill="#EEEEF0"/>
<path d="M216.951 141.801H214.034V147.636H216.951V141.801Z" fill="#EEEEF0"/>
<path d="M222.785 141.801H219.868V147.636H222.785V141.801Z" fill="#EEEEF0"/>
<path d="M219.868 138.883H216.951V144.718H219.868V138.883Z" fill="#EEEEF0"/>
<path d="M211.117 114.082V125.753H214.034V131.589H216.951V128.671H219.868V131.589H222.785V125.753V124.294V114.082H211.117Z" fill="#B2B4BC"/>
<path d="M219.868 114.082H214.034V117H219.868V114.082Z" fill="#6A6674"/>
<path d="M222.785 117H216.951V119.918H222.785V117Z" fill="#6A6674"/>
<path d="M214.034 117H211.117V119.918H214.034V117Z" fill="#6A6674"/>
<path d="M199.448 125.607H195.024V125.753H193.565V131.589H196.482V128.525H199.448V125.607Z" fill="#F4CC7A"/>
<path d="M272.377 149.095H260.709V166.601H272.377V149.095Z" fill="#686777"/>
<path d="M260.709 143.259V154.93V160.766H263.626V157.848H266.543V160.766H269.46V154.93H272.377V143.259H260.709Z" fill="#B2B4BC"/>
<path d="M272.377 124.1H260.709V143.259H272.377V124.1Z" fill="#EEEEF0"/>
<path d="M266.543 141.801H263.626V147.636H266.543V141.801Z" fill="#EEEEF0"/>
<path d="M272.377 141.801H269.46V147.636H272.377V141.801Z" fill="#EEEEF0"/>
<path d="M269.46 138.883H266.543V144.718H269.46V138.883Z" fill="#EEEEF0"/>
<path d="M260.709 114.082V125.753H263.626V131.589H266.543V128.671H269.46V131.589H272.377V125.753V124.294V114.082H260.709Z" fill="#B2B4BC"/>
<path d="M269.46 114.082H263.626V117H269.46V114.082Z" fill="#6A6674"/>
<path d="M272.377 117H266.543V119.918H272.377V117Z" fill="#6A6674"/>
<path d="M263.626 117H260.709V119.918H263.626V117Z" fill="#6A6674"/>
<path d="M196.482 134.506H193.565V137.424H196.482V134.506Z" fill="#F4CC7A"/>
<path d="M146.89 154.93H143.973V157.848H146.89V154.93Z" fill="#AC5603"/>
<path d="M146.89 160.766H143.973V163.683H146.89V160.766Z" fill="#AC5603"/>
<path d="M196.482 154.93H193.565V157.848H196.482V154.93Z" fill="#AC5603"/>
<path d="M176.062 154.93H173.145V157.848H176.062V154.93Z" fill="#AC5603"/>
<path d="M196.482 160.766H193.565V163.683H196.482V160.766Z" fill="#AC5603"/>
<path d="M176.062 160.766H173.145V163.683H176.062V160.766Z" fill="#AC5603"/>
<path d="M170.228 128.671H143.973V131.589H170.228V128.671Z" fill="#F4CC7A"/>
<path d="M164.393 125.753H143.973V128.671H164.393V125.753Z" fill="#F4CC7A"/>
<path d="M161.476 134.506H143.973V137.424H161.476V134.506Z" fill="#F4CC7A"/>
<path d="M257.792 131.589H225.703V134.506H257.792V131.589Z" fill="#AC5603"/>
<path d="M246.123 143.259H237.371V146.177H246.123V143.259Z" fill="#D8FB6B"/>
<path d="M249.04 146.177H246.123V152.012H249.04V146.177Z" fill="#D8FB6B"/>
<path d="M251.957 157.848H249.04V172.436H251.957V157.848Z" fill="#758F21"/>
<path d="M237.371 146.177H234.454V152.012H237.371V146.177Z" fill="#D8FB6B"/>
<path d="M249.04 169.519H246.123V172.436H249.04V169.519Z" fill="#758F21"/>
<path d="M243.206 166.601H240.288V169.519H243.206V166.601Z" fill="#D8FB6B"/>
<path d="M126.47 125.753H123.553V131.589H126.47V125.753Z" fill="#F4CC7A"/>
<path d="M249.04 172.436H240.288V175.354H249.04V172.436Z" fill="#758F21"/>
<path d="M126.47 134.506H123.553V137.424H126.47V134.506Z" fill="#F4CC7A"/>
<path d="M208.199 125.753H205.282V131.589H208.199V125.753Z" fill="#F4CC7A"/>
<path d="M278.212 125.753H275.295V131.589H278.212V125.753Z" fill="#F4CC7A"/>
<path d="M208.199 134.506H205.282V137.424H208.199V134.506Z" fill="#F4CC7A"/>
<path d="M278.212 134.506H275.295V137.424H278.212V134.506Z" fill="#F4CC7A"/>
<path d="M228.62 154.93H225.703V157.848H228.62V154.93Z" fill="#AC5603"/>
<path d="M228.62 160.766H225.703V163.683H228.62V160.766Z" fill="#AC5603"/>
<path d="M123.553 154.93H122.045H111.884V157.848H122.045H123.553H126.47V154.93H123.553Z" fill="#AC5603"/>
<path d="M122.045 160.766H111.884V163.683H122.045H123.553H126.47V160.766H123.553H122.045Z" fill="#AC5603"/>
<path d="M278.212 154.93H275.295V157.848H278.212V154.93Z" fill="#AC5603"/>
<path d="M257.792 154.93H254.874V157.848H257.792V154.93Z" fill="#AC5603"/>
<path d="M278.212 160.766H275.295V163.683H278.212V160.766Z" fill="#AC5603"/>
<path d="M257.792 160.766H254.874V163.683H257.792V160.766Z" fill="#AC5603"/>
<path d="M251.957 128.671H225.703V131.589H251.957V128.671Z" fill="#F4CC7A"/>
<path d="M246.123 125.753H225.703V128.671H246.123V125.753Z" fill="#F4CC7A"/>
<path d="M243.206 134.506H225.703V137.424H243.206V134.506Z" fill="#F4CC7A"/>
<path d="M284.046 143.259H281.129V149.095H284.046V143.259Z" fill="#B2B4BC"/>
<path d="M284.046 137.424H281.129V140.342H284.046V137.424Z" fill="#B2B4BC"/>
<path d="M284.046 140.342H281.129V143.259H284.046V140.342Z" fill="#EEEEF0"/>
<path d="M281.129 157.848H278.212V163.683H281.129V157.848Z" fill="#E49802"/>
<path d="M59.3748 166.601H43.3302V169.519H59.3748V166.601Z" fill="#231E2B"/>
<path d="M47.7059 163.683H36.0372V166.601H47.7059V163.683Z" fill="#231E2B"/>
<path d="M41.8716 134.506H36.0372V137.424H41.8716V134.506Z" fill="#231E2B"/>
<path d="M47.7059 117H41.8716V119.918H47.7059V117Z" fill="#231E2B"/>
<path d="M47.7059 122.835H41.8716V125.753H47.7059V122.835Z" fill="#AC5603"/>
<path d="M47.7059 131.589H41.8716V134.506H47.7059V131.589Z" fill="#AC5603"/>
<path d="M126.47 131.589H108.967V134.506H126.47V131.589Z" fill="#AC5603"/>
<path d="M50.6232 114.082H44.7887V117H50.6232V114.082Z" fill="#231E2B"/>
<path d="M56.4576 111.165H50.6232V114.082H56.4576V111.165Z" fill="#231E2B"/>
<path d="M62.292 114.082H56.4576V117H62.292V114.082Z" fill="#231E2B"/>
<path d="M100.215 114.082H94.3809V117H100.215V114.082Z" fill="#231E2B"/>
<path d="M106.05 111.165H100.215V114.082H106.05V111.165Z" fill="#231E2B"/>
<path d="M111.884 114.082H106.05V117H111.884V114.082Z" fill="#231E2B"/>
<path d="M126.47 122.835H108.967V125.753H126.47V122.835Z" fill="#AC5603"/>
<path d="M97.2981 117H59.3748V119.918H97.2981V117Z" fill="#231E2B"/>
<path d="M97.2981 122.835H59.3748V125.753H97.2981V122.835Z" fill="#AC5603"/>
<path d="M97.2981 163.683H88.5466V166.601H97.2981V163.683Z" fill="#231E2B"/>
<path d="M126.47 149.095H108.967V152.012H126.47V149.095Z" fill="#231E2B"/>
<path d="M85.6294 175.354H71.0435V178.272H85.6294V175.354Z" fill="#231E2B"/>
<path d="M71.0435 172.436H68.1263V175.354H71.0435V172.436Z" fill="#231E2B"/>
<path d="M88.5466 172.436H85.6294V175.354H88.5466V172.436Z" fill="#231E2B"/>
<path d="M71.0435 146.177H68.1263V149.095H71.0435V146.177Z" fill="#231E2B"/>
<path d="M73.9607 152.012H71.0435V154.93H73.9607V152.012Z" fill="#231E2B"/>
<path d="M85.6294 152.012H82.7122V154.93H85.6294V152.012Z" fill="#231E2B"/>
<path d="M79.795 157.848H76.8778V166.601H79.795V157.848Z" fill="#231E2B"/>
<path d="M88.5466 146.177H85.6294V149.095H88.5466V146.177Z" fill="#231E2B"/>
<path d="M68.1263 163.683H59.3748V166.601H68.1263V163.683Z" fill="#231E2B"/>
<path d="M82.7122 146.177H73.9607V149.095H82.7122V146.177Z" fill="#231E2B"/>
<path d="M97.2981 149.095H88.5466V150.554V152.012V172.436H91.4637V152.012H97.2981V149.095Z" fill="#231E2B"/>
<path d="M38.9544 157.848H36.0372V166.601H38.9544V157.848Z" fill="#231E2B"/>
<path d="M36.0372 137.424H33.12V149.095H36.0372V137.424Z" fill="#231E2B"/>
<path d="M284.046 163.683H272.377V166.601H284.046V163.683Z" fill="#231E2B"/>
<path d="M284.046 149.095H272.377V152.012H284.046V149.095Z" fill="#231E2B"/>
<path d="M284.046 134.506H278.212V137.424H284.046V134.506Z" fill="#231E2B"/>
<path d="M284.046 157.848H281.129V166.601H284.046V157.848Z" fill="#231E2B"/>
<path d="M286.963 137.424H284.046V149.095H286.963V137.424Z" fill="#231E2B"/>
<path d="M47.7059 149.095H36.0372V152.012H47.7059V149.095Z" fill="#231E2B"/>
<path d="M59.3748 149.095V152.012H65.2091V172.436H68.1263V152.012V150.554V149.095H59.3748Z" fill="#231E2B"/>
<path d="M41.8716 119.918H38.9544V157.848H41.8716V119.918Z" fill="#231E2B"/>
<path d="M141.056 166.601H126.47V169.519H141.056V166.601Z" fill="#231E2B"/>
<path d="M123.553 117H121.9H108.967V119.918H121.9H123.553H129.387V117H123.553Z" fill="#231E2B"/>
<path d="M208.199 131.589H190.648V134.506H208.199V131.589Z" fill="#AC5603"/>
<path d="M132.304 114.082H126.47V117H132.304V114.082Z" fill="#231E2B"/>
<path d="M138.139 111.165H132.304V114.082H138.139V111.165Z" fill="#231E2B"/>
<path d="M143.973 114.082H138.139V117H143.973V114.082Z" fill="#231E2B"/>
<path d="M181.896 114.082H176.062V117H181.896V114.082Z" fill="#231E2B"/>
<path d="M187.731 111.165H181.896V114.082H187.731V111.165Z" fill="#231E2B"/>
<path d="M193.565 114.082H187.731V117H193.565V114.082Z" fill="#231E2B"/>
<path d="M211.068 117H190.648V119.918H211.068V117Z" fill="#231E2B"/>
<path d="M211.068 122.835H190.648V125.753H211.068V122.835Z" fill="#AC5603"/>
<path d="M178.979 117H141.056V119.918H178.979V117Z" fill="#231E2B"/>
<path d="M178.979 122.835H141.056V125.753H178.979V122.835Z" fill="#AC5603"/>
<path d="M178.979 163.683H170.228V166.601H178.979V163.683Z" fill="#231E2B"/>
<path d="M208.199 149.095H190.648V152.012H208.199V149.095Z" fill="#231E2B"/>
<path d="M167.31 175.354H152.724V178.272H167.31V175.354Z" fill="#231E2B"/>
<path d="M152.724 172.436H149.807V175.354H152.724V172.436Z" fill="#231E2B"/>
<path d="M170.228 172.436H167.31V175.354H170.228V172.436Z" fill="#231E2B"/>
<path d="M152.724 146.177H149.807V149.095H152.724V146.177Z" fill="#231E2B"/>
<path d="M155.642 152.012H152.724V154.93H155.642V152.012Z" fill="#231E2B"/>
<path d="M167.31 152.012H164.393V154.93H167.31V152.012Z" fill="#231E2B"/>
<path d="M161.476 157.848H158.559V166.601H161.476V157.848Z" fill="#231E2B"/>
<path d="M170.228 146.177H167.31V149.095H170.228V146.177Z" fill="#231E2B"/>
<path d="M149.807 163.683H141.056V166.601H149.807V163.683Z" fill="#231E2B"/>
<path d="M164.393 146.177H155.642V149.095H164.393V146.177Z" fill="#231E2B"/>
<path d="M141.056 152.012H146.89V172.436H149.807V152.012V150.554V149.095H141.056V152.012Z" fill="#231E2B"/>
<path d="M178.979 149.095H170.228V150.554V152.012V172.436H173.145V152.012H178.979V149.095Z" fill="#231E2B"/>
<path d="M222.785 166.601H208.199V169.519H222.785V166.601Z" fill="#231E2B"/>
<path d="M193.565 166.601H178.833V169.519H193.565V166.601Z" fill="#231E2B"/>
<path d="M211.117 163.683H197.989H190.648V166.601H199.448H211.117V163.683Z" fill="#231E2B"/>
<path d="M281.129 131.589H272.377V134.506H281.129V131.589Z" fill="#AC5603"/>
<path d="M214.034 114.082H208.199V117H214.034V114.082Z" fill="#231E2B"/>
<path d="M219.868 111.165H214.034V114.082H219.868V111.165Z" fill="#231E2B"/>
<path d="M225.703 114.082H219.868V117H225.703V114.082Z" fill="#231E2B"/>
<path d="M263.626 114.082H257.792V117H263.626V114.082Z" fill="#231E2B"/>
<path d="M269.46 111.165H263.626V114.082H269.46V111.165Z" fill="#231E2B"/>
<path d="M275.295 114.082H269.46V117H275.295V114.082Z" fill="#231E2B"/>
<path d="M278.212 117H272.377V119.918H278.212V117Z" fill="#231E2B"/>
<path d="M281.129 122.835H272.377V125.753H281.129V122.835Z" fill="#AC5603"/>
<path d="M260.709 117H222.785V119.918H260.709V117Z" fill="#231E2B"/>
<path d="M260.709 122.835H222.785V125.753H260.709V122.835Z" fill="#AC5603"/>
<path d="M260.709 163.683H251.957V166.601H260.709V163.683Z" fill="#231E2B"/>
<path d="M281.129 149.095H272.377V152.012H281.129V149.095Z" fill="#231E2B"/>
<path d="M281.129 163.683H272.377V166.601H281.129V163.683Z" fill="#231E2B"/>
<path d="M249.04 175.354H234.454V178.272H249.04V175.354Z" fill="#231E2B"/>
<path d="M234.454 172.436H231.537V175.354H234.454V172.436Z" fill="#231E2B"/>
<path d="M251.957 172.436H249.04V175.354H251.957V172.436Z" fill="#231E2B"/>
<path d="M234.454 146.177H231.537V149.095H234.454V146.177Z" fill="#231E2B"/>
<path d="M237.371 152.012H234.454V154.93H237.371V152.012Z" fill="#231E2B"/>
<path d="M249.04 152.012H246.123V154.93H249.04V152.012Z" fill="#231E2B"/>
<path d="M243.206 157.848H240.288V166.601H243.206V157.848Z" fill="#231E2B"/>
<path d="M251.957 146.177H249.04V149.095H251.957V146.177Z" fill="#231E2B"/>
<path d="M231.537 163.683H222.785V166.601H231.537V163.683Z" fill="#231E2B"/>
<path d="M246.123 146.177H237.371V149.095H246.123V146.177Z" fill="#231E2B"/>
<path d="M278.212 166.601H257.792V169.519H278.212V166.601Z" fill="#231E2B"/>
<path d="M222.785 152.012H228.62V172.436H231.537V152.012V150.554V149.095H222.785V152.012Z" fill="#231E2B"/>
<path d="M260.709 149.095H251.957V150.554V152.012V172.436H254.874V152.012H260.709V149.095Z" fill="#231E2B"/>
<path d="M278.212 181.19V166.601H275.295V181.19H260.709V165.823H257.792V181.19H225.703V165.823H222.785V181.19H178.979V166.601H176.062V181.19H143.973V166.601H141.056V181.19H97.2981V165.142H94.3809V181.19H62.292V166.601H59.3748V181.19H44.7888V166.017H41.8716V181.19H27.1399V184.107H292.603V181.19H278.212Z" fill="#231E2B"/>
<path d="M59.3748 169.519H44.7887V172.436H59.3748V169.519Z" fill="#693103"/>
<path d="M275.295 169.519H260.709V172.436H275.295V169.519Z" fill="#693103"/>
<path d="M123.407 169.519H97.2981V172.436H123.407V169.519Z" fill="#693103"/>
<path d="M53.5404 172.436H44.7887V175.354H53.5404V172.436Z" fill="#693103"/>
<path d="M208.151 166.65H193.565V169.519H178.979V172.436H205.088V170.832H208.151V166.65Z" fill="#693103"/>
<path d="M269.46 172.436H260.709V175.354H269.46V172.436Z" fill="#693103"/>
<path d="M65.2091 166.601H62.1461V172.436H65.2091V166.601Z" fill="#693103"/>
<path d="M94.5268 166.601H91.4637V169.519H94.5268V166.601Z" fill="#693103"/>
<path d="M68.2236 172.436H65.1605V175.354H68.2236V172.436Z" fill="#693103"/>
<path d="M147.036 166.601H143.973V172.436H147.036V166.601Z" fill="#693103"/>
<path d="M228.814 166.601H225.751V172.436H228.814V166.601Z" fill="#693103"/>
<path d="M176.062 166.601H172.999V169.519H176.062V166.601Z" fill="#693103"/>
<path d="M257.889 166.601H254.826V169.519H257.889V166.601Z" fill="#693103"/>
<path d="M150.05 172.436H146.987V175.354H150.05V172.436Z" fill="#693103"/>
<path d="M231.877 172.436H228.814V175.354H231.877V172.436Z" fill="#693103"/>
<path d="M47.7059 119.918H44.7887V163.683H47.7059V119.918Z" fill="#934200"/>
<path d="M62.292 119.918H59.3748V163.683H62.292V119.918Z" fill="#934200"/>
<path d="M97.2981 119.918H94.3809V163.683H97.2981V119.918Z" fill="#934200"/>
<path d="M111.884 119.918H108.967V163.683H111.884V119.918Z" fill="#934200"/>
<path d="M129.387 119.918H126.47V163.683H129.387V119.918Z" fill="#934200"/>
<path d="M143.973 119.918H141.056V163.683H143.973V119.918Z" fill="#934200"/>
<path d="M178.979 119.918H176.062V163.683H178.979V119.918Z" fill="#934200"/>
<path d="M193.565 119.918H190.648V163.683H193.565V119.918Z" fill="#934200"/>
<path d="M211.117 119.918H208.199V163.683H211.117V119.918Z" fill="#934200"/>
<path d="M225.703 119.918H222.785V163.683H225.703V119.918Z" fill="#934200"/>
<path d="M260.709 119.918H257.792V163.683H260.709V119.918Z" fill="#934200"/>
<path d="M275.295 119.918H272.377V163.683H275.295V119.918Z" fill="#934200"/>
<path d="M281.129 119.918H278.212V157.848H281.129V119.918Z" fill="#231E2B"/>
<path d="M60.5417 52.8105H57.9162V55.4364H60.5417V52.8105Z" fill="#231E2B"/>
<path d="M99.5346 67.8367H96.9091V70.4626H99.5346V67.8367Z" fill="#231E2B"/>
<path d="M96.8605 70.4626H94.2351V73.0885H96.8605V70.4626Z" fill="#231E2B"/>
<path d="M262.119 46.7319H259.493V49.3579H262.119V46.7319Z" fill="#231E2B"/>
<path d="M180.875 88.5037H178.59V90.7893H180.875V88.5037Z" fill="#231E2B"/>
<path d="M183.16 86.2182H180.875V88.5037H183.16V86.2182Z" fill="#231E2B"/>
<path d="M180.875 86.2182H178.59V88.5037H180.875V86.2182Z" fill="#E2B436"/>
<path d="M178.59 86.2182H176.305V88.5037H178.59V86.2182Z" fill="#231E2B"/>
<path d="M185.494 83.9327H183.209V86.2182H185.494V83.9327Z" fill="#231E2B"/>
<path d="M183.16 83.9327H180.875V86.2182H183.16V83.9327Z" fill="#E2B436"/>
<path d="M178.59 83.9327H176.305V86.2182H178.59V83.9327Z" fill="#E2B436"/>
<path d="M176.305 83.9327H174.02V86.2182H176.305V83.9327Z" fill="#231E2B"/>
<path d="M183.16 81.6471H180.875V83.9327H183.16V81.6471Z" fill="#231E2B"/>
<path d="M180.875 81.6471H178.59V83.9327H180.875V81.6471Z" fill="#E2B436"/>
<path d="M180.875 83.9327H178.59V86.2182H180.875V83.9327Z" fill="#F5F38E"/>
<path d="M178.59 81.6471H176.305V83.9327H178.59V81.6471Z" fill="#231E2B"/>
<path d="M180.875 79.3616H178.59V81.6471H180.875V79.3616Z" fill="#231E2B"/>
<path d="M172.27 91.4701H170.519V96.7219H172.27V91.4701Z" fill="#231E2B"/>
<path d="M168.769 93.2207V94.9713H174.02V93.2207H168.769Z" fill="#231E2B"/>
<path d="M268.682 55.485H266.64V61.5636H268.682V55.485Z" fill="#231E2B"/>
<path d="M264.598 57.4788V59.5212H270.676V57.4788H264.598Z" fill="#231E2B"/>
<path d="M111.738 166.601H97.1522V169.519H111.738V166.601Z" fill="#231E2B"/>
<path d="M126.47 166.017H111.738V169.519H126.47V166.017Z" fill="#693103"/>
<path d="M117.718 163.683H116.26H108.967V166.601H116.26H117.718H129.387V163.683H117.718Z" fill="#231E2B"/>
</svg>
