<svg width="317" height="195" viewBox="0 0 317 195" fill="none" xmlns="http://www.w3.org/2000/svg">
<g clip-path="url(#clip0_311_12940)">
<mask id="mask0_311_12940" style="mask-type:luminance" maskUnits="userSpaceOnUse" x="0" y="0" width="317" height="195">
<path d="M317 0H0V195H317V0Z" fill="white"/>
</mask>
<g mask="url(#mask0_311_12940)">
<path d="M55.7172 50.059C55.7172 49.8138 55.9625 49.8138 55.9625 50.059L61.6051 93.9584C61.728 94.4488 62.0962 94.9393 62.5868 95.0621H102.823C103.437 95.0621 104.05 94.5717 104.05 93.9584V6.8952C104.05 6.15947 103.437 5.66895 102.823 5.66895H62.9545C62.3415 5.66895 61.8509 6.15947 61.8509 6.8952V49.691C61.8509 49.9362 61.6051 49.9362 61.6051 49.691L56.0849 6.7726C55.9625 6.03681 55.4718 5.66895 54.7354 5.66895H14.6216C14.0082 5.66895 13.5176 6.15947 13.5176 6.8952V93.9584C13.5176 94.5717 14.0082 95.0621 14.6216 95.0621H54.4901C55.1036 95.0621 55.7172 94.5717 55.7172 93.9584V50.059ZM115.135 5.66895C114.399 5.66895 113.908 6.03681 113.908 6.8952V93.8361C113.908 94.5717 114.399 95.0621 115.135 95.0621H155.617C156.353 95.0621 156.844 94.5717 156.844 93.8361V67.5944H188.002C188.616 67.5944 189.229 67.104 189.229 66.4907V43.0694C189.229 42.4563 188.616 41.9658 188.002 41.9658H156.844V33.0142H202.969C203.582 33.0142 204.072 32.5237 204.072 31.7879V6.8952C204.072 6.28207 203.582 5.66895 202.969 5.66895H115.135ZM211.286 5.66895C210.673 5.66895 210.182 6.15947 210.182 6.7726V49.8138C210.182 50.4266 210.673 50.9175 211.286 50.9175H233.613V93.9584C233.613 94.5717 234.103 95.0621 234.717 95.0621H274.585C275.199 95.0621 275.812 94.5717 275.812 93.9584V50.9175H298.138C298.752 50.9175 299.242 50.4266 299.242 49.8138V6.7726C299.242 6.15947 298.752 5.66895 298.138 5.66895H211.286Z" fill="#8CD9DA"/>
<path d="M108.192 62.126C111.271 62.126 114.276 62.126 117.501 62.126V67.2545C116.621 67.2545 116.181 67.2545 115.449 67.2545C115.449 66.2288 115.449 64.3236 115.449 64.3236C114.129 64.3236 110.245 64.3236 108.119 64.3236C108.192 63.5909 108.192 62.8582 108.192 62.126Z" fill="black"/>
<path d="M100.863 45.2744C101.449 45.2744 102.109 45.2744 103.062 45.2744C103.062 45.2744 103.062 49.2308 103.062 51.2091C103.062 53.1138 103.062 55.092 103.062 56.9967C102.402 56.9967 101.669 56.9967 100.863 56.9967C100.863 52.967 100.863 49.1577 100.863 45.2744Z" fill="black"/>
<path d="M80.8945 45.275V71.6504H83.2457V45.275H80.8945Z" fill="black"/>
<path d="M92.1111 52.7598H77.7324V56.9936H92.1111V52.7598Z" fill="black"/>
<path d="M115.523 67.2549C115.523 67.914 115.523 68.6467 115.523 69.4525C114.424 69.4525 113.471 69.4525 112.592 69.4525C112.592 68.7934 112.592 68.1338 112.592 67.2549C113.691 67.2549 114.644 67.2549 115.523 67.2549Z" fill="black"/>
<path d="M105.533 66.9385C105.533 67.5756 105.533 68.304 105.533 69.3058C104.129 69.3058 102.647 69.3058 101.01 69.3058C101.01 68.6681 101.01 67.8486 101.01 66.9385C102.569 66.9385 104.051 66.9385 105.533 66.9385Z" fill="black"/>
<path d="M109.751 72.2539C109.751 72.8911 109.751 73.6194 109.751 74.6207C108.347 74.6207 106.866 74.6207 105.229 74.6207C105.229 73.9836 105.229 73.1641 105.229 72.2539C106.788 72.2539 108.27 72.2539 109.751 72.2539Z" fill="black"/>
<path d="M112.811 69.4531C112.811 70.2073 112.811 71.0692 112.811 72.2543C111.862 72.2543 110.86 72.2543 109.752 72.2543C109.752 71.5001 109.752 70.5305 109.752 69.4531C110.807 69.4531 111.809 69.4531 112.811 69.4531Z" fill="black"/>
<path d="M90.0953 172.979H72.377V179.539H90.0953V172.979Z" fill="#0D0A03"/>
<path d="M136.687 171.667H118.312V179.539H136.687V171.667Z" fill="#0D0A03"/>
<path fill-rule="evenodd" clip-rule="evenodd" d="M78.4819 92.7529H66.2164V97.1667H60.329V107.466H82.4068V97.1667H78.4819V92.7529ZM49.0453 107.466H88.2942V123.65H86.8224V138.362H80.935V147.19H42.6672V138.362H44.139V129.535H46.1014V124.63H41.1953V120.707H44.139V117.765H48.0639V120.707H48.5545V123.159H49.0453V107.466ZM49.0453 147.19H64.7446V153.075H61.8008V158.96H52.9702V153.075H49.0453V147.19Z" fill="#824419"/>
<path fill-rule="evenodd" clip-rule="evenodd" d="M108.901 91.282H88.295V133.949H85.3513V141.305H79.4639V150.133H70.6328V156.018H73.0858V169.259H80.4451V156.999H80.9357V174.163H89.7669V161.903H108.901V158.96H117.732V156.018H119.625V167.731H126.844V156.018H128.157V172.979H136.688V161.903H141.281V153.075H144.225V138.362H147.168V123.65H144.225V117.765H141.281V114.822H138.338V111.88H132.45V108.937H129.506V105.995H123.619V152.644V103.052H117.732V100.11H108.901H111.844V97.1671H108.901V91.282ZM88.295 151.604H86.8232V150.133H88.295V151.604Z" fill="#A35A27"/>
<path d="M100.07 91.282H88.295V103.052H100.07V91.282Z" fill="#D09062"/>
<path d="M110.372 94.2246H98.5975V97.1671H110.372V94.2246Z" fill="#D09062"/>
<path d="M111.845 97.167H100.07V100.11H111.845V97.167Z" fill="#D09062"/>
<path d="M117.731 100.109H108.9V103.052H117.731V100.109Z" fill="#D09062"/>
<path d="M123.62 103.053H117.732V105.995H123.62V103.053Z" fill="#D09062"/>
<path d="M129.507 105.995H123.619V108.938H129.507V105.995Z" fill="#D09062"/>
<path d="M135.393 108.938H129.506V111.88H135.393V108.938Z" fill="#D09062"/>
<path d="M147.168 126.592H139.809V138.362H147.168V126.592Z" fill="#824418"/>
<path d="M144.224 134.439H136.865V147.19H144.224V134.439Z" fill="#824418"/>
<path d="M141.281 138.362H133.922V153.075H141.281V138.362Z" fill="#824418"/>
<path d="M133.922 147.19H123.619V156.018H133.922V147.19Z" fill="#824418"/>
<path d="M129.507 141.305H120.676V147.19H129.507V141.305Z" fill="#824418"/>
<path d="M147.168 120.707H136.865V129.535H147.168V120.707Z" fill="#824418"/>
<path d="M108.902 156.018H97.127V161.903H108.902V156.018Z" fill="#824418"/>
<path d="M100.069 153.075H91.2383V158.96H100.069V153.075Z" fill="#824418"/>
<path d="M95.1635 147.19H88.2949V153.075H95.1635V147.19Z" fill="#824418"/>
<path d="M85.3512 153.075H78.4826V158.96H85.3512V153.075Z" fill="#824418"/>
<path d="M117.656 153.3H105.844V159.204H117.656V153.3Z" fill="#824418"/>
<path d="M128.156 147.396H113.062V158.548H128.156V147.396Z" fill="#824418"/>
<path d="M138.656 150.02H129.469V161.828H138.656V150.02Z" fill="#824418"/>
<path d="M127.5 155.924H119.625V171.667H127.5V155.924Z" fill="#824418"/>
<path d="M89.7675 156.018H72.1055V173.673H89.7675V156.018Z" fill="#824418"/>
<path d="M86.3327 107.466V97.6573L83.6343 94.96L80.2 98.6381L76.7656 105.749L77.9922 107.466L80.2 109.673H81.1812L86.3327 107.466Z" fill="#F5F5F5"/>
<path d="M64.9899 101.826L60.0838 99.1291H57.14L54.9327 100.846L51.989 99.6195L47.8186 98.6387L46.1015 102.317L42.4219 103.788V108.202L46.1015 115.804H53.2156L56.8952 118.501L63.0275 119.727L66.4618 115.804L68.9149 114.087V103.788L64.9899 101.826Z" fill="white"/>
<path d="M55.9144 91.2822H52.9707V100.11H55.9144V91.2822Z" fill="#F5F5F5"/>
<path d="M70.6331 145.719H67.6895V149.152H70.6331V145.719Z" fill="#824419"/>
<path d="M136.687 160.516H128.812V171.667H136.687V160.516Z" fill="#824418"/>
<path d="M88.2952 91.2822H85.3516V105.995H88.2952V91.2822Z" fill="black"/>
<path d="M85.3519 88.3398H82.4082V94.2249H85.3519V88.3398Z" fill="black"/>
<path d="M85.3519 105.995H82.4082V108.938H85.3519V105.995Z" fill="black"/>
<path d="M79.4632 100.109H76.5195V103.052H79.4632V100.109Z" fill="black"/>
<path d="M73.5764 91.282H70.6328V94.2246H73.5764V91.282Z" fill="black"/>
<path d="M64.7464 94.2246H61.8027V97.1671H64.7464V94.2246Z" fill="black"/>
<path d="M61.8011 94.2246H58.8574V97.1671H61.8011V94.2246Z" fill="black"/>
<path d="M58.8577 94.2246H55.9141V97.1671H58.8577V94.2246Z" fill="black"/>
<path d="M50.0277 97.167H47.084V100.11H50.0277V97.167Z" fill="black"/>
<path d="M47.0843 100.109H44.1406V103.052H47.0843V100.109Z" fill="black"/>
<path d="M50.0277 105.995H47.084V108.938H50.0277V105.995Z" fill="black"/>
<path d="M61.8011 107.466H58.8574V110.408H61.8011V107.466Z" fill="black"/>
<path d="M70.6331 103.053H67.6895V114.823H70.6331V103.053Z" fill="black"/>
<path d="M47.0843 111.88H44.1406V117.765H47.0843V111.88Z" fill="black"/>
<path d="M50.0277 114.822H47.084V120.707H50.0277V114.822Z" fill="black"/>
<path d="M44.139 117.765H41.1953V120.707H44.139V117.765Z" fill="black"/>
<path d="M47.0827 144.247H41.1953V147.19H47.0827V144.247Z" fill="black"/>
<path d="M55.9153 147.19H44.1406V150.133H55.9153V147.19Z" fill="black"/>
<path d="M44.139 123.649H41.1953V126.592H44.139V123.649Z" fill="black"/>
<path d="M47.0843 123.649H44.1406V129.534H47.0843V123.649Z" fill="black"/>
<path d="M42.6683 138.362H39.7246V144.247H42.6683V138.362Z" fill="black"/>
<path d="M44.139 129.535H41.1953V138.363H44.139V129.535Z" fill="black"/>
<path d="M50.0277 120.708H47.084V123.651H50.0277V120.708Z" fill="black"/>
<path d="M52.9709 114.822H50.0273V117.765H52.9709V114.822Z" fill="black"/>
<path d="M41.1956 120.708H38.252V126.593H41.1956V120.708Z" fill="black"/>
<path d="M44.139 103.053H41.1953V111.88H44.139V103.053Z" fill="black"/>
<path d="M52.971 103.053H50.0273V108.938H52.971V103.053Z" fill="black"/>
<path d="M51.9906 108.938H49.0469V114.823H51.9906V108.938Z" fill="black"/>
<path d="M58.8577 91.2822H55.9141V94.2247H58.8577V91.2822Z" fill="black"/>
<path d="M52.971 88.3398H50.0273V100.11H52.971V88.3398Z" fill="black"/>
<path d="M55.9144 82.4541H52.9707V91.2817H55.9144V82.4541Z" fill="black"/>
<path d="M61.8011 97.167H58.8574V100.11H61.8011V97.167Z" fill="black"/>
<path d="M67.6901 100.109H61.8027V103.052H67.6901V100.109Z" fill="black"/>
<path d="M67.6898 114.822H64.7461V117.765H67.6898V114.822Z" fill="black"/>
<path d="M55.9144 114.822H52.9707V117.765H55.9144V114.822Z" fill="black"/>
<path d="M64.7451 117.765H55.9141V120.707H64.7451V117.765Z" fill="black"/>
<path d="M61.8017 158.96H52.9707V161.902H61.8017V158.96Z" fill="black"/>
<path d="M55.9144 100.109H52.9707V103.052H55.9144V100.109Z" fill="black"/>
<path d="M58.8577 97.167H55.9141V100.11H58.8577V97.167Z" fill="black"/>
<path d="M70.6331 91.2822H67.6895V94.2247H70.6331V91.2822Z" fill="black"/>
<path d="M67.6898 91.2822H64.7461V97.1673H67.6898V91.2822Z" fill="black"/>
<path d="M82.4085 97.167H79.4648V100.11H82.4085V97.167Z" fill="black"/>
<path d="M85.3519 94.2246H82.4082V97.1671H85.3519V94.2246Z" fill="black"/>
<path d="M82.4085 108.938H79.4648V111.88H82.4085V108.938Z" fill="black"/>
<path d="M79.4632 111.88H76.5195V114.822H79.4632V111.88Z" fill="black"/>
<path d="M76.5199 117.765H73.5762V120.707H76.5199V117.765Z" fill="black"/>
<path d="M79.4632 120.708H76.5195V125.612H79.4632V120.708Z" fill="black"/>
<path d="M82.4085 114.822H79.4648V125.612H82.4085V114.822Z" fill="black"/>
<path d="M79.4632 103.053H76.5195V108.938H79.4632V103.053Z" fill="black"/>
<path d="M82.4085 94.2246H79.4648V97.1671H82.4085V94.2246Z" fill="black"/>
<path d="M79.4632 91.2822H76.5195V97.1673H79.4632V91.2822Z" fill="black"/>
<path d="M76.5199 91.2822H73.5762V97.1673H76.5199V91.2822Z" fill="black"/>
<path d="M100.07 88.3398H88.2949V91.2824H100.07V88.3398Z" fill="black"/>
<path d="M108.901 91.2822H100.07V94.2247H108.901V91.2822Z" fill="black"/>
<path d="M111.844 94.2246H108.9V97.1671H111.844V94.2246Z" fill="black"/>
<path d="M132.45 105.995H129.506V108.938H132.45V105.995Z" fill="black"/>
<path d="M141.282 111.88H138.338V114.822H141.282V111.88Z" fill="black"/>
<path d="M144.225 114.822H141.281V117.765H144.225V114.822Z" fill="black"/>
<path d="M147.168 117.765H144.225V120.707H147.168V117.765Z" fill="black"/>
<path d="M147.168 120.708H144.225V123.651H147.168V120.708Z" fill="black"/>
<path d="M156 126.593H153.057V132.478H156V126.593Z" fill="black"/>
<path d="M117.731 97.167H111.844V100.11H117.731V97.167Z" fill="black"/>
<path d="M123.62 100.109H117.732V103.052H123.62V100.109Z" fill="black"/>
<path d="M129.507 103.053H123.619V105.995H129.507V103.053Z" fill="black"/>
<path d="M138.337 108.938H132.449V111.88H138.337V108.938Z" fill="black"/>
<path d="M153.057 123.649H150.113V126.592H153.057V123.649Z" fill="black"/>
<path d="M150.112 123.649H147.168V138.362H150.112V123.649Z" fill="black"/>
<path d="M147.168 138.362H144.225V147.19H147.168V138.362Z" fill="black"/>
<path d="M158.944 132.478H156V141.305H158.944V132.478Z" fill="black"/>
<path d="M156 141.305H153.057V147.19H156V141.305Z" fill="black"/>
<path d="M144.225 147.19H141.281V153.075H144.225V147.19Z" fill="black"/>
<path d="M141.282 153.075H138.338V161.903H141.282V153.075Z" fill="black"/>
<path d="M138.656 161.828H135.375V180.851H138.656V161.828Z" fill="black"/>
<path d="M129.469 155.924H126.844V173.635H129.469V155.924Z" fill="black"/>
<path d="M122.569 158.96H119.625V167.788H122.569V158.96Z" fill="black"/>
<path d="M126.844 171.667H124.219V178.883H126.844V171.667Z" fill="black"/>
<path d="M119.625 167.731H117V180.851H119.625V167.731Z" fill="black"/>
<path d="M136.031 171.011H117.656V173.635H136.031V171.011Z" fill="black"/>
<path d="M136.687 178.228H117V180.851H136.687V178.228Z" fill="black"/>
<path d="M126.563 150.133H123.619V156.018H126.563V150.133Z" fill="black"/>
<path d="M123.619 147.19H120.676V150.133H123.619V147.19Z" fill="black"/>
<path d="M123.619 153.075H120.676V156.018H123.619V153.075Z" fill="black"/>
<path d="M91.4081 155.924H88.127V180.851H91.4081V155.924Z" fill="black"/>
<path d="M82.2206 155.924H79.5957V171.667H82.2206V155.924Z" fill="black"/>
<path d="M73.6894 155.924H70.4082V178.227H73.6894V155.924Z" fill="black"/>
<path d="M91.2387 153.075H88.295V156.018H91.2387V153.075Z" fill="black"/>
<path d="M88.2952 150.133H85.3516V153.075H88.2952V150.133Z" fill="black"/>
<path d="M76.5199 147.19H73.5762V150.133H76.5199V147.19Z" fill="black"/>
<path d="M79.4632 144.247H76.5195V150.132H79.4632V144.247Z" fill="black"/>
<path d="M91.2387 114.822H88.295V120.707H91.2387V114.822Z" fill="black"/>
<path d="M88.2952 105.995H85.3516V114.823H88.2952V105.995Z" fill="black"/>
<path d="M82.4085 138.362H79.4648V147.19H82.4085V138.362Z" fill="black"/>
<path d="M85.3519 132.478H82.4082V141.305H85.3519V132.478Z" fill="black"/>
<path d="M88.2952 120.708H85.3516V135.421H88.2952V120.708Z" fill="black"/>
<path d="M120.676 156.018H117.732V158.96H120.676V156.018Z" fill="black"/>
<path d="M117.731 158.96H108.9V161.902H117.731V158.96Z" fill="black"/>
<path d="M158.597 180.803H155.373V183.488H158.597V180.803Z" fill="black"/>
<path d="M97.1257 158.96H91.2383V161.902H97.1257V158.96Z" fill="black"/>
<path d="M88.7827 171.011H70.4082V174.291H88.7827V171.011Z" fill="black"/>
<path d="M88.1265 178.228H70.4082V180.851H88.1265V178.228Z" fill="black"/>
<path d="M108.902 161.902H97.127V164.845H108.902V161.902Z" fill="black"/>
<path d="M153.224 180.803H57.5938V183.488H153.224V180.803Z" fill="black"/>
<path d="M120.676 141.305H117.732V147.19H120.676V141.305Z" fill="black"/>
<path d="M79.5956 171.667H76.9707V180.851H79.5956V171.667Z" fill="black"/>
<path d="M79.9144 153.301H76.9707V159.186H79.9144V153.301Z" fill="black"/>
<path d="M70.6331 149.151H67.6895V156.017H70.6331V149.151Z" fill="black"/>
<path d="M73.5764 145.719H70.6328V150.133H73.5764V145.719Z" fill="black"/>
<path d="M58.8577 144.247H55.9141V147.19H58.8577V144.247Z" fill="black"/>
<path d="M50.0277 150.133H47.084V153.075H50.0277V150.133Z" fill="black"/>
<path d="M52.9709 153.075H50.0273V158.96H52.9709V153.075Z" fill="black"/>
<path d="M61.8011 156.018H58.8574V158.96H61.8011V156.018Z" fill="black"/>
<path d="M64.7464 153.075H61.8027V158.96H64.7464V153.075Z" fill="black"/>
<path d="M67.6898 145.719H64.7461V153.075H67.6898V145.719Z" fill="black"/>
<path d="M213.195 71.784L210.963 68.5641L210.219 69.0593L207.985 71.041L205.008 72.5274L205.256 68.0687L201.535 66.0871H196.572L195.828 77.4809L193.347 80.4537L190.618 77.4809L188.633 74.261L188.137 71.784L185.656 68.5641L182.43 71.041V76.9856L184.911 79.4626L188.137 82.4349V87.8842L185.656 90.6088L184.911 107.204L182.43 108.691L181.686 114.388L180.197 116.617L179.205 124.296L182.43 128.258L184.911 130.735H196.821L198.806 128.258L199.55 123.552L201.783 122.561L205.008 119.837L207.489 122.066V124.296L210.466 128.258V144.854L213.195 146.093V152.78L215.429 156L216.421 176.807L221.631 177.55V153.771L224.361 152.78L227.09 156L228.082 176.311L233.044 176.807L233.54 153.771H247.683L250.66 154.762V158.973L253.141 159.468L252.645 163.926L255.374 167.147L256.366 178.045H262.072V162.936L264.306 162.44L267.531 164.917L269.764 167.89L270.26 178.045H275.47L276.215 165.413L272.989 162.44V158.973L269.516 156.744V119.589L268.027 116.865L264.306 114.388L262.072 111.168H247.434L245.449 113.645H232.796V108.691L231.307 105.718L229.819 102.251L228.33 100.517L227.586 97.0492L225.601 94.8198L224.361 92.5905L222.128 90.6088L221.631 85.6548L219.894 83.6736L217.413 82.9302L216.669 79.4626L213.195 77.4809V71.784Z" fill="white"/>
<path d="M203.458 67.4092H200.371V75.784H203.458V67.4092Z" fill="#DADADA"/>
<path d="M186.802 69.9598H183.715V78.3346H186.802V69.9598Z" fill="#FFD7D4"/>
<path d="M211.93 69.9824H208.844V78.3572H211.93V69.9824Z" fill="#FFD7D4"/>
<path d="M189.47 75.5508H186.662V81.1644H189.47V75.5508Z" fill="#DADADA"/>
<path d="M209.124 72.7441H206.316V81.164H209.124V72.7441Z" fill="#DADADA"/>
<path d="M214.739 78.335H211.932V86.7548H214.739V78.335Z" fill="#DADADA"/>
<path d="M220.354 83.9697H217.547V92.3895H220.354V83.9697Z" fill="#DADADA"/>
<path d="M217.546 86.7764H214.738V95.1962H217.546V86.7764Z" fill="#DADADA"/>
<path d="M211.958 81.1631H209.15V83.9697H211.958V81.1631Z" fill="#DADADA"/>
<path d="M223.161 92.3896H220.354V100.809H223.161V92.3896Z" fill="#DADADA"/>
<path d="M228.776 100.81H225.969V106.423H228.776V100.81Z" fill="#DADADA"/>
<path d="M225.97 92.8838H223.162V98.4971H225.97V92.8838Z" fill="#DADADA"/>
<path d="M231.585 105.019H228.777V110.633H231.585V105.019Z" fill="#DADADA"/>
<path d="M203.457 75.7843V73.1396H197.725V75.7843H203.457Z" fill="#BABABA"/>
<path d="M180.088 116.382L182.55 114.132H194.37L196.34 117.382L199.049 118.882V127.632L197.571 130.132L184.766 130.881L182.304 128.131L180.58 126.132L180.088 116.382Z" fill="#FFD7D5"/>
<path d="M197.894 126.914H183.531V129.436H197.894V126.914Z" fill="#FFB8B3"/>
<path d="M214.739 128.176H211.932V144.031H214.739V128.176Z" fill="#D9D9D9"/>
<path d="M217.546 144.031H214.738V155.258H217.546V144.031Z" fill="#D9D9D9"/>
<path d="M211.931 121.018H209.123V126.631H211.931V121.018Z" fill="#D9D9D9"/>
<path d="M203.534 115.404H200.727V121.017H203.534V115.404Z" fill="#D9D9D9"/>
<path d="M206.343 112.597H203.535V118.21H206.343V112.597Z" fill="#D9D9D9"/>
<path d="M209.15 109.791H206.342V115.404H209.15V109.791Z" fill="#D9D9D9"/>
<path d="M200.728 115.404H197.92V118.211H200.728V115.404Z" fill="#D9D9D9"/>
<path d="M220.354 166.483H217.547V176.066H220.354V166.483Z" fill="#FFD7D5"/>
<path d="M231.585 166.483H228.777V176.066H231.585V166.483Z" fill="#FFD7D5"/>
<path d="M260.224 166.483H257.416V176.066H260.224V166.483Z" fill="#FFD7D5"/>
<path d="M274.263 166.483H271.455V176.066H274.263V166.483Z" fill="#FFD7D5"/>
<path d="M260.224 152.45H251.801V158.063H260.224V152.45Z" fill="#C2C2C2"/>
<path d="M260.223 158.063H254.607V166.483H260.223V158.063Z" fill="#C2C2C2"/>
<path d="M260.223 149.645H234.393V152.451H260.223V149.645Z" fill="#C2C2C2"/>
<path d="M257.416 146.837H234.393V149.644H257.416V146.837Z" fill="#D9D9D9"/>
<path d="M200.7 81.1631H197.893V89.5828H200.7V81.1631Z" fill="black"/>
<path d="M189.47 81.1631H186.662V89.5828H189.47V81.1631Z" fill="black"/>
<path d="M183.855 69.9365H181.047V78.3563H183.855V69.9365Z" fill="black"/>
<path d="M214.739 69.9365H211.932V78.3563H214.739V69.9365Z" fill="black"/>
<path d="M206.315 67.1309H203.508V75.5506H206.315V67.1309Z" fill="black"/>
<path d="M197.894 64.3242H195.086V78.3572H197.894V64.3242Z" fill="black"/>
<path d="M195.085 78.3574H192.277V89.5838H195.085V78.3574Z" fill="black"/>
<path d="M203.533 64.3242H195.102V67.299H203.533V64.3242Z" fill="black"/>
<path d="M206.316 75.5508H197.893V78.3574H206.316V75.5508Z" fill="black"/>
<path d="M203.509 78.3574H200.701V81.164H203.509V78.3574Z" fill="black"/>
<path d="M209.124 69.9365H206.316V72.7431H209.124V69.9365Z" fill="black"/>
<path d="M211.931 67.1309H209.123V69.9374H211.931V67.1309Z" fill="black"/>
<path d="M209.124 81.1631H206.316V83.9697H209.124V81.1631Z" fill="black"/>
<path d="M211.931 83.9697H209.123V89.5829H211.931V83.9697Z" fill="black"/>
<path d="M192.276 75.5508H189.469V81.164H192.276V75.5508Z" fill="black"/>
<path d="M189.47 69.9365H186.662V75.5497H189.47V69.9365Z" fill="black"/>
<path d="M214.739 86.7764H211.932V95.1961H214.739V86.7764Z" fill="black"/>
<path d="M223.161 83.9697H220.354V92.3895H223.161V83.9697Z" fill="black"/>
<path d="M225.97 89.5831H223.162V95.1963H225.97V89.5831Z" fill="black"/>
<path d="M228.776 95.1963H225.969V100.809H228.776V95.1963Z" fill="black"/>
<path d="M209.124 121.018H206.316V126.631H209.124V121.018Z" fill="black"/>
<path d="M200.7 118.211H197.893V129.437H200.7V118.211Z" fill="black"/>
<path d="M181.046 115.404H178.238V126.631H181.046V115.404Z" fill="black"/>
<path d="M211.931 106.984H209.123V115.404H211.931V106.984Z" fill="black"/>
<path d="M231.585 100.81H228.777V106.423H231.585V100.81Z" fill="black"/>
<path d="M220.355 92.3896H217.547V100.809H220.355V92.3896Z" fill="black"/>
<path d="M225.97 98.0029H223.162V106.423H225.97V98.0029Z" fill="black"/>
<path d="M234.392 106.423H231.584V114.843H234.392V106.423Z" fill="black"/>
<path d="M237.2 112.597H234.393V129.436H237.2V112.597Z" fill="black"/>
<path d="M246.185 118.211H243.377V132.244H246.185V118.211Z" fill="black"/>
<path d="M246.185 138.417H243.377V146.837H246.185V138.417Z" fill="black"/>
<path d="M254.608 138.417H251.801V146.837H254.608V138.417Z" fill="black"/>
<path d="M237.2 135.05H234.393V143.47H237.2V135.05Z" fill="black"/>
<path d="M214.739 146.838H211.932V155.258H214.739V146.838Z" fill="black"/>
<path d="M211.931 128.875H209.123V146.837H211.931V128.875Z" fill="black"/>
<path d="M254.608 115.403H251.801V132.243H254.608V115.403Z" fill="black"/>
<path d="M263.03 115.403H260.223V132.243H263.03V115.403Z" fill="black"/>
<path d="M271.454 118.211H268.646V158.064H271.454V118.211Z" fill="black"/>
<path d="M211.931 78.3574H209.123V81.164H211.931V78.3574Z" fill="black"/>
<path d="M186.661 67.1309H183.854V69.9374H186.661V67.1309Z" fill="black"/>
<path d="M186.661 78.3574H183.854V81.164H186.661V78.3574Z" fill="black"/>
<path d="M217.546 95.1963H214.738V98.0029H217.546V95.1963Z" fill="black"/>
<path d="M223.161 100.81H220.354V103.616H223.161V100.81Z" fill="black"/>
<path d="M220.355 103.616H217.547V106.423H220.355V103.616Z" fill="black"/>
<path d="M217.546 106.423H214.738V109.229H217.546V106.423Z" fill="black"/>
<path d="M209.124 104.178H206.316V106.984H209.124V104.178Z" fill="black"/>
<path d="M206.316 101.371H203.547V104.178H206.316V101.371Z" fill="black"/>
<path d="M206.315 118.211H203.508V121.018H206.315V118.211Z" fill="black"/>
<path d="M203.509 121.018H200.701V123.824H203.509V121.018Z" fill="black"/>
<path d="M197.894 115.404H195.086V118.211H197.894V115.404Z" fill="black"/>
<path d="M191.716 121.018H188.908V123.824H191.716V121.018Z" fill="black"/>
<path d="M186.101 121.018H183.293V123.824H186.101V121.018Z" fill="black"/>
<path d="M183.855 126.63H181.047V129.436H183.855V126.63Z" fill="black"/>
<path d="M209.124 115.404H206.316V118.211H209.124V115.404Z" fill="black"/>
<path d="M206.315 109.791H203.508V115.404H206.315V109.791Z" fill="black"/>
<path d="M183.855 106.984H181.047V112.598H183.855V106.984Z" fill="black"/>
<path d="M186.661 89.583H183.854V109.79H186.661V89.583Z" fill="black"/>
<path d="M203.509 106.984H200.701V109.791H203.509V106.984Z" fill="black"/>
<path d="M228.776 106.423H225.969V109.229H228.776V106.423Z" fill="black"/>
<path d="M234.392 129.437H231.584V132.243H234.392V129.437Z" fill="black"/>
<path d="M243.378 132.243H240.57V135.05H243.378V132.243Z" fill="black"/>
<path d="M243.378 146.838H240.57V149.644H243.378V146.838Z" fill="black"/>
<path d="M251.8 146.838H248.992V149.644H251.8V146.838Z" fill="black"/>
<path d="M243.378 115.403H240.57V118.21H243.378V115.403Z" fill="black"/>
<path d="M234.392 143.47H231.584V146.276H234.392V143.47Z" fill="black"/>
<path d="M228.776 141.225H225.969V144.031H228.776V141.225Z" fill="black"/>
<path d="M225.97 132.243H223.162V135.05H225.97V132.243Z" fill="black"/>
<path d="M251.8 112.597H248.992V115.403H251.8V112.597Z" fill="black"/>
<path d="M251.8 132.243H248.992V135.05H251.8V132.243Z" fill="black"/>
<path d="M231.585 114.843H228.777V117.649H231.585V114.843Z" fill="black"/>
<path d="M268.648 135.05H265.84V137.856H268.648V135.05Z" fill="black"/>
<path d="M260.224 112.597H257.416V115.403H260.224V112.597Z" fill="black"/>
<path d="M265.839 112.597H263.031V115.403H265.839V112.597Z" fill="black"/>
<path d="M268.648 115.403H265.84V118.21H268.648V115.403Z" fill="black"/>
<path d="M274.263 118.211H271.455V121.018H274.263V118.211Z" fill="black"/>
<path d="M277.07 121.017H274.262V126.63H277.07V121.017Z" fill="black"/>
<path d="M274.263 158.063H271.455V163.677H274.263V158.063Z" fill="black"/>
<path d="M263.03 158.063H260.223V163.677H263.03V158.063Z" fill="black"/>
<path d="M254.608 160.87H251.801V166.483H254.608V160.87Z" fill="black"/>
<path d="M279.878 126.63H277.07V132.243H279.878V126.63Z" fill="black"/>
<path d="M277.07 132.243H274.262V140.663H277.07V132.243Z" fill="black"/>
<path d="M277.07 163.677H274.262V180.516H277.07V163.677Z" fill="black"/>
<path d="M271.454 166.483H268.647V180.516H271.454V166.483Z" fill="black"/>
<path d="M263.03 163.677H260.223V180.516H263.03V163.677Z" fill="black"/>
<path d="M257.415 166.483H254.607V180.516H257.415V166.483Z" fill="black"/>
<path d="M234.392 149.645H231.584V180.517H234.392V149.645Z" fill="black"/>
<path d="M228.776 154.696H225.969V180.517H228.776V154.696Z" fill="black"/>
<path d="M223.161 149.083H220.354V180.517H223.161V149.083Z" fill="black"/>
<path d="M217.546 155.257H214.738V180.516H217.546V155.257Z" fill="black"/>
<path d="M260.224 132.243H257.416V135.05H260.224V132.243Z" fill="black"/>
<path d="M225.97 109.229H223.162V112.036H225.97V109.229Z" fill="black"/>
<path d="M223.161 112.036H220.354V114.843H223.161V112.036Z" fill="black"/>
<path d="M231.585 109.229H228.777V112.036H231.585V109.229Z" fill="black"/>
<path d="M246.184 112.597H237.199V115.403H246.184V112.597Z" fill="black"/>
<path d="M228.776 117.649H225.969V120.456H228.776V117.649Z" fill="black"/>
<path d="M225.97 120.456H223.162V123.263H225.97V120.456Z" fill="black"/>
<path d="M263.032 109.791H246.186V112.598H263.032V109.791Z" fill="black"/>
<path d="M265.839 137.856H263.031V140.663H265.839V137.856Z" fill="black"/>
<path d="M263.03 140.663H260.223V143.47H263.03V140.663Z" fill="black"/>
<path d="M263.03 146.838H260.223V149.644H263.03V146.838Z" fill="black"/>
<path d="M225.97 151.889H223.162V154.696H225.97V151.889Z" fill="black"/>
<path d="M231.585 157.503H228.777V160.31H231.585V157.503Z" fill="black"/>
<path d="M231.585 163.677H228.777V166.483H231.585V163.677Z" fill="black"/>
<path d="M220.355 157.503H217.547V160.31H220.355V157.503Z" fill="black"/>
<path d="M220.355 163.677H217.547V166.483H220.355V163.677Z" fill="black"/>
<path d="M260.224 149.645H257.416V152.451H260.224V149.645Z" fill="black"/>
<path d="M271.454 160.87H268.647V163.677H271.454V160.87Z" fill="black"/>
<path d="M257.415 158.063H248.992V160.87H257.415V158.063Z" fill="black"/>
<path d="M265.839 155.257H257.416V158.063H265.839V155.257Z" fill="black"/>
<path d="M225.969 144.031H209.123V146.838H225.969V144.031Z" fill="black"/>
<path d="M257.417 152.45H233.832V155.257H257.417V152.45Z" fill="black"/>
<path d="M283.071 180.471H207.621V183.488H283.071V180.471Z" fill="black"/>
<path d="M223.162 135.05H209.123V137.856H223.162V135.05Z" fill="black"/>
<path d="M220.354 126.63H209.123V129.436H220.354V126.63Z" fill="black"/>
<path d="M205.272 180.471H194.041V183.488H205.272V180.471Z" fill="black"/>
<path d="M197.893 129.437H183.293V132.243H197.893V129.437Z" fill="black"/>
<path d="M195.085 112.597H181.047V115.404H195.085V112.597Z" fill="black"/>
<path d="M265.839 160.87H263.031V163.677H265.839V160.87Z" fill="black"/>
<path d="M275.385 174.903H268.647V180.517H275.385V174.903Z" fill="black"/>
<path d="M268.648 163.677H265.84V166.483H268.648V163.677Z" fill="black"/>
<path d="M260.224 163.677H257.416V166.483H260.224V163.677Z" fill="black"/>
<path d="M261.346 174.903H254.607V180.516H261.346V174.903Z" fill="black"/>
<path d="M251.8 155.257H248.992V158.063H251.8V155.257Z" fill="black"/>
<path d="M220.355 114.843H217.547V117.649H220.355V114.843Z" fill="black"/>
<path d="M232.707 174.903H225.969V180.516H232.707V174.903Z" fill="black"/>
<path d="M220.355 81.1631H217.547V83.9697H220.355V81.1631Z" fill="black"/>
<path d="M217.546 78.3574H214.738V89.5838H217.546V78.3574Z" fill="black"/>
<path d="M221.477 174.903H214.738V180.516H221.477V174.903Z" fill="black"/>
<path d="M200.934 90.8756L196.255 88.3738H193.447L191.341 89.966L188.533 88.8286L184.556 87.9189L182.918 91.3305L179.408 92.695V96.7885L182.918 103.839H189.703L193.213 106.341L199.062 107.478L202.338 103.839L204.677 102.247V92.695L200.934 90.8756Z" fill="white"/>
<path d="M189.469 86.5547H183.854V89.2838H189.469V86.5547Z" fill="black"/>
<path d="M183.854 89.2833H181.047V92.0124H183.854V89.2833Z" fill="black"/>
<path d="M186.661 94.7422H183.854V97.4713H186.661V94.7422Z" fill="black"/>
<path d="M197.894 96.1064H195.086V98.8356H197.894V96.1064Z" fill="black"/>
<path d="M206.316 92.0127H203.508V102.929H206.316V92.0127Z" fill="black"/>
<path d="M183.855 100.2H181.047V105.658H183.855V100.2Z" fill="black"/>
<path d="M186.661 102.929H183.854V105.658H186.661V102.929Z" fill="black"/>
<path d="M189.47 102.929H186.662V105.658H189.47V102.929Z" fill="black"/>
<path d="M181.046 92.0127H178.238V100.2H181.046V92.0127Z" fill="black"/>
<path d="M189.47 92.0128H186.662V97.4711H189.47V92.0128Z" fill="black"/>
<path d="M188.534 97.4707H185.727V102.929H188.534V97.4707Z" fill="black"/>
<path d="M198.053 86.5547H195.086V89.2838H198.053V86.5547Z" fill="black"/>
<path d="M203.508 89.2833H197.893V92.0124H203.508V89.2833Z" fill="black"/>
<path d="M203.509 102.929H200.701V105.658H203.509V102.929Z" fill="black"/>
<path d="M192.276 102.929H189.469V105.658H192.276V102.929Z" fill="black"/>
<path d="M200.7 105.658H192.277V108.388H200.7V105.658Z" fill="black"/>
<path d="M192.276 89.2832H189.469V92.0124H192.276V89.2832Z" fill="black"/>
<path d="M195.085 86.5547H192.277V89.2838H195.085V86.5547Z" fill="black"/>
<path d="M105.533 56.9941H102.91V59.6163H105.533V56.9941Z" fill="black"/>
<path d="M88.5505 47.4502H86.2051V49.7947H88.5505V47.4502Z" fill="black"/>
<path d="M86.2919 42.3809H83.3066V45.3649H86.2919V42.3809Z" fill="black"/>
<path d="M100.917 42.2908H97.9318V45.2749H100.917V42.2908Z" fill="black"/>
<path d="M93.2419 47.4502H90.8965V49.7947H93.2419V47.4502Z" fill="black"/>
<path d="M108.119 59.6162H105.496V62.2383H108.119V59.6162Z" fill="black"/>
<path d="M108.119 64.3164H105.496V66.9385H108.119V64.3164Z" fill="black"/>
<path d="M86.3523 71.5225H83.2461V74.6274H86.3523V71.5225Z" fill="black"/>
<path d="M105.228 74.6211H86.291V76.9714H105.228V74.6211Z" fill="black"/>
<path d="M97.9318 40.031H86.2911V42.3813H97.9318V40.031Z" fill="black"/>
<path d="M91.8047 75.4219V88.9463H94.1559V75.4219H91.8047Z" fill="black"/>
<path d="M95.7596 75.422V88.9464H98.1108V75.422H95.7596Z" fill="black"/>
</g>
</g>
<defs>
<clipPath id="clip0_311_12940">
<rect width="317" height="195" fill="white"/>
</clipPath>
</defs>
</svg>
