<svg width="317" height="195" viewBox="0 0 317 195" fill="none" xmlns="http://www.w3.org/2000/svg">
<g clip-path="url(#clip0_311_6890)">
<mask id="mask0_311_6890" style="mask-type:luminance" maskUnits="userSpaceOnUse" x="0" y="0" width="317" height="195">
<path d="M317 0H0V195H317V0Z" fill="white"/>
</mask>
<g mask="url(#mask0_311_6890)">
<path d="M179.851 135.209L179.851 209.314L144.493 209.314L144.493 135.209L179.851 135.209Z" fill="#B5DC3A"/>
<path d="M275.589 135.306L275.589 209.314L240.231 209.314L240.231 135.306L275.589 135.306Z" fill="#B5DC3A"/>
<path d="M242.521 172.153L178.495 172.153L178.495 134.342L242.521 134.342L242.521 172.153Z" fill="#B5DC3A"/>
<path d="M183.973 171.239L183.973 209.314L179.851 209.314L179.851 171.239L183.973 171.239Z" fill="#4FAB59"/>
<path d="M145.457 130.967L145.457 209.314L137.497 209.314L137.497 130.967L145.457 130.967Z" fill="#4FAB59"/>
<path d="M279.712 130.09L279.712 209.314L275.589 209.314L275.589 130.09L279.712 130.09Z" fill="#4FAB59"/>
<path d="M241.195 172.153L241.195 209.314L233.235 209.314L233.235 172.153L241.195 172.153Z" fill="#4FAB59"/>
<path d="M238.546 173.806L181.984 173.806L181.984 169.686L238.546 169.686L238.546 173.806Z" fill="#4FAB59"/>
<path d="M275.589 135.306L140.885 135.306L140.885 127.349L275.589 127.349L275.589 135.306Z" fill="#4FAB59"/>
<path d="M273.113 179.384L273.113 184.388L270.441 184.388L270.441 179.384L273.113 179.384Z" fill="white"/>
<path d="M175.805 184.045L175.805 189.048L173.133 189.048L173.133 184.045L175.805 184.045Z" fill="white"/>
<path d="M273.113 143.626L273.113 153.92L270.441 153.92L270.441 143.626L273.113 143.626Z" fill="white"/>
<path d="M273.113 189.048L273.113 206.278L270.441 206.278L270.441 189.048L273.113 189.048Z" fill="white"/>
<path d="M273.113 157.73L273.113 174.724L270.441 174.724L270.441 157.73L273.113 157.73Z" fill="white"/>
<path d="M273.113 138.762L273.113 141.227L270.441 141.227L270.441 138.762L273.113 138.762Z" fill="white"/>
<path d="M175.805 192.085L175.805 209.314L173.133 209.314L173.133 192.085L175.805 192.085Z" fill="white"/>
<path d="M175.805 169.221L175.805 180.65L173.133 180.65L173.133 169.221L175.805 169.221Z" fill="white"/>
<path d="M240.527 138.659L245.533 138.659L245.533 141.33L240.527 141.33L240.527 138.659Z" fill="white"/>
<path d="M203.904 138.659L214.203 138.659L214.203 141.33L203.904 141.33L203.904 138.659Z" fill="white"/>
<path d="M199.038 138.659L201.504 138.659L201.504 141.33L199.038 141.33L199.038 138.659Z" fill="white"/>
<path d="M250.195 138.659L267.431 138.659L267.431 141.33L250.195 141.33L250.195 138.659Z" fill="white"/>
<path d="M218.865 138.659L235.865 138.659L235.865 141.33L218.865 141.33L218.865 138.659Z" fill="white"/>
<path d="M169.464 138.659L174.469 138.659L174.469 141.33L169.464 141.33L169.464 138.659Z" fill="white"/>
<path d="M179.132 138.659L196.368 138.659L196.368 141.33L179.132 141.33L179.132 138.659Z" fill="white"/>
<path d="M149.078 138.659L166.078 138.659L166.078 141.33L149.078 141.33L149.078 138.659Z" fill="white"/>
<path d="M137.497 209.314H134.603V130.967H137.497V209.314Z" fill="black"/>
<path d="M186.867 209.314H183.973V173.806H186.867V209.314Z" fill="black"/>
<path d="M233.235 209.314H230.341V173.806H233.235V209.314Z" fill="black"/>
<path d="M231.923 173.806L231.923 176.699L185.421 176.699L185.421 173.806L231.923 173.806Z" fill="black"/>
<path d="M275.589 124.465L275.589 127.358L140.662 127.358L140.662 124.465L275.589 124.465Z" fill="black"/>
<path d="M282.606 209.314H279.712V130.09H282.606V209.314Z" fill="black"/>
<path d="M140.885 130.967H137.497V127.348H140.885V130.967Z" fill="black"/>
<path d="M279.711 130.091H275.589V127.349H279.711V130.091Z" fill="black"/>
<path d="M237.391 149.761V144.263H223.729V149.761H237.391Z" fill="#CCF34E"/>
<path d="M232.38 147.229H224.91V148.573H232.38V147.229Z" fill="#4FAB59"/>
<path d="M234.502 147.229H233.083V148.573H234.502V147.229Z" fill="#4FAB59"/>
<path d="M238.004 150.674V143.784H222.836V150.674H238.004ZM224.219 145.167H236.62V149.299H224.219V145.167Z" fill="#4FAB59"/>
<path d="M219.933 149.761V144.263H214.421V149.761H219.933Z" fill="#CCF34E"/>
<path d="M220.547 150.674V143.784H213.604V150.674H220.547ZM214.988 145.167H219.163V149.299H214.988V145.167Z" fill="#4FAB59"/>
<path d="M266.186 145.087H242.117V169.155H266.186V145.087Z" fill="#CCF34E"/>
<path d="M267.449 146.359H266.186V167.883H267.449V146.359Z" fill="#4FAB59"/>
<path d="M266.186 167.883H264.914V169.154H266.186V167.883Z" fill="#4FAB59"/>
<path d="M266.186 145.087H264.914V146.359H266.186V145.087Z" fill="#4FAB59"/>
<path d="M264.914 165.348H263.65V166.62H264.914V165.348Z" fill="#4FAB59"/>
<path d="M264.914 147.622H263.65V148.885H264.914V147.622Z" fill="#4FAB59"/>
<path d="M264.914 169.154H243.381V170.417H264.914V169.154Z" fill="#4FAB59"/>
<path d="M259.851 148.885H257.315V147.622H256.052V146.359H247.181V147.622H253.516V148.885H247.181V147.622H245.917V151.42H247.181V150.156H256.052V151.42H257.315V152.691H258.587V153.954H259.851V155.218H250.98V153.954H249.717V164.085H250.98V156.489H259.851V164.085H261.114V150.156H259.851V148.885Z" fill="#4FAB59"/>
<path d="M259.851 164.085H250.98V165.348H259.851V164.085Z" fill="#4FAB59"/>
<path d="M258.587 160.287H257.315V161.55H258.587V160.287Z" fill="#4FAB59"/>
<path d="M258.587 157.752H257.315V159.016H258.587V157.752Z" fill="#4FAB59"/>
<path d="M257.315 161.55H253.516V162.822H257.315V161.55Z" fill="#4FAB59"/>
<path d="M253.516 160.287H252.252V161.55H253.516V160.287Z" fill="#4FAB59"/>
<path d="M253.516 157.752H252.252V159.016H253.516V157.752Z" fill="#4FAB59"/>
<path d="M249.716 152.691H248.452V153.954H249.716V152.691Z" fill="#4FAB59"/>
<path d="M248.452 151.42H247.181V152.691H248.452V151.42Z" fill="#4FAB59"/>
<path d="M264.914 143.824H243.381V145.087H264.914V143.824Z" fill="#4FAB59"/>
<path d="M244.645 165.348H243.381V166.62H244.645V165.348Z" fill="#4FAB59"/>
<path d="M244.645 147.622H243.381V148.885H244.645V147.622Z" fill="#4FAB59"/>
<path d="M243.381 167.883H242.117V169.154H243.381V167.883Z" fill="#4FAB59"/>
<path d="M243.381 145.087H242.117V146.359H243.381V145.087Z" fill="#4FAB59"/>
<path d="M242.117 146.359H240.845V167.883H242.117V146.359Z" fill="#4FAB59"/>
<path d="M30.454 37.0279C30.454 36.6415 30.1318 36.3195 29.6808 36.3195H8.35521C7.90424 36.3195 7.58207 36.6415 7.58207 37.0279C7.58207 46.8815 18.7281 52.1625 31.4848 52.1625C47.5918 52.1625 56.0963 46.4307 56.0963 37.2211C56.0963 27.3676 47.5918 21.5069 31.4204 21.5069C29.7452 21.5069 29.6164 20.3477 29.6164 19.8969C29.6164 19.0596 30.454 18.3512 31.4848 18.3512C32.4513 18.3512 33.2888 18.9308 33.2888 19.8325C33.2888 20.4121 33.6754 20.7341 34.1908 20.7341H54.8722C55.3233 20.7341 55.6452 20.4121 55.6452 20.0257C55.6452 10.3653 44.4348 5.21307 31.807 5.21307C19.1147 5.21307 7.25995 11.6533 7.25995 20.7341C7.25995 30.6521 17.2463 35.289 31.6137 35.3534C33.0955 35.3534 34.062 36.0619 34.062 37.2211C34.062 38.0583 33.2888 38.7668 32.3224 38.7668C31.1627 38.7668 30.454 38.1871 30.454 37.0279ZM57.6179 5.21307C57.2956 5.21307 57.0381 5.47072 57.0381 5.79271V28.398C57.0381 28.72 57.2956 28.9776 57.6179 28.9776H69.3435V51.5829C69.3435 51.9051 69.6015 52.1625 69.9234 52.1625H90.8625C91.1848 52.1625 91.5067 51.9051 91.5067 51.5829V28.9776H103.233C103.555 28.9776 103.813 28.72 103.813 28.398V5.79271C103.813 5.47072 103.555 5.21307 103.233 5.21307H57.6179ZM135.857 5.59952C135.793 5.34192 135.535 5.21307 135.277 5.21307H114.789C114.467 5.21307 114.274 5.34192 114.145 5.59952L98.3598 51.3255C98.1666 51.8403 98.4241 52.1625 98.9396 52.1625H120.072C120.523 52.1625 120.717 51.9051 120.845 51.5185L122.069 47.8475H127.868L129.092 51.5185C129.221 51.9051 129.414 52.1625 129.865 52.1625H150.933C151.448 52.1625 151.706 51.8403 151.513 51.3255L135.857 5.59952ZM126.966 45.1426H122.972L124.969 38.96L126.966 45.1426ZM146.035 5.21307C145.713 5.21307 145.455 5.47072 145.455 5.79271V28.398C145.455 28.72 145.713 28.9776 146.035 28.9776H157.761V51.5829C157.761 51.9051 158.019 52.1625 158.341 52.1625H179.28C179.602 52.1625 179.924 51.9051 179.924 51.5829V28.9776H191.65C191.972 28.9776 192.23 28.72 192.23 28.398V5.79271C192.23 5.47072 191.972 5.21307 191.65 5.21307H146.035ZM195.153 5.21307C194.766 5.21307 194.508 5.53512 194.508 5.85711V51.5829C194.508 51.9051 194.766 52.1625 195.153 52.1625H239.866C240.252 52.1625 240.51 51.9694 240.51 51.5185V38.7024C240.51 38.316 240.252 38.1227 239.866 38.1227H216.156V35.8043H231.426C231.812 35.8043 232.006 35.611 232.006 35.1602V22.2798C232.006 21.8289 231.812 21.6357 231.426 21.6357H216.156V19.3172H239.866C240.252 19.3172 240.51 19.124 240.51 18.6732V5.85711C240.51 5.40632 240.252 5.21307 239.866 5.21307H195.153Z" fill="#E9D9FF"/>
<path d="M35.5842 70.1454C35.5842 63.2273 29.2127 57.7371 22.292 57.7371C14.9319 57.7371 8.92664 63.7401 8.92664 71.097C8.92664 78.4543 14.9319 84.4209 22.292 84.4209C29.2494 84.4209 35.5842 78.9667 35.5842 72.0491C35.5842 71.8658 35.4377 71.683 35.218 71.683H23.83C23.7201 71.683 23.6103 71.7195 23.537 71.8292C23.2441 72.2685 22.8047 72.5614 22.292 72.5614C21.4865 72.5614 20.8274 71.9023 20.8274 71.097C20.8274 70.2921 21.4865 69.633 22.292 69.633C22.8047 69.633 23.2441 69.8895 23.537 70.3287C23.6103 70.4384 23.7201 70.5115 23.83 70.5115H35.218C35.4377 70.5115 35.5842 70.3287 35.5842 70.1454ZM64.4505 58.1032C64.4505 57.9199 64.3042 57.7371 64.1208 57.7371H52.0007C51.8173 57.7371 51.6344 57.9199 51.6344 58.1032V67.2906H50.0597V58.1032C50.0597 57.9199 49.9134 57.7371 49.6939 57.7371H37.5733C37.3902 57.7371 37.2437 57.9199 37.2437 58.1032V84.0547C37.2437 84.2741 37.3902 84.4209 37.5733 84.4209H49.6939C49.9134 84.4209 50.0597 84.2741 50.0597 84.0547V75.4894H51.6344V84.0547C51.6344 84.2741 51.8173 84.4209 52.0007 84.4209H64.1208C64.3042 84.4209 64.4505 84.2741 64.4505 84.0547V58.1032ZM87.4184 57.9564C87.3818 57.8102 87.2355 57.7371 87.0892 57.7371H75.4445C75.2617 57.7371 75.1519 57.8102 75.0783 57.9564L66.1072 83.9451C65.9975 84.2376 66.1438 84.4209 66.4369 84.4209H78.4473C78.7038 84.4209 78.8135 84.2741 78.8867 84.0547L79.5826 81.9682H82.878L83.5739 84.0547C83.647 84.2741 83.7568 84.4209 84.0133 84.4209H95.9871C96.2802 84.4209 96.4265 84.2376 96.3168 83.9451L87.4184 57.9564ZM82.3654 80.4312H80.0952L81.23 76.9173L82.3654 80.4312ZM110.596 70.9873C110.596 70.9142 110.67 70.9142 110.67 70.9873L112.354 84.0913C112.391 84.2376 112.501 84.3843 112.647 84.4209H124.658C124.841 84.4209 125.024 84.2741 125.024 84.0913V58.1032C125.024 57.8833 124.841 57.7371 124.658 57.7371H112.757C112.574 57.7371 112.428 57.8833 112.428 58.1032V70.8776C112.428 70.9507 112.354 70.9507 112.354 70.8776L110.707 58.0666C110.67 57.8467 110.523 57.7371 110.304 57.7371H98.3295C98.1466 57.7371 98.0003 57.8833 98.0003 58.1032V84.0913C98.0003 84.2741 98.1466 84.4209 98.3295 84.4209H110.231C110.414 84.4209 110.596 84.2741 110.596 84.0913V70.9873ZM139.831 70.9873C139.831 70.9142 139.904 70.9142 139.904 70.9873L141.588 84.0913C141.625 84.2376 141.735 84.3843 141.881 84.4209H153.892C154.075 84.4209 154.258 84.2741 154.258 84.0913V58.1032C154.258 57.8833 154.075 57.7371 153.892 57.7371H141.991C141.808 57.7371 141.661 57.8833 141.661 58.1032V70.8776C141.661 70.9507 141.588 70.9507 141.588 70.8776L139.94 58.0666C139.904 57.8467 139.758 57.7371 139.538 57.7371H127.564C127.38 57.7371 127.234 57.8833 127.234 58.1032V84.0913C127.234 84.2741 127.38 84.4209 127.564 84.4209H139.464C139.647 84.4209 139.831 84.2741 139.831 84.0913V70.9873ZM156.834 57.7371C156.615 57.7371 156.468 57.9199 156.468 58.1032V84.0913C156.468 84.2741 156.615 84.4209 156.834 84.4209H182.247C182.467 84.4209 182.613 84.3107 182.613 84.0547V76.7705C182.613 76.5511 182.467 76.4415 182.247 76.4415H168.771V75.1238H177.45C177.67 75.1238 177.779 75.0136 177.779 74.7576V67.4368C177.779 67.1804 177.67 67.0707 177.45 67.0707H168.771V65.753H182.247C182.467 65.753 182.613 65.6433 182.613 65.3869V58.1032C182.613 57.8467 182.467 57.7371 182.247 57.7371H156.834ZM183.905 84.0913C183.905 84.2741 184.052 84.4209 184.235 84.4209H210.233C210.416 84.4209 210.6 84.2741 210.6 84.0913V76.6243C210.6 76.4415 210.416 76.2947 210.233 76.2947H196.465V58.0666C196.465 57.8833 196.282 57.7371 196.099 57.7371H184.235C184.052 57.7371 183.905 57.8833 183.905 58.0666V84.0913ZM224.887 75.8189C224.887 75.5995 224.704 75.4162 224.448 75.4162H212.327C212.071 75.4162 211.888 75.5995 211.888 75.8189C211.888 81.4193 218.223 84.4209 225.473 84.4209C234.627 84.4209 239.461 81.1629 239.461 75.9286C239.461 70.3287 234.627 66.9976 225.436 66.9976C224.484 66.9976 224.411 66.339 224.411 66.0826C224.411 65.6068 224.887 65.2041 225.473 65.2041C226.022 65.2041 226.498 65.5337 226.498 66.046C226.498 66.3756 226.718 66.5584 227.011 66.5584H238.765C239.021 66.5584 239.204 66.3756 239.204 66.1557C239.204 60.6655 232.833 57.7371 225.656 57.7371C218.442 57.7371 211.705 61.3972 211.705 66.5584C211.705 72.1953 217.381 74.8308 225.546 74.8673C226.388 74.8673 226.937 75.27 226.937 75.9286C226.937 76.4044 226.498 76.8071 225.949 76.8071C225.29 76.8071 224.887 76.478 224.887 75.8189Z" fill="#E9D9FF"/>
<path d="M84.0149 100.115H59.5677V151.82H84.0149V100.115Z" fill="#B5DC3A"/>
<path d="M55.2415 104.887H-29.0648V145.811H55.2415V104.887Z" fill="#B5DC3A"/>
<path d="M87.1054 93.1729H62.1262V100.116H87.1054V93.1729Z" fill="#4FAB59"/>
<path d="M62.754 94.0339H59.5677V102.449H62.754V94.0339Z" fill="#4FAB59"/>
<path d="M87.1054 158.762H62.1262V151.819H87.1054V158.762Z" fill="#4FAB59"/>
<path d="M62.754 158.762H59.5677V149.438H62.754V158.762Z" fill="#4FAB59"/>
<path d="M59.5674 100.115H56.6835V151.82H59.5674V100.115Z" fill="#4FAB59"/>
<path d="M56.6837 100.115H53.7998V153.908H56.6837V100.115Z" fill="#4FAB59"/>
<path d="M56.6836 100.115H-29.0648V104.887H56.6836V100.115Z" fill="#4FAB59"/>
<path d="M56.6836 144.695H-29.0648V153.908H56.6836V144.695Z" fill="#4FAB59"/>
<path d="M10.7142 109.385H5.92087V111.798H10.7142V109.385Z" fill="white"/>
<path d="M78.2598 104.887H71.3177V107.3H78.2598V104.887Z" fill="white"/>
<path d="M45.7846 109.385H35.9225V111.798H45.7846V109.385Z" fill="white"/>
<path d="M50.4439 109.385H48.0829V111.798H50.4439V109.385Z" fill="white"/>
<path d="M69.1523 104.887H66.7914V107.3H69.1523V104.887Z" fill="white"/>
<path d="M1.4562 109.385H-15.0499V111.798H1.4562V109.385Z" fill="white"/>
<path d="M31.458 109.385H15.1786V111.798H31.458V109.385Z" fill="white"/>
<path d="M94.9042 95.4866H83.0847V156.266H94.9042V95.4866Z" fill="#5CCF69"/>
<path d="M92.589 93.1729H85.3998V158.762H92.589V93.1729Z" fill="#5CCF69"/>
<path d="M97.3408 102.186H91.3701V149.445H97.3408V102.186Z" fill="#5CCF69"/>
<path d="M92.5889 97.8008H87.8368V153.952H92.5889V97.8008Z" fill="black"/>
<path d="M94.9041 107.058H85.3998V144.695H94.9041V107.058Z" fill="black"/>
<path d="M69.7587 128.764H63.3156V144.765H69.7587V128.764Z" fill="#CCF34E"/>
<path d="M70.829 128.046H62.7538V145.811H70.829V128.046ZM64.3754 144.19V129.667H69.2182V144.19H64.3754Z" fill="#4FAB59"/>
<path d="M47.6443 139.937V118.844H16.7976V139.937H47.6443Z" fill="#CCF34E"/>
<path d="M46.0146 141.555V139.937H18.4271V141.555H46.0146Z" fill="#4FAB59"/>
<path d="M18.4272 139.936V138.318H16.7975V139.936H18.4272Z" fill="#4FAB59"/>
<path d="M47.6443 139.936V138.318H46.0146V139.936H47.6443Z" fill="#4FAB59"/>
<path d="M23.2947 138.318V126.958H18.4269V138.318H23.2947Z" fill="#4FAB59"/>
<path d="M16.7975 138.318V120.463H15.1785V138.318H16.7975Z" fill="#4FAB59"/>
<path d="M29.7819 138.318V133.452H24.9141V138.318H29.7819ZM26.5438 136.689V135.071H28.1628V136.689H26.5438Z" fill="#4FAB59"/>
<path d="M36.2791 138.318V133.452H31.4114V138.318H36.2791ZM33.0304 136.689V135.071H34.6601V136.689H33.0304Z" fill="#4FAB59"/>
<path d="M46.0146 120.463H37.8981V138.318H46.0146V120.463ZM39.5279 136.689V122.091H44.3956V136.689H39.5279Z" fill="#4FAB59"/>
<path d="M42.766 135.071V133.452H41.1469V135.071H42.766Z" fill="#4FAB59"/>
<path d="M42.766 131.823V130.205H41.1469V131.823H42.766Z" fill="#4FAB59"/>
<path d="M29.7819 131.823V126.958H24.9141V131.823H29.7819ZM26.5438 130.205V128.576H28.1628V130.205H26.5438Z" fill="#4FAB59"/>
<path d="M36.2791 131.823V126.958H31.4114V131.823H36.2791ZM33.0304 130.205V128.576H34.6601V130.205H33.0304Z" fill="#4FAB59"/>
<path d="M18.4269 125.345H23.2947V120.463H18.4269V125.345ZM21.665 122.097V123.715H20.046V122.091L21.665 122.097Z" fill="#4FAB59"/>
<path d="M29.7819 125.345V120.463H24.9141V125.345H29.7819ZM26.5438 123.715V122.091H28.1628V123.71L26.5438 123.715Z" fill="#4FAB59"/>
<path d="M36.2791 125.345V120.463H31.4114V125.345H36.2791ZM33.0304 123.715V122.091H34.6601V123.71L33.0304 123.715Z" fill="#4FAB59"/>
<path d="M49.2633 138.318V120.463H47.6443V138.318H49.2633Z" fill="#4FAB59"/>
<path d="M18.4272 120.463V118.844H16.7975V120.463H18.4272Z" fill="#4FAB59"/>
<path d="M47.6443 120.463V118.844H46.0146V120.463H47.6443Z" fill="#4FAB59"/>
<path d="M46.0146 118.844V117.226H18.4271V118.844H46.0146Z" fill="#4FAB59"/>
<path d="M59.5674 97.8008H-29.0648V100.306H59.5674V97.8008Z" fill="black"/>
<path d="M59.5674 95.4418H57.2029V99.0534H59.5674V95.4418Z" fill="black"/>
<path d="M62.1262 95.442V93.0784H59.5673V95.442H62.1262Z" fill="black"/>
<path d="M92.5889 93.1727V90.8091H61.8928V93.1727H92.5889Z" fill="black"/>
<path d="M59.5674 154.022H-29.0648V151.517H59.5674V154.022Z" fill="black"/>
<path d="M59.5674 156.382H57.2029V152.77H59.5674V156.382Z" fill="black"/>
<path d="M62.1262 156.381L62.1262 158.745L59.5673 158.745L59.5673 156.381L62.1262 156.381Z" fill="black"/>
<path d="M92.5889 158.651L92.5889 161.014L61.8928 161.014L61.8928 158.651L92.5889 158.651Z" fill="black"/>
<path d="M97.341 95.4866H94.904V102.186H97.341V95.4866Z" fill="black"/>
<path d="M97.341 149.445H94.904V156.266H97.341V149.445Z" fill="black"/>
<path d="M85.3998 156.266H82.9628V160.908H85.3998V156.266Z" fill="black"/>
<path d="M95.0259 156.266H92.5889V158.651H95.0259V156.266Z" fill="black"/>
<path d="M95.0259 93.1729H92.5889V95.5578H95.0259V93.1729Z" fill="black"/>
<path d="M85.5218 93.1729H83.0847V95.5578H85.5218V93.1729Z" fill="black"/>
<path d="M99.778 102.186H97.3409V149.445H99.778V102.186Z" fill="black"/>
<path d="M83.0848 95.5578H80.6477V156.266H83.0848V95.5578Z" fill="black"/>
<path d="M59.5678 99.6304H57.1307V152.193H59.5678V99.6304Z" fill="black"/>
<mask id="mask1_311_6890" style="mask-type:alpha" maskUnits="userSpaceOnUse" x="85" y="96" width="59" height="57">
<path d="M143.382 96.8204H87.8368V152.971H143.382V96.8204Z" fill="black"/>
<path d="M94.9041 106.077H85.3998V143.714H94.9041V106.077Z" fill="black"/>
</mask>
<g mask="url(#mask1_311_6890)">
<path d="M103.563 114.517V110.69H95.9818V114.517H92.1909V118.345H88.4001V133.655H92.1909V137.483H95.9818V141.311H111.146V137.483H114.936V133.655H118.727V122.172H114.936V118.345H111.146V114.517H103.563ZM111.146 122.172V129.828H107.354V133.655H103.563V137.483H99.7726V133.655H95.9818V122.172H99.7726V118.345H107.354V122.172H111.146Z" fill="#CF8934"/>
<path d="M110.97 148.436H96.1568V152.176H110.97V148.436Z" fill="#231E2B"/>
<path d="M118.378 144.697H110.97V148.436H118.378V144.697Z" fill="#231E2B"/>
<path d="M96.1568 144.697H88.7498V148.436H96.1568V144.697Z" fill="#231E2B"/>
<path d="M122.081 140.958H118.377V144.697H122.081V140.958Z" fill="#231E2B"/>
<path d="M103.563 140.958H96.1568V144.697H103.563V140.958Z" fill="#F5F38E"/>
<path d="M92.4533 140.958V137.219H88.7498V118.521H92.4533V114.782H96.1563V111.043H110.97V107.304H103.563V103.564H96.1563V107.304H88.7498V111.043H85.0462V118.521H81.3427V133.479H85.0462V140.958H88.7498V144.697H96.1563V140.958H92.4533Z" fill="#E2B436"/>
<path d="M88.7497 140.958H85.0462V144.697H88.7497V140.958Z" fill="#231E2B"/>
<path d="M96.1568 137.218H92.4533V140.958H96.1568V137.218Z" fill="#F5F38E"/>
<path d="M125.784 133.479H122.081V140.958H125.784V133.479Z" fill="#231E2B"/>
<path d="M103.563 133.824H99.6321V137.793H103.563V133.824Z" fill="#C2751D"/>
<path d="M92.4533 133.479H88.7498V137.219H92.4533V133.479Z" fill="#F5F38E"/>
<path d="M99.6321 129.854H95.7013V133.824H99.6321V129.854Z" fill="#C2751D"/>
<path d="M129.488 118.521H125.784V133.479H129.488V118.521Z" fill="#231E2B"/>
<path d="M111.426 121.916H107.495V125.885H111.426V121.916Z" fill="#F5F38E"/>
<path d="M118.377 118.521H114.674V122.261H118.377V118.521Z" fill="#C2751D"/>
<path d="M107.495 117.947H103.563V121.916H107.495V117.947Z" fill="#F5F38E"/>
<path d="M103.563 117.947H99.6321V121.916H95.7013V129.855H99.6321V133.824H107.495V129.855H111.426V125.886H107.495V121.916H103.563V117.947Z" fill="#E2B436"/>
<path d="M122.081 114.782H118.377V111.043H110.97V114.782H114.674V118.521H118.377V133.479H114.674V137.219H110.97V140.958H103.563V144.697H96.1568V148.436H110.97V144.697H118.377V140.958H122.081V133.479H125.784V118.521H122.081V114.782Z" fill="#E2B436"/>
<path d="M114.674 114.782H110.97V118.521H114.674V114.782Z" fill="#C2751D"/>
<path d="M125.784 111.043H122.081V118.521H125.784V111.043Z" fill="#231E2B"/>
<path d="M122.081 111.043H118.377V114.782H122.081V111.043Z" fill="#F5F38E"/>
<path d="M110.97 111.043H103.563V114.782H110.97V111.043Z" fill="#C2751D"/>
<path d="M122.081 107.303H118.377V111.043H122.081V107.303Z" fill="#231E2B"/>
<path d="M118.378 107.303H110.97V111.043H118.378V107.303Z" fill="#F5F38E"/>
<path d="M88.7497 107.303H85.0462V111.043H88.7497V107.303Z" fill="#231E2B"/>
<path d="M118.378 103.564H110.97V107.304H118.378V103.564Z" fill="#231E2B"/>
<path d="M110.97 103.564H103.563V107.304H110.97V103.564Z" fill="#F5F38E"/>
<path d="M96.1568 103.564H88.7498V107.304H96.1568V103.564Z" fill="#231E2B"/>
<path d="M110.97 99.8249H96.1568V103.564H110.97V99.8249Z" fill="#231E2B"/>
</g>
<path d="M301.495 102.5V79.7214H253.281V102.5H301.495Z" fill="#B5DC3A"/>
<path d="M297.045 74.3475V-30.3869L258.883 -30.3869V74.3475H297.045Z" fill="#B5DC3A"/>
<path d="M307.968 105.38V82.1057H301.494V105.38H307.968Z" fill="#4FAB59"/>
<path d="M305.81 82.1056V79.7214H299.28V82.1056H305.81Z" fill="#4FAB59"/>
<path d="M246.807 105.38L246.807 82.1057L253.281 82.1057L253.281 105.38L246.807 105.38Z" fill="#4FAB59"/>
<path d="M246.807 82.1056L246.807 79.7214L255.495 79.7214L255.495 82.1056L246.807 82.1056Z" fill="#4FAB59"/>
<path d="M301.495 79.7214V77.0342H253.281V79.7214H301.495Z" fill="#4FAB59"/>
<path d="M301.495 77.0343V74.3471H251.333V77.0343H301.495Z" fill="#4FAB59"/>
<path d="M301.495 76.1386V-30.387H297.046V76.1386H301.495Z" fill="#4FAB59"/>
<path d="M259.924 76.1386V-30.3869H251.333V76.1386H259.924Z" fill="#4FAB59"/>
<path d="M292.851 8.09447V3.62827H290.601V8.09447H292.851Z" fill="white"/>
<path d="M292.851 34.2018V29.7356H290.601V34.2018H292.851Z" fill="white"/>
<path d="M297.045 97.1385V90.6701H294.795V97.1385H297.045Z" fill="white"/>
<path d="M292.851 66.8788V57.6898H290.601V66.8788H292.851Z" fill="white"/>
<path d="M292.851 71.2201V69.0202H290.601V71.2201H292.851Z" fill="white"/>
<path d="M297.045 88.6521V86.4523H294.795V88.6521H297.045Z" fill="white"/>
<path d="M292.851 25.5757V10.196H290.601V25.5757H292.851Z" fill="white"/>
<path d="M292.851 53.53V38.3615H290.601V53.53H292.851Z" fill="white"/>
<path d="M305.81 112.646V101.634H249.134V112.646H305.81Z" fill="#5CCF69"/>
<path d="M307.968 110.489V103.791H246.807V110.489H307.968Z" fill="#5CCF69"/>
<path d="M299.564 114.917V109.354H255.495V114.917H299.564Z" fill="#5CCF69"/>
<path d="M303.652 110.489V106.061H251.292V110.489H303.652Z" fill="black"/>
<path d="M295.021 112.646V103.791H259.925V112.646H295.021Z" fill="black"/>
<path d="M303.652 79.7213V-30.3869H301.316V79.7213H303.652Z" fill="black"/>
<path d="M305.852 79.7211V77.5179H302.484V79.7211H305.852Z" fill="black"/>
<path d="M305.852 82.1057H308.056V79.7215H305.852V82.1057Z" fill="black"/>
<path d="M307.968 110.489H310.172V81.8881H307.968V110.489Z" fill="black"/>
<path d="M251.226 79.7213L251.226 -30.3869L253.562 -30.3869L253.562 79.7213L251.226 79.7213Z" fill="black"/>
<path d="M249.026 79.7211L249.026 77.5179L252.394 77.5179L252.394 79.7211L249.026 79.7211Z" fill="black"/>
<path d="M249.026 82.1057H246.822V79.7215H249.026V82.1057Z" fill="black"/>
<path d="M246.911 110.489H244.706V81.8881H246.911V110.489Z" fill="black"/>
<path d="M305.81 114.917V112.646H299.564V114.917H305.81Z" fill="black"/>
<path d="M255.495 114.917V112.646H249.134V114.917H255.495Z" fill="black"/>
<path d="M249.134 103.791V101.52H244.806V103.791H249.134Z" fill="black"/>
<path d="M249.134 112.76V110.489H246.91V112.76H249.134Z" fill="black"/>
<path d="M307.968 112.76V110.489H305.745V112.76H307.968Z" fill="black"/>
<path d="M307.968 103.904V101.634H305.745V103.904H307.968Z" fill="black"/>
<path d="M299.564 117.188V114.917H255.495V117.188H299.564Z" fill="black"/>
<path d="M305.745 101.633V99.3627H249.134V101.633H305.745Z" fill="black"/>
<path d="M301.946 79.7213V77.4506H252.932V79.7213H301.946Z" fill="black"/>
<mask id="mask2_311_6890" style="mask-type:alpha" maskUnits="userSpaceOnUse" x="251" y="103" width="53" height="46">
<path d="M303.511 148.741V105.928H251.151V148.741H303.511Z" fill="black"/>
<path d="M294.879 148.742V103.791H259.783V148.742H294.879Z" fill="black"/>
</mask>
<g mask="url(#mask2_311_6890)">
<path d="M259.836 92.6201V141.349H294.656V92.6201H259.836ZM291.174 137.868H263.318V96.1004H291.174V137.868Z" fill="#231E2B"/>
<path d="M287.692 103.062H284.21V106.543H280.728V110.023H284.21V123.945H280.728V127.426H284.21V130.907H287.692V134.388H291.174V99.5811H287.692V103.062Z" fill="#F7FEFF"/>
<path d="M287.692 134.388V137.868H291.174V134.388H287.692Z" fill="#B6B7B8"/>
<path d="M284.21 130.907V134.388H287.692V130.907H284.21Z" fill="#B6B7B8"/>
<path d="M284.21 134.388V130.907H280.728V127.426H277.246V130.907H273.764V134.388H270.282V137.868H287.692V134.388H284.21Z" fill="#F7FEFF"/>
<path d="M280.728 103.062V106.543H284.21V103.062H280.728Z" fill="#B6B7B8"/>
<path d="M280.728 110.023V123.945H284.21V110.023H280.728Z" fill="#B6B7B8"/>
<path d="M280.728 127.426V130.907H284.21V127.426H280.728Z" fill="#B6B7B8"/>
<path d="M277.246 106.543V110.023H280.728V106.543H277.246Z" fill="#B6B7B8"/>
<path d="M277.246 123.946V127.426H280.728V123.946H277.246Z" fill="#B6B7B8"/>
<path d="M273.764 103.062V106.543H277.246V103.062H273.764Z" fill="#B6B7B8"/>
<path d="M273.764 127.426V130.907H277.246V127.426H273.764Z" fill="#B6B7B8"/>
<path d="M273.764 99.5811V103.062H277.246V106.543H280.728V103.062H284.21V99.5811H287.692V96.1004H270.282V99.5811H273.764Z" fill="#F7FEFF"/>
<path d="M270.282 130.907V134.388H273.764V130.907H270.282Z" fill="#B6B7B8"/>
<path d="M270.282 134.388V130.907H273.764V127.426H277.246V123.946H280.728V110.023H277.246V106.543H273.764V103.062H270.282V99.5811H266.8V96.1004H263.318V137.868H266.8V134.388H270.282Z" fill="#F7FEFF"/>
<path d="M266.8 134.388V137.868H270.282V134.388H266.8Z" fill="#B6B7B8"/>
</g>
<path d="M274.757 43.7293H264.782V68.5013H274.757V43.7293Z" fill="#CCF34E"/>
<path d="M276.414 42.6174H263.912V70.1201H276.414V42.6174ZM266.422 67.6109V45.1266H273.92V67.6109H266.422Z" fill="#4FAB59"/>
</g>
</g>
<defs>
<clipPath id="clip0_311_6890">
<rect width="317" height="195" fill="white"/>
</clipPath>
</defs>
</svg>
