<svg width="28" height="20" viewBox="0 0 28 20" fill="none" xmlns="http://www.w3.org/2000/svg">
<path d="M24.1207 2.21708C21.6975 0.334125 17.864 0.0155847 17.7011 0.00205592C17.4453 -0.0188521 17.2022 0.121355 17.0978 0.347654C17.0902 0.362412 17.0062 0.548125 16.9133 0.837149C18.5156 1.09788 20.4845 1.62428 22.2664 2.69305C22.5515 2.864 22.6393 3.22682 22.4624 3.50354C22.3478 3.6831 22.148 3.78149 21.9444 3.78149C21.8349 3.78149 21.7242 3.75321 21.6236 3.69294C18.5615 1.85795 14.7356 1.76571 14 1.76571C13.2644 1.76571 9.43727 1.85795 6.37764 3.69294C6.09127 3.86513 5.71709 3.77904 5.53891 3.50354C5.36073 3.22682 5.44982 2.86523 5.73491 2.69305C7.51673 1.62551 9.48436 1.09788 11.088 0.837149C10.9938 0.546896 10.9098 0.362412 10.9035 0.347654C10.7978 0.121355 10.556 -0.021312 10.2989 0.00328572C10.1373 0.0155846 6.30382 0.334125 3.84745 2.24414C2.56455 3.38916 0 10.0896 0 15.8823C0 15.9844 0.028 16.0853 0.0801818 16.1738C1.85055 19.1784 6.67927 19.9656 7.78018 20C7.78655 20 7.79291 20 7.79927 20C7.994 20 8.17727 19.9102 8.29182 19.7577L9.40545 18.2794C6.40309 17.5292 4.86945 16.2562 4.78036 16.1812C4.52836 15.966 4.50418 15.5945 4.72691 15.351C4.94964 15.1075 5.33273 15.0841 5.58473 15.2981C5.62164 15.3301 8.44582 17.646 14 17.646C19.5644 17.646 22.3885 15.3203 22.4165 15.2969C22.6685 15.0854 23.0529 15.1075 23.2744 15.3523C23.4958 15.5958 23.4716 15.966 23.2209 16.18C23.1318 16.2562 21.5982 17.5279 18.5958 18.2782L19.7095 19.7565C19.824 19.909 20.0073 19.9988 20.202 19.9988C20.2084 19.9988 20.2147 19.9988 20.2211 19.9988C21.322 19.9656 26.1507 19.1784 27.9211 16.1726C27.972 16.084 28 15.9844 28 15.8823C28 10.0896 25.4355 3.38916 24.1207 2.21708ZM10.0431 13.5296C8.86709 13.5296 7.91255 12.4756 7.91255 11.1768C7.91255 9.87804 8.86582 8.82403 10.0431 8.82403C11.2204 8.82403 12.1736 9.87804 12.1736 11.1768C12.1736 12.4756 11.2204 13.5296 10.0431 13.5296ZM17.9569 13.5296C16.7809 13.5296 15.8264 12.4756 15.8264 11.1768C15.8264 9.87804 16.7796 8.82403 17.9569 8.82403C19.1329 8.82403 20.0875 9.87804 20.0875 11.1768C20.0875 12.4756 19.1329 13.5296 17.9569 13.5296Z" fill="url(#paint0_linear_311_12872)" fill-opacity="0.76"/>
<defs>
<linearGradient id="paint0_linear_311_12872" x1="2.05333" y1="4.5" x2="26.9817" y2="8.52795" gradientUnits="userSpaceOnUse">
<stop stop-color="#8C02F9"/>
<stop offset="1" stop-color="#1C69FF"/>
</linearGradient>
</defs>
</svg>
