<svg width="28" height="27" viewBox="0 0 28 27" fill="none" xmlns="http://www.w3.org/2000/svg">
<path d="M12.4285 0.096386C5.97538 0.792663 0.784864 5.94512 0.0834434 12.2116C-0.617978 18.7566 3.1697 24.6053 8.92135 26.8334C9.3422 26.9727 9.76305 26.6942 9.76305 26.1372V23.9091C9.76305 23.9091 9.20192 24.0483 8.5005 24.0483C6.53652 24.0483 5.69481 22.3773 5.55453 21.4025C5.41424 20.8454 5.13368 20.4277 4.71282 20.0099C4.29197 19.8707 4.15169 19.8707 4.15169 19.7314C4.15169 19.4529 4.57254 19.4529 4.71282 19.4529C5.55453 19.4529 6.25595 20.4277 6.53652 20.8454C7.23794 21.9595 8.07964 22.238 8.5005 22.238C9.06163 22.238 9.48248 22.0987 9.76305 21.9595C9.90334 20.9847 10.3242 20.0099 11.1659 19.4529C7.93936 18.7566 5.55453 16.9463 5.55453 13.8827C5.55453 12.3509 6.25595 10.8191 7.23794 9.70501C7.09765 9.4265 6.95737 8.73022 6.95737 7.75544C6.95737 7.19841 6.95737 6.36288 7.37822 5.52735C7.37822 5.52735 9.3422 5.52735 11.3062 7.33767C12.0076 7.05916 12.9896 6.9199 13.9716 6.9199C14.9536 6.9199 15.9356 7.05916 16.7773 7.33767C18.601 5.52735 20.7052 5.52735 20.7052 5.52735C20.9858 6.36288 20.9858 7.19841 20.9858 7.75544C20.9858 8.86948 20.8455 9.4265 20.7052 9.70501C21.6872 10.8191 22.3886 12.2116 22.3886 13.8827C22.3886 16.9463 20.0038 18.7566 16.7773 19.4529C17.619 20.1492 18.1801 21.4025 18.1801 22.6558V26.2764C18.1801 26.6942 18.601 27.1119 19.1621 26.9727C24.3526 24.8839 28 19.8707 28 14.0219C28 5.6666 20.8455 -0.878402 12.4285 0.096386Z" fill="url(#paint0_linear_311_12868)" fill-opacity="0.76"/>
<defs>
<linearGradient id="paint0_linear_311_12868" x1="2.05333" y1="6.075" x2="27.2713" y2="9.09333" gradientUnits="userSpaceOnUse">
<stop stop-color="#8C02F9"/>
<stop offset="1" stop-color="#1C69FF"/>
</linearGradient>
</defs>
</svg>
