<svg width="26" height="26" viewBox="0 0 26 26" fill="none" xmlns="http://www.w3.org/2000/svg">
<path d="M13 0C12.4017 0 11.9167 0.485025 11.9167 1.08333V2.16667C11.9167 2.76498 12.4017 3.25 13 3.25C13.5983 3.25 14.0833 2.76498 14.0833 2.16667V1.08333C14.0833 0.485025 13.5983 0 13 0ZM5.34049 3.80859C4.91747 3.38557 4.23162 3.38557 3.80859 3.80859C3.38557 4.23162 3.38557 4.91747 3.80859 5.3405L4.57455 6.10645C4.99757 6.52947 5.68342 6.52947 6.10645 6.10645C6.52947 5.68342 6.52947 4.99757 6.10645 4.57454L5.34049 3.80859ZM22.1914 3.80859C21.7684 3.38557 21.0825 3.38557 20.6595 3.80859L19.8936 4.57455C19.4705 4.99757 19.4705 5.68342 19.8936 6.10645C20.3166 6.52947 21.0024 6.52947 21.4255 6.10645L22.1914 5.34049C22.6144 4.91747 22.6144 4.23162 22.1914 3.80859ZM13 5.41667C8.82467 5.41667 5.41667 8.82467 5.41667 13C5.41667 17.1753 8.82467 20.5833 13 20.5833C17.1753 20.5833 20.5833 17.1753 20.5833 13C20.5833 8.82467 17.1753 5.41667 13 5.41667ZM13 7.58333C16.0044 7.58333 18.4167 9.99563 18.4167 13C18.4167 16.0044 16.0044 18.4167 13 18.4167C9.99563 18.4167 7.58333 16.0044 7.58333 13C7.58333 9.99563 9.99563 7.58333 13 7.58333ZM1.08333 11.9167C0.485025 11.9167 0 12.4017 0 13C0 13.5983 0.485025 14.0833 1.08333 14.0833H2.16667C2.76498 14.0833 3.25 13.5983 3.25 13C3.25 12.4017 2.76498 11.9167 2.16667 11.9167H1.08333ZM23.8333 11.9167C23.235 11.9167 22.75 12.4017 22.75 13C22.75 13.5983 23.235 14.0833 23.8333 14.0833H24.9167C25.515 14.0833 26 13.5983 26 13C26 12.4017 25.515 11.9167 24.9167 11.9167H23.8333ZM6.10645 19.8936C5.68342 19.4705 4.99757 19.4705 4.57454 19.8936L3.80859 20.6595C3.38557 21.0825 3.38557 21.7684 3.80859 22.1914C4.23162 22.6144 4.91747 22.6144 5.3405 22.1914L6.10645 21.4255C6.52947 21.0024 6.52947 20.3166 6.10645 19.8936ZM21.4255 19.8936C21.0024 19.4705 20.3166 19.4705 19.8936 19.8936C19.4705 20.3166 19.4705 21.0024 19.8936 21.4255L20.6595 22.1914C21.0825 22.6144 21.7684 22.6144 22.1914 22.1914C22.6144 21.7684 22.6144 21.0825 22.1914 20.6595L21.4255 19.8936ZM13 22.75C12.4017 22.75 11.9167 23.235 11.9167 23.8333V24.9167C11.9167 25.515 12.4017 26 13 26C13.5983 26 14.0833 25.515 14.0833 24.9167V23.8333C14.0833 23.235 13.5983 22.75 13 22.75Z" fill="white"/>
</svg>
