<svg width="26" height="21" viewBox="0 0 26 21" fill="none" xmlns="http://www.w3.org/2000/svg">
<path d="M25.9088 0.247164C25.9444 0.162285 25.8523 0.086564 25.7718 0.131083C24.7042 0.721126 22.8675 1.45257 21.7555 1.67465C21.7405 1.67857 21.7267 1.68298 21.7132 1.68745C21.6792 1.69868 21.6424 1.68922 21.6168 1.66421C20.5636 0.635517 19.1322 0 17.55 0C14.3195 0 11.7 2.64452 11.7 5.90588C11.7 6.04543 11.6906 6.2801 11.6947 6.45337C11.6961 6.51193 11.6491 6.56212 11.5905 6.5616C7.35108 6.52397 4.10376 4.30204 1.75293 1.44541C1.70424 1.38624 1.61037 1.40091 1.58629 1.47366C1.36875 2.13091 1.2727 3.08183 1.2727 3.97925C1.2727 5.7522 2.59622 7.49465 4.67801 8.62064C4.75907 8.66448 4.74536 8.78528 4.65529 8.80479C4.31837 8.87777 3.95827 8.92576 3.5867 8.92576C2.84922 8.92576 2.0696 8.73432 1.35192 8.15842C1.33117 8.14177 1.3 8.15633 1.3 8.18293C1.3 10.6628 3.81584 12.3788 6.1509 12.9333C6.23988 12.9545 6.25505 13.0662 6.16907 13.0974C5.64738 13.2867 4.8654 13.3079 4.4538 13.3079C4.15963 13.3079 3.21554 13.1896 2.76482 13.1191C2.69007 13.1074 2.62813 13.1789 2.65419 13.2499C3.35989 15.1739 5.54492 16.2878 7.69665 16.4129C7.79036 16.4184 7.82946 16.5385 7.75503 16.5957C6.07153 17.889 4.77992 18.3739 1.2532 18.3739H0.338621C0.23897 18.3739 0.201219 18.5024 0.285922 18.5549C2.56453 19.9671 5.40482 21 8.2511 21C17.9101 21 23.4 13.5678 23.4 6.56209C23.4 6.44922 23.3974 6.21299 23.3935 5.97544C23.3935 5.95182 23.4 5.9295 23.4 5.90588C23.4 5.87045 23.3896 5.83632 23.3896 5.80089C23.3864 5.65426 23.3832 5.51561 23.38 5.42276C23.3788 5.38922 23.3942 5.35725 23.4213 5.33735C24.3376 4.66267 25.1439 3.84017 25.8047 2.90945C25.8627 2.82776 25.7755 2.72286 25.6827 2.76076C24.971 3.05169 24.2223 3.2648 23.4442 3.39363C23.3379 3.41122 23.2829 3.26488 23.3701 3.20162C24.328 2.50644 25.4699 1.29442 25.9088 0.247164Z" fill="url(#paint0_linear_311_12870)" fill-opacity="0.76"/>
<defs>
<linearGradient id="paint0_linear_311_12870" x1="1.90667" y1="4.725" x2="25.1835" y2="8.05114" gradientUnits="userSpaceOnUse">
<stop stop-color="#8C02F9"/>
<stop offset="1" stop-color="#1C69FF"/>
</linearGradient>
</defs>
</svg>
